<svg width="64" height="65" viewBox="0 0 64 65" fill="none" xmlns="http://www.w3.org/2000/svg">
<path d="M21.1201 20.6067C18.9867 19.7 18.0801 17.06 19.3601 15.14C21.9467 11.3 26.2667 8.5 31.9734 8.5C38.2401 8.5 42.5334 11.3533 44.7201 14.9267C46.5867 17.9933 47.6801 23.7267 44.8001 27.9933C41.6001 32.7133 38.5334 34.1533 36.8801 37.1933C36.4801 37.9133 36.2401 38.5 36.0801 39.7C35.8401 41.6467 34.2401 43.1667 32.2667 43.1667C29.9467 43.1667 28.0534 41.1667 28.3201 38.8467C28.4801 37.4867 28.8001 36.0733 29.5467 34.74C31.6001 31.0333 35.5467 28.8467 37.8401 25.5667C40.2667 22.1267 38.9067 15.7 32.0267 15.7C28.9067 15.7 26.8801 17.3267 25.6267 19.2733C24.6934 20.7933 22.7467 21.2733 21.1201 20.6067ZM37.3334 53.8333C37.3334 56.7667 34.9334 59.1667 32.0001 59.1667C29.0667 59.1667 26.6667 56.7667 26.6667 53.8333C26.6667 50.9 29.0667 48.5 32.0001 48.5C34.9334 48.5 37.3334 50.9 37.3334 53.8333Z" fill="#9F9F9F"/>
</svg>
