<svg width="17" height="16" viewBox="0 0 17 16" fill="none" xmlns="http://www.w3.org/2000/svg">
<path fill-rule="evenodd" clip-rule="evenodd" d="M8.49984 2.00033C5.18613 2.00033 2.49984 4.68662 2.49984 8.00033C2.49984 11.314 5.18613 14.0003 8.49984 14.0003C11.8135 14.0003 14.4998 11.314 14.4998 8.00033C14.4998 4.68662 11.8135 2.00033 8.49984 2.00033ZM1.1665 8.00033C1.1665 3.95024 4.44975 0.666992 8.49984 0.666992C12.5499 0.666992 15.8332 3.95024 15.8332 8.00033C15.8332 12.0504 12.5499 15.3337 8.49984 15.3337C4.44975 15.3337 1.1665 12.0504 1.1665 8.00033Z" fill="#027A48"/>
<path fill-rule="evenodd" clip-rule="evenodd" d="M8.50016 4.66699C8.86835 4.66699 9.16683 4.96547 9.16683 5.33366V8.00033C9.16683 8.36852 8.86835 8.66699 8.50016 8.66699C8.13197 8.66699 7.8335 8.36852 7.8335 8.00033V5.33366C7.8335 4.96547 8.13197 4.66699 8.50016 4.66699Z" fill="#027A48"/>
<path fill-rule="evenodd" clip-rule="evenodd" d="M7.8335 10.6667C7.8335 10.2985 8.13197 10 8.50016 10H8.50683C8.87502 10 9.1735 10.2985 9.1735 10.6667C9.1735 11.0349 8.87502 11.3333 8.50683 11.3333H8.50016C8.13197 11.3333 7.8335 11.0349 7.8335 10.6667Z" fill="#027A48"/>
</svg>
