<svg width="17" height="17" viewBox="0 0 17 17" fill="none" xmlns="http://www.w3.org/2000/svg">
<path fill-rule="evenodd" clip-rule="evenodd" d="M8.49935 14.4997C5.18564 14.4997 2.49935 11.8134 2.49935 8.49967C2.49935 5.18597 5.18564 2.49967 8.49935 2.49967C11.8131 2.49967 14.4993 5.18597 14.4993 8.49967C14.4993 11.8134 11.8131 14.4997 8.49935 14.4997ZM1.16602 8.49967C1.16602 12.5498 4.44926 15.833 8.49935 15.833C12.5494 15.833 15.8327 12.5498 15.8327 8.49967C15.8327 4.44959 12.5494 1.16634 8.49935 1.16634C4.44926 1.16634 1.16602 4.44959 1.16602 8.49967Z" fill="#027A48"/>
<path fill-rule="evenodd" clip-rule="evenodd" d="M8.50065 11.833C8.86884 11.833 9.16732 11.5345 9.16732 11.1663V8.49967C9.16732 8.13148 8.86884 7.83301 8.50065 7.83301C8.13246 7.83301 7.83398 8.13148 7.83398 8.49967V11.1663C7.83398 11.5345 8.13246 11.833 8.50065 11.833Z" fill="#027A48"/>
<path fill-rule="evenodd" clip-rule="evenodd" d="M7.83301 5.83333C7.83301 6.20152 8.13148 6.5 8.49967 6.5H8.50634C8.87453 6.5 9.17301 6.20152 9.17301 5.83333C9.17301 5.46514 8.87453 5.16667 8.50634 5.16667H8.49967C8.13148 5.16667 7.83301 5.46514 7.83301 5.83333Z" fill="#027A48"/>
</svg>
