<svg width="10" height="7" viewBox="0 0 10 7" fill="none" xmlns="http://www.w3.org/2000/svg">
<path d="M3.50007 5.08492L1.76507 3.34992C1.67158 3.25643 1.54479 3.20391 1.41257 3.20391C1.28036 3.20391 1.15356 3.25643 1.06007 3.34992C0.966584 3.44341 0.914063 3.5702 0.914062 3.70242C0.914063 3.76788 0.926957 3.83271 0.952009 3.89319C0.977062 3.95367 1.01378 4.00863 1.06007 4.05492L3.15007 6.14492C3.34507 6.33992 3.66007 6.33992 3.85507 6.14492L9.14507 0.854917C9.23856 0.761428 9.29108 0.63463 9.29108 0.502417C9.29108 0.370203 9.23856 0.243405 9.14507 0.149917C9.05158 0.0564278 8.92479 0.00390625 8.79257 0.00390625C8.66036 0.00390625 8.53356 0.0564278 8.44007 0.149917L3.50007 5.08492Z" fill="#9C9C9C"/>
</svg>
