<svg width="64" height="65" viewBox="0 0 64 65" fill="none" xmlns="http://www.w3.org/2000/svg">
<g clip-path="url(#clip0_468_88)">
<path d="M59.273 10.7375C57.2427 9.8488 54.2883 8.8223 50.9331 8.48793C50.0283 3.93996 46.0077 0.500977 41.1979 0.500977C41.1855 0.500977 41.1736 0.502602 41.1613 0.502852C41.1489 0.502727 41.137 0.500977 41.1246 0.500977C36.6928 0.500977 32.9308 3.42071 31.6589 7.43731C31.4188 7.33844 31.1772 7.24131 30.9324 7.14781C28.0246 6.03682 24.7201 6.73694 22.5142 8.9323L15.4484 15.9651C13.1494 18.2535 12.4871 21.7751 13.8003 24.7285C14.005 25.189 14.22 25.6452 14.4442 26.0947L0.731871 39.8117C0.263248 40.2805 0 40.9162 0 41.5792V50.6257C0 52.0064 1.11924 53.1257 2.49999 53.1257H11.4884C12.8692 53.1257 13.9884 52.0064 13.9884 50.6257V47.2507H17.2499C18.6306 47.2507 19.7499 46.1315 19.7499 44.7507V39.2508C19.7499 37.87 18.6306 36.7508 17.2499 36.7508C15.8692 36.7508 14.7499 37.87 14.7499 39.2508V42.2507H11.4884C10.1077 42.2507 8.98845 43.37 8.98845 44.7507V48.1257H4.99997V42.6145L19.2423 28.3676C19.5401 28.0696 19.7579 27.7011 19.8753 27.2963L19.901 27.2077C20.0894 26.5578 20.0064 25.8592 19.6706 25.2716C19.2011 24.4496 18.7633 23.5833 18.3691 22.6971C17.8926 21.6256 18.1365 20.3444 18.9759 19.509L26.0416 12.4763C26.8553 11.6665 28.0745 11.4083 29.1478 11.8184C31.0603 12.5493 32.7911 13.4709 34.305 14.5606C33.7884 15.619 33.5027 16.796 33.4998 18.0164V19.2151L31.2676 16.9829C30.2912 16.0065 28.7083 16.0065 27.7321 16.9829C26.7558 17.9592 26.7557 19.5422 27.7321 20.5185L32.2321 25.0185C32.5923 25.3787 33.0353 25.605 33.4998 25.6995V28.0293C33.4961 29.6617 34.0034 31.222 34.8909 32.5189L33.3756 34.0272C32.5357 34.8632 31.2809 35.1075 30.1789 34.6488C29.54 34.383 28.2685 33.8148 26.9326 32.9949C25.7558 32.2728 24.2165 32.6412 23.4942 33.8179C22.7721 34.9946 23.1405 36.534 24.3172 37.2564C25.5225 37.9961 26.9223 38.7096 28.2587 39.2654C29.2521 39.6787 30.2921 39.8796 31.3218 39.8796C33.3747 39.8796 35.3864 39.0804 36.9028 37.571L38.9231 35.5601C39.3636 35.724 39.806 35.8815 40.2505 36.0263V55.76C40.2505 56.4238 40.5145 57.0603 40.9841 57.5291L47.2341 63.769C47.703 64.2371 48.3382 64.4999 49.0005 64.4999C49.0047 64.4999 49.009 64.4999 49.0132 64.4999C49.68 64.4965 50.3177 64.2269 50.7847 63.7511L56.909 57.5113C57.8615 56.5408 57.8638 54.9872 56.9142 54.0139L54.7733 51.8202L57.022 49.5954C57.4978 49.1247 57.7649 48.4831 57.7638 47.8137C57.7625 47.1445 57.493 46.5037 57.0157 46.0347L53.0018 42.092C52.0168 41.1247 50.4341 41.1386 49.4665 42.1237C48.499 43.1087 48.5131 44.6915 49.4981 45.659L51.7028 47.8246L49.4918 50.0119C48.5151 50.9782 48.5012 52.5518 49.4608 53.5353L51.6271 55.755L48.9827 58.4493L45.2507 54.7233V34.2509C45.2507 33.5954 44.9932 32.9662 44.5337 32.4985L44.4081 32.3708C44.0944 32.0514 43.7006 31.8223 43.2681 31.7072C42.2903 31.4469 41.3025 31.1252 40.3323 30.7507C39.2336 30.3267 38.4973 29.2378 38.5001 28.0353V18.0224C38.5028 16.8688 39.1943 15.8138 40.2616 15.3349C41.7259 14.6778 43.7862 13.9278 46.1251 13.577V17.5009H45.6251C44.2444 17.5009 43.1251 18.6201 43.1251 20.0009C43.1251 21.3816 44.2444 22.5008 45.6251 22.5008H51.8751C53.2558 22.5008 54.3751 21.3816 54.3751 20.0009C54.3751 18.6201 53.2558 17.5009 51.8751 17.5009H51.1251V13.542C53.5623 13.8735 55.7307 14.6446 57.2684 15.3178C58.3232 15.7794 59.0028 16.8266 59 17.9917V28.1256C58.9973 29.2988 58.2533 30.3942 57.1485 30.8517C56.0548 31.3047 54.9252 31.6724 53.7911 31.945C52.4486 32.2675 51.6218 33.6174 51.9443 34.9599C52.2669 36.3024 53.6168 37.1295 54.9592 36.8065C56.3469 36.4731 57.7272 36.0238 59.0615 35.4711C62.054 34.2322 63.9925 31.3534 64 28.1313V17.9975C64.007 14.8474 62.1518 11.9977 59.273 10.7375ZM38.2141 10.7732C38.086 10.8307 37.9607 10.8924 37.8367 10.956C37.3232 10.5617 36.7893 10.1845 36.236 9.82505C36.5345 7.39181 38.6123 5.50107 41.1248 5.50107C41.1371 5.50107 41.149 5.49945 41.1614 5.4992C41.1738 5.49932 41.1856 5.50107 41.198 5.50107C43.2609 5.50107 45.0306 6.77606 45.7634 8.5788C42.7161 8.98705 40.0676 9.94142 38.2141 10.7732Z" fill="#FE4A19"/>
</g>
<defs>
<clipPath id="clip0_468_88">
<rect width="64" height="64" fill="white" transform="translate(0 0.5)"/>
</clipPath>
</defs>
</svg>
