<svg width="16" height="16" viewBox="0 0 16 16" fill="none" xmlns="http://www.w3.org/2000/svg">
<g clip-path="url(#clip0_468_346)">
<path fill-rule="evenodd" clip-rule="evenodd" d="M7.99984 2.00033C4.68613 2.00033 1.99984 4.68662 1.99984 8.00033C1.99984 11.314 4.68613 14.0003 7.99984 14.0003C11.3135 14.0003 13.9998 11.314 13.9998 8.00033C13.9998 4.68662 11.3135 2.00033 7.99984 2.00033ZM0.666504 8.00033C0.666504 3.95024 3.94975 0.666992 7.99984 0.666992C12.0499 0.666992 15.3332 3.95024 15.3332 8.00033C15.3332 12.0504 12.0499 15.3337 7.99984 15.3337C3.94975 15.3337 0.666504 12.0504 0.666504 8.00033Z" fill="#B42318"/>
<path fill-rule="evenodd" clip-rule="evenodd" d="M8.00016 4.66699C8.36835 4.66699 8.66683 4.96547 8.66683 5.33366V8.00033C8.66683 8.36852 8.36835 8.66699 8.00016 8.66699C7.63197 8.66699 7.3335 8.36852 7.3335 8.00033V5.33366C7.3335 4.96547 7.63197 4.66699 8.00016 4.66699Z" fill="#B42318"/>
<path fill-rule="evenodd" clip-rule="evenodd" d="M7.3335 10.6667C7.3335 10.2985 7.63197 10 8.00016 10H8.00683C8.37502 10 8.6735 10.2985 8.6735 10.6667C8.6735 11.0349 8.37502 11.3333 8.00683 11.3333H8.00016C7.63197 11.3333 7.3335 11.0349 7.3335 10.6667Z" fill="#B42318"/>
</g>
<defs>
<clipPath id="clip0_468_346">
<rect width="16" height="16" fill="white"/>
</clipPath>
</defs>
</svg>
