<svg width="16" height="16" viewBox="0 0 16 16" fill="none" xmlns="http://www.w3.org/2000/svg">
<g clip-path="url(#clip0_772_769)">
<path fill-rule="evenodd" clip-rule="evenodd" d="M7.99935 13.9987C4.68564 13.9987 1.99935 11.3124 1.99935 7.9987C1.99935 4.68499 4.68564 1.9987 7.99935 1.9987C11.3131 1.9987 13.9993 4.68499 13.9993 7.9987C13.9993 11.3124 11.3131 13.9987 7.99935 13.9987ZM0.666016 7.9987C0.666016 12.0488 3.94926 15.332 7.99935 15.332C12.0494 15.332 15.3327 12.0488 15.3327 7.9987C15.3327 3.94861 12.0494 0.665364 7.99935 0.665364C3.94926 0.665364 0.666016 3.94861 0.666016 7.9987Z" fill="#B42318"/>
<path fill-rule="evenodd" clip-rule="evenodd" d="M8.00065 11.332C8.36884 11.332 8.66732 11.0336 8.66732 10.6654V7.9987C8.66732 7.63051 8.36884 7.33203 8.00065 7.33203C7.63246 7.33203 7.33398 7.63051 7.33398 7.9987V10.6654C7.33398 11.0336 7.63246 11.332 8.00065 11.332Z" fill="#B42318"/>
<path fill-rule="evenodd" clip-rule="evenodd" d="M7.33301 5.33333C7.33301 5.70152 7.63148 6 7.99967 6H8.00634C8.37453 6 8.67301 5.70152 8.67301 5.33333C8.67301 4.96514 8.37453 4.66667 8.00634 4.66667H7.99967C7.63148 4.66667 7.33301 4.96514 7.33301 5.33333Z" fill="#B42318"/>
</g>
<defs>
<clipPath id="clip0_772_769">
<rect width="16" height="16" fill="white" transform="matrix(1 0 0 -1 0 16)"/>
</clipPath>
</defs>
</svg>
