<svg width="46" height="45" viewBox="0 0 46 45" fill="none" xmlns="http://www.w3.org/2000/svg">
<g clip-path="url(#clip0_780_420)">
<path d="M45.5 12.9061C45.5 10.0871 44.4022 7.43692 42.4089 5.44365C40.4155 3.45029 37.7654 2.35254 34.9464 2.35254C32.1274 2.35254 29.4772 3.45029 27.484 5.44356C26.8547 6.07277 26.3119 6.77159 25.8633 7.52851H5.33398C2.66853 7.52851 0.5 9.69703 0.5 12.3625V18.506C0.5 21.1715 2.66853 23.34 5.33398 23.34H16.6147C16.6895 23.748 16.7902 24.1517 16.9186 24.5486L6.24515 35.2221C6.0553 35.4119 5.92795 35.6552 5.88014 35.9194L4.94287 41.0946C4.86579 41.52 5.00229 41.9562 5.30806 42.2619C5.55749 42.5113 5.89376 42.6479 6.24005 42.6479C6.31827 42.6479 6.39702 42.641 6.47533 42.6268L11.6496 41.6883C12.0594 41.614 12.4099 41.3504 12.5952 40.9775L13.7369 38.6784L15.2372 38.2162C15.6542 38.0878 15.9806 37.7614 16.109 37.3444L16.5325 35.9697L17.9072 35.5463C18.3241 35.4179 18.6506 35.0914 18.779 34.6745L19.2024 33.2997L20.5771 32.8763C20.7824 32.813 20.9692 32.7005 21.1212 32.5486L23.02 30.6498C24.5041 31.13 26.0823 31.2364 27.6339 30.955C29.5343 30.6105 31.2631 29.7043 32.6333 28.3342C34.0159 26.9516 34.8808 25.2444 35.2285 23.4558C37.9418 23.385 40.4821 22.2952 42.4087 20.3685C44.4022 18.3753 45.5 15.7251 45.5 12.9061ZM3.13672 18.506V12.3624C3.13672 11.1508 4.12241 10.1651 5.33398 10.1651H26.5939C27.8055 10.1651 28.7912 11.1508 28.7912 12.3624V12.603C25.5283 11.5766 21.8158 12.3536 19.2343 14.9351C17.8643 16.3052 16.958 18.034 16.6135 19.9344C16.5672 20.1901 16.5324 20.4466 16.5071 20.7031H5.33398C4.12241 20.7032 3.13672 19.7175 3.13672 18.506ZM23.2127 27.9074C22.7164 27.6926 22.1388 27.8023 21.7563 28.1848L19.4882 30.4528L17.7598 30.9853C17.3428 31.1137 17.0164 31.4401 16.888 31.8571L16.4645 33.2319L15.0898 33.6553C14.6729 33.7837 14.3466 34.1101 14.2181 34.5271L13.7946 35.9018L12.4199 36.3253C12.0746 36.4316 11.7881 36.6751 11.6272 36.9988L10.528 39.2121L7.87631 39.6931L8.40119 36.7949L19.3837 25.8124C19.7663 25.4299 19.8763 24.8524 19.6612 24.356C18.5374 21.7628 19.1017 18.7968 21.0988 16.7996C23.7648 14.1335 28.1029 14.1333 30.7691 16.7996C31.8109 17.8415 32.4438 19.139 32.6713 20.4921C31.4291 20.1214 30.2909 19.4466 29.3485 18.5042C28.8337 17.9892 27.999 17.9894 27.4841 18.5042C26.9692 19.019 26.9692 19.8537 27.4841 20.3686C28.9091 21.7936 30.6699 22.7607 32.588 23.1964C32.3083 24.3968 31.7029 25.536 30.7691 26.4698C28.7718 28.4668 25.8058 29.0314 23.2127 27.9074ZM35.3678 20.8114C35.1823 18.6664 34.2713 16.5731 32.6334 14.9351C32.2544 14.5562 31.8507 14.2167 31.4279 13.9154V12.3625C31.4279 10.4582 30.3207 8.80811 28.7165 8.02069C28.9121 7.77214 29.1225 7.53404 29.3483 7.30808C30.8436 5.81279 32.8317 4.98926 34.9464 4.98926C37.061 4.98926 39.0491 5.81279 40.5444 7.30808C42.0398 8.80327 42.8633 10.7914 42.8633 12.9061C42.8633 15.0208 42.0398 17.0089 40.5445 18.5041C39.1489 19.8996 37.324 20.7095 35.3678 20.8114Z" fill="#FE4A19"/>
</g>
<defs>
<clipPath id="clip0_780_420">
<rect width="45" height="45" fill="white" transform="translate(0.5)"/>
</clipPath>
</defs>
</svg>
