<svg width="46" height="45" viewBox="0 0 46 45" fill="none" xmlns="http://www.w3.org/2000/svg">
<g clip-path="url(#clip0_772_435)">
<path d="M7.97083 22.6371V1.31836H29.7932" stroke="#FE4A19" stroke-width="2.65" stroke-miterlimit="10" stroke-linecap="round" stroke-linejoin="round"/>
<path d="M38.0294 22.6362V9.55371" stroke="#FE4A19" stroke-width="2.65" stroke-miterlimit="10" stroke-linecap="round" stroke-linejoin="round"/>
<path d="M38.0294 9.55459H29.7932V1.31836L38.0294 9.55459Z" stroke="#FE4A19" stroke-width="2.65" stroke-miterlimit="10" stroke-linecap="round" stroke-linejoin="round"/>
<path d="M13.2443 6.5918H19.2463" stroke="#FE4A19" stroke-width="2.65" stroke-miterlimit="10" stroke-linecap="round" stroke-linejoin="round"/>
<path d="M13.2443 11.8652H19.2463" stroke="#FE4A19" stroke-width="2.65" stroke-miterlimit="10" stroke-linecap="round" stroke-linejoin="round"/>
<path d="M28.3255 38.3592H33.8418C37.0707 38.3592 37.7658 35.2576 37.7658 35.2576H44.1818V22.7679H32.893C31.6944 22.7679 30.545 22.2918 29.6974 21.4443C28.7429 20.4898 27.4747 20.0398 26.2249 20.0943C25.1104 20.1435 24.01 20.5935 23.1584 21.4443L15.2579 29.3447C17.3462 31.433 20.7317 31.433 22.82 29.3447L25.6413 26.5235" stroke="#FE4A19" stroke-width="2.65" stroke-miterlimit="10" stroke-linecap="round" stroke-linejoin="round"/>
<path d="M25.6202 26.5459L31.3191 32.2447C32.1848 33.1104 32.1848 34.5149 31.3191 35.3807C30.4525 36.2473 29.048 36.2473 28.1823 35.3807" stroke="#FE4A19" stroke-width="2.65" stroke-miterlimit="10" stroke-linecap="round" stroke-linejoin="round"/>
<path d="M25.0454 38.5175C25.912 39.3832 27.3156 39.3832 28.1822 38.5175C29.0479 37.6509 29.0479 36.2472 28.1822 35.3806L25.6737 32.8721" stroke="#FE4A19" stroke-width="2.65" stroke-miterlimit="10" stroke-linecap="round" stroke-linejoin="round"/>
<path d="M22.5268 35.999L25.0454 38.5176C25.912 39.3833 25.912 40.7878 25.0454 41.6544C24.1797 42.5202 22.7752 42.5202 21.9095 41.6544L20.1517 39.8966L19.38 39.1249" stroke="#FE4A19" stroke-width="2.65" stroke-miterlimit="10" stroke-linecap="round" stroke-linejoin="round"/>
<path d="M21.2549 22.7686H1.81854V35.2578H9.24003L17.0148 43.0326C17.8702 43.8888 19.2514 43.8991 20.1202 43.0635C21.0167 42.2013 20.9959 40.741 20.1164 39.8614L19.38 39.125" stroke="#FE4A19" stroke-width="2.65" stroke-miterlimit="10" stroke-linecap="round" stroke-linejoin="round"/>
</g>
<defs>
<clipPath id="clip0_772_435">
<rect width="45" height="45" fill="white" transform="translate(0.5)"/>
</clipPath>
</defs>
</svg>
