<?xml version="1.0" encoding="UTF-8" standalone="no"?>
<!DOCTYPE svg PUBLIC "-//W3C//DTD SVG 1.0//EN" "http://www.w3.org/TR/2001/REC-SVG-20010904/DTD/svg10.dtd">
<!-- Created with Inkscape (http://www.inkscape.org/) by Steadfast-->
<svg
   xmlns:svg="http://www.w3.org/2000/svg"
   xmlns="http://www.w3.org/2000/svg"
   version="1.0"
   width="900"
   height="356"
   id="svg2590">
  <defs
     id="defs2592">
    <clipPath
       id="clipPath57">
      <path
         d="M 1014.928,199.338 L 1097.147,199.338 L 1097.147,230.784 L 1014.928,230.784 L 1014.928,199.338 z"
         id="path59" />
    </clipPath>
    <clipPath
       id="clipPath69">
      <path
         d="M 1014.928,199.338 L 1097.147,199.338 L 1097.147,230.785 L 1014.928,230.785 L 1014.928,199.338 z"
         id="path71" />
    </clipPath>
    <clipPath
       id="clipPath133">
      <path
         d="M 1014.928,199.338 L 1097.147,199.338 L 1097.147,230.784 L 1014.928,230.784 L 1014.928,199.338 z"
         id="path135" />
    </clipPath>
  </defs>
  <g
     id="layer1">
    <g
       transform="matrix(8.5625099,0,0,8.5625099,-1286.9663,-2643.3901)"
       id="g2646">
      <g
         transform="matrix(1.25,0,0,-1.25,-1117.1898,598.33216)"
         id="g53">
        <g
           clip-path="url(#clipPath57)"
           id="g55">
          <g
             transform="translate(1025.5104,216.1389)"
             id="g61">
            <path
               d="M 0,0 L -10.496,-0.004 C -10.595,0.903 -10.609,1.647 -10.537,2.418 L -0.002,0.211 C -0.002,0.152 -0.006,0.084 0,0"
               id="path63"
               style="fill:#3f9b2c;fill-opacity:1;fill-rule:nonzero;stroke:none" />
          </g>
        </g>
      </g>
      <g
         transform="matrix(1.25,0,0,-1.25,-1117.1898,598.33216)"
         id="g65">
        <g
           clip-path="url(#clipPath69)"
           id="g67">
          <g
             transform="translate(1032.6331,217.3719)"
             id="g73">
            <path
               d="M 0,0 L 8.914,3.352 C 9.054,2.689 9.181,1.994 9.236,1.226 L 0.059,-0.189 C 0.039,-0.134 0.027,-0.082 0,0"
               id="path75"
               style="fill:#ef3120;fill-opacity:1;fill-rule:nonzero;stroke:none" />
            <g
               transform="translate(-6.9494,4.61999e-2)"
               id="g77">
              <path
                 d="M 0,0 L -10.56,2.517 C -10.396,3.414 -10.025,4.718 -9.648,5.492 L 0.067,0.193 C 0.031,0.12 0.013,0.059 0,0"
                 id="path79"
                 style="fill:#3f9b2c;fill-opacity:1;fill-rule:nonzero;stroke:none" />
            </g>
            <g
               transform="translate(-1.1183,1.702)"
               id="g81">
              <path
                 d="M 0,0 L 5.908,8.441 C 6.593,7.832 7.396,7.037 7.852,6.301 L 0.149,-0.134 C 0.11,-0.093 0.062,-0.041 0,0"
                 id="path83"
                 style="fill:#3f9b2c;fill-opacity:1;fill-rule:nonzero;stroke:none" />
            </g>
            <g
               transform="translate(-6.2373,1.3034)"
               id="g85">
              <path
                 d="M 0,0 L -9.448,5.97 C -8.963,6.85 -7.493,8.48 -6.723,9.065 L 0.129,0.141 C 0.08,0.1 0.039,0.057 0,0"
                 id="path87"
                 style="fill:#3f9b2c;fill-opacity:1;fill-rule:nonzero;stroke:none" />
            </g>
            <g
               transform="translate(-2.8178,2.5068)"
               id="g89">
              <path
                 d="M 0,0 L 0.255,10.906 C 1.468,10.772 3.135,10.345 4.07,9.878 L 0.172,-0.033 C 0.117,-0.013 0.067,-0.005 0,0"
                 id="path91"
                 style="fill:#3f9b2c;fill-opacity:1;fill-rule:nonzero;stroke:none" />
            </g>
            <g
               transform="translate(-4.7873,2.3293)"
               id="g93">
              <path
                 d="M 0,0 L -6.055,9.479 C -4.543,10.333 -2.753,10.888 -1.206,11.076 L 0.193,0.064 C 0.157,0.057 0.057,0.026 0,0"
                 id="path95"
                 style="fill:#3f9b2c;fill-opacity:1;fill-rule:nonzero;stroke:none" />
            </g>
            <g
               transform="translate(-16.7552,-4.5737)"
               id="g97">
              <path
                 d="M 0,0 C 0,0 -0.182,0.467 -0.364,1.062 C -0.534,1.619 -0.699,2.283 -0.699,2.283 C 2.742,2.722 8.109,2.746 11.806,2.746 C 11.806,2.746 4.662,2.084 0,0"
                 id="path99"
                 style="fill:#3f9b2c;fill-opacity:1;fill-rule:nonzero;stroke:none" />
            </g>
            <g
               transform="translate(-9.123,-12.0364)"
               id="g101">
              <path
                 d="M 0,0 C 0,0 -0.842,0.263 -1.884,0.847 C -2.844,1.385 -3.704,2.146 -3.704,2.146 C -1.633,4.751 5.099,9.883 11.414,10.219 C 11.414,10.219 4.907,7.931 0,0"
                 id="path103"
                 style="fill:#3f9b2c;fill-opacity:1;fill-rule:nonzero;stroke:none" />
            </g>
            <g
               transform="translate(-0.6812,-12.4616)"
               id="g105">
              <path
                 d="M 0,0 C 0,0 -1.583,-0.47 -3.532,-0.456 C -5.44,-0.442 -6.314,-0.175 -6.314,-0.175 C -5.92,1.169 -1.406,9.004 4,10.644 C 4,10.644 -0.171,6.248 0,0"
                 id="path107"
                 style="fill:#3f9b2c;fill-opacity:1;fill-rule:nonzero;stroke:none" />
            </g>
            <g
               transform="translate(-14.2561,-8.5433)"
               id="g109">
              <path
                 d="M 0,0 C 0,0 -0.414,0.364 -1.102,1.341 C -1.736,2.241 -2.005,2.848 -2.005,2.848 C -0.304,3.929 5.687,6.726 14.182,6.726 C 14.182,6.726 6.812,5.41 0,0"
                 id="path111"
                 style="fill:#3f9b2c;fill-opacity:1;fill-rule:nonzero;stroke:none" />
            </g>
            <g
               transform="translate(9.5256,-5.2202)"
               id="g113">
              <path
                 d="M 0,0 L -3.022,-7.05 L -0.677,-7.05 L 0,0 z M -8.814,-12.592 L -1.252,3.392 L 3.005,3.392 L 2.198,-12.592 L -1.195,-12.592 L -0.882,-9.355 L -4.028,-9.355 L -5.359,-12.592 L -8.814,-12.592 z"
                 id="path115"
                 style="fill:#231f20;fill-opacity:1;fill-rule:nonzero;stroke:none" />
            </g>
            <g
               transform="translate(12.5218,-17.8123)"
               id="g117">
              <path
                 d="M 0,0 L 3.05,12.233 L 6.374,12.233 L 6.153,11.348 C 6.449,11.547 7.574,12.476 9.113,12.476 C 10.621,12.476 10.922,11.459 11.003,11.171 C 11.336,11.392 12.868,12.476 14.222,12.476 C 16.5,12.476 16.059,10.707 15.904,10.088 L 13.39,0 L 10.065,0 L 12.464,9.623 C 12.53,9.888 12.429,10.22 11.782,10.22 C 11.32,10.22 10.935,9.91 10.754,9.8 L 8.311,0 L 5.017,0 L 7.416,9.623 C 7.449,9.756 7.576,10.264 6.745,10.264 C 6.437,10.264 5.94,9.999 5.784,9.866 L 3.324,0 L 0,0 z"
                 id="path119"
                 style="fill:#231f20;fill-opacity:1;fill-rule:nonzero;stroke:none" />
            </g>
            <g
               transform="translate(32.6368,-8.3662)"
               id="g121">
              <path
                 d="M 0,0 L -0.458,-1.836 L 1.666,-1.836 L 2.124,0 C 2.19,0.265 2.35,0.907 1.365,0.907 C 0.626,0.907 0.121,0.486 0,0 M -1.271,-9.667 C -4.411,-9.667 -5.282,-8.473 -4.676,-6.039 L -3.308,-0.553 C -2.839,1.327 -1.122,3.03 1.833,3.03 C 5.588,3.03 5.503,0.464 5.348,-0.155 L 4.385,-3.894 L -0.97,-3.894 L -1.616,-6.482 C -1.77,-7.101 -1.62,-7.61 -0.912,-7.61 C -0.204,-7.61 0.348,-7.123 0.497,-6.526 L 0.806,-5.287 L 3.976,-5.287 L 3.673,-6.504 C 3.272,-7.742 1.961,-9.667 -1.271,-9.667"
                 id="path123"
                 style="fill:#231f20;fill-opacity:1;fill-rule:nonzero;stroke:none" />
            </g>
            <g
               transform="translate(36.8313,-17.8123)"
               id="g125">
              <path
                 d="M 0,0 L 3.05,12.233 L 6.22,12.233 L 5.917,11.017 C 7.237,11.99 8.184,12.454 10.098,12.476 L 9.513,10.132 C 9.099,10.198 8.654,10.264 8.223,10.264 C 5.76,10.264 5.343,8.716 5.145,7.919 L 3.17,0 L 0,0 z"
                 id="path127"
                 style="fill:#231f20;fill-opacity:1;fill-rule:nonzero;stroke:none" />
            </g>
          </g>
        </g>
      </g>
      <g
         transform="matrix(1.25,0,0,-1.25,-1117.1898,598.33216)"
         id="g129">
        <g
           clip-path="url(#clipPath133)"
           id="g131">
          <g
             transform="translate(1082.094,209.0057)"
             id="g137">
            <path
               d="M 0,0 L -0.458,-1.836 L 1.666,-1.836 L 2.124,0 C 2.19,0.265 2.35,0.907 1.365,0.907 C 0.626,0.907 0.121,0.486 0,0 M -1.271,-9.667 C -4.411,-9.667 -5.282,-8.473 -4.676,-6.039 L -3.308,-0.553 C -2.839,1.327 -1.122,3.03 1.833,3.03 C 5.588,3.03 5.503,0.464 5.348,-0.155 L 4.385,-3.894 L -0.97,-3.894 L -1.616,-6.482 C -1.77,-7.101 -1.62,-7.61 -0.912,-7.61 C -0.204,-7.61 0.348,-7.123 0.497,-6.526 L 0.806,-5.287 L 3.976,-5.287 L 3.673,-6.504 C 3.272,-7.742 1.961,-9.667 -1.271,-9.667"
               id="path139"
               style="fill:#231f20;fill-opacity:1;fill-rule:nonzero;stroke:none" />
            <g
               transform="translate(4.2559,-9.4461)"
               id="g141">
              <path
                 d="M 0,0 L 3.05,12.233 L 6.343,12.233 L 6.106,11.282 C 6.486,11.57 7.512,12.476 8.99,12.476 C 11.421,12.476 10.945,10.441 10.652,9.269 L 8.341,0 L 5.017,0 L 7.179,8.672 C 7.432,9.689 7.554,10.176 6.815,10.176 C 6.446,10.176 6.052,9.955 5.731,9.778 L 3.293,0 L 0,0 z"
                 id="path143"
                 style="fill:#231f20;fill-opacity:1;fill-rule:nonzero;stroke:none" />
            </g>
          </g>
        </g>
      </g>
    </g>
  </g>
</svg>
