<?xml version="1.0" encoding="utf-8"?>
<!-- Generator: Adobe Illustrator 22.1.0, SVG Export Plug-In . SVG Version: 6.00 Build 0)  -->
<svg version="1.1" id="Art" xmlns="http://www.w3.org/2000/svg" xmlns:xlink="http://www.w3.org/1999/xlink" x="0px" y="0px"
	 viewBox="0 0 717.5 365.1" style="enable-background:new 0 0 717.5 365.1;" xml:space="preserve">
<style type="text/css">
	.st0{fill:#707372;}
	.st1{fill:#DA291C;}
</style>
<g>
	<g>
		<g>
			<path class="st0" d="M68.2,357.1h-11L71,328.6h11.5l6.4,28.5h-11l-0.5-3.6h-7.8L68.2,357.1z M76.4,346.7l-0.5-5
				c-0.1-1.2-0.2-2.5-0.2-3.7h-0.4l-3.1,8.7H76.4z"/>
			<path class="st0" d="M93.4,328.5h19.2l-1,7.8h-8.7l-0.4,2.7h8l-1,7.4h-8l-0.4,2.8h9l-1,7.8H89.6L93.4,328.5z"/>
			<path class="st0" d="M116.1,328.5h13.1c6.7,0,11.1,3.4,10.2,10.5c-0.8,5.8-4.9,9.5-10.7,9.5h-5.3l-1.2,8.6h-10L116.1,328.5z
				 M124.4,341.3h1c1.8,0,3.8-0.3,4.1-2.6c0.3-2.2-1.8-2.3-3.5-2.3h-1L124.4,341.3z"/>
		</g>
		<g>
			<path class="st0" d="M19.6,330l5.5,27h-3.7l-1.4-8.1H8.6L4.1,357h-4l15.6-27H19.6z M19.5,345.9l-2.3-12.7h-0.1l-6.9,12.7H19.5z"
				/>
			<path class="st0" d="M32.8,337.5l-0.5,3h0.1c0.8-1.1,1.8-2,3-2.6s2.5-0.9,3.9-0.9c1.8,0,3.2,0.4,4.1,1.2c0.9,0.8,1.4,2.1,1.4,3.8
				c0,0.4,0,1-0.1,1.7s-0.2,1.4-0.4,2.2l-2.1,11.2H39l2.2-11.4c0-0.2,0.1-0.4,0.1-0.7c0-0.3,0.1-0.5,0.1-0.8s0.1-0.6,0.1-0.8
				c0-0.3,0-0.5,0-0.7c0-0.9-0.4-1.6-1-2.1c-0.7-0.4-1.5-0.7-2.4-0.7s-1.8,0.2-2.6,0.6c-0.9,0.4-1.6,1-2.2,1.6
				c-0.6,0.5-1,1.1-1.3,1.8c-0.3,0.7-0.6,1.5-0.7,2.3l-2,10.8h-3.2l3.6-19.6h3.1V337.5z"/>
		</g>
		<g>
			<path class="st0" d="M168.8,355.1c-1.9,1.7-4.6,2.6-7.9,2.6c-3.7,0-6.6-1-8.6-3.1c-2.1-2.1-3.1-5-3.2-8.7
				c-0.1-2.2,0.2-4.3,0.9-6.3c0.6-2,1.6-3.7,2.8-5.2c1.2-1.5,2.8-2.7,4.6-3.6c1.8-0.9,3.9-1.3,6.2-1.3c1.5,0,2.8,0.2,4.1,0.6
				c1.3,0.4,2.4,1,3.3,1.7c0.9,0.8,1.7,1.7,2.2,2.9c0.6,1.2,0.9,2.5,0.9,4.1h-3.6c-0.1-2.1-0.7-3.7-2-4.7s-2.9-1.6-4.9-1.6
				c-1.9,0-3.5,0.4-4.9,1.2c-1.4,0.8-2.5,1.8-3.4,3.1c-0.9,1.3-1.6,2.7-2,4.3c-0.4,1.6-0.6,3.2-0.6,4.9c0,1.3,0.2,2.5,0.6,3.6
				s0.9,2,1.5,2.8c0.7,0.8,1.5,1.4,2.5,1.8s2.2,0.6,3.6,0.6c2.2,0,4-0.6,5.4-1.8c1.4-1.2,2.3-2.8,2.8-5h3.6
				C172,351,170.7,353.4,168.8,355.1z"/>
			<path class="st0" d="M175.1,344.7c0.5-1.5,1.1-2.8,2.1-3.9c0.9-1.1,2-2,3.4-2.7c1.3-0.7,2.9-1,4.6-1c2.6,0,4.7,0.7,6.1,2.1
				s2.2,3.4,2.2,6c0,1.6-0.2,3.1-0.6,4.6s-1.1,2.8-2,4c-0.9,1.1-2,2.1-3.3,2.7c-1.3,0.7-2.8,1-4.6,1c-1.3,0-2.4-0.2-3.5-0.6
				c-1-0.4-1.9-1-2.6-1.7s-1.3-1.6-1.7-2.6c-0.4-1-0.6-2.1-0.6-3.3C174.4,347.8,174.6,346.2,175.1,344.7z M179.1,353.2
				c0.9,1,2.3,1.5,4,1.5c1.2,0,2.2-0.3,3.1-0.9s1.6-1.4,2.2-2.3s1-1.9,1.3-3s0.4-2.1,0.4-3.1c0-0.8-0.1-1.5-0.4-2.2
				c-0.2-0.7-0.5-1.3-1-1.8c-0.4-0.5-1-0.9-1.6-1.2c-0.7-0.3-1.4-0.4-2.3-0.4c-1.2,0-2.3,0.3-3.2,0.9c-0.9,0.6-1.7,1.4-2.3,2.3
				c-0.6,0.9-1.1,1.9-1.3,3c-0.3,1.1-0.4,2.2-0.4,3.2C177.7,350.9,178.2,352.2,179.1,353.2z"/>
			<path class="st0" d="M201.1,337.5l-0.7,2.9l0.1,0.1c0.8-1.1,1.8-1.9,2.9-2.5c1.2-0.6,2.4-0.9,3.8-0.9c1.2,0,2.3,0.3,3.2,0.8
				c0.9,0.5,1.5,1.4,1.8,2.7c0.7-1.1,1.7-1.9,2.9-2.6c1.2-0.6,2.4-1,3.7-1c0.7,0,1.4,0.1,2,0.2c0.7,0.2,1.3,0.4,1.8,0.8
				c0.5,0.3,0.9,0.8,1.3,1.3c0.3,0.6,0.5,1.2,0.5,2c0,0.6,0,1.2-0.1,2c-0.1,0.7-0.2,1.4-0.3,1.9l-2.2,11.7h-3.2l2.4-12.4
				c0.1-0.3,0.1-0.7,0.2-1.1s0.1-0.8,0.1-1c0-0.8-0.3-1.4-0.9-1.9s-1.3-0.8-2.2-0.8c-0.5,0-0.9,0.1-1.4,0.2
				c-0.5,0.2-0.9,0.3-1.3,0.6c-0.4,0.2-0.8,0.5-1.2,0.9c-0.4,0.3-0.7,0.7-1,1c-0.5,0.6-0.9,1.2-1.1,2s-0.4,1.6-0.6,2.4l-1.9,10.1
				h-3.2l2.1-11.2c0.2-0.8,0.3-1.5,0.4-2.1c0.1-0.7,0.1-1.1,0.1-1.3c0-0.8-0.3-1.4-0.7-1.9c-0.5-0.5-1.2-0.7-2-0.7
				c-0.9,0-1.8,0.3-2.6,0.8c-0.9,0.5-1.6,1.1-2.1,1.7c-0.7,0.7-1.1,1.3-1.4,2c-0.2,0.7-0.4,1.5-0.6,2.4l-2,10.3h-3.2l3.7-19.6h2.9
				V337.5z"/>
			<path class="st0" d="M232.1,337.5l-0.6,2.8h0.1c0.9-1.3,1.9-2.1,2.9-2.6s2.2-0.7,3.5-0.7s2.4,0.2,3.3,0.6c1,0.4,1.8,0.9,2.4,1.6
				c0.7,0.7,1.2,1.6,1.5,2.5c0.4,1,0.5,2.1,0.6,3.3c0,1.5-0.2,3-0.6,4.4c-0.5,1.5-1.1,2.8-2,4s-2,2.1-3.3,2.9
				c-1.3,0.7-2.9,1.1-4.6,1.1c-0.6,0-1.2-0.1-1.8-0.2c-0.6-0.1-1.3-0.3-1.8-0.5c-0.6-0.3-1.1-0.6-1.5-1.1c-0.5-0.4-0.8-1-1-1.6h-0.1
				l-1.8,10.4h-3.1l5-27h2.9V337.5z M241.4,341.3c-0.8-0.9-2.1-1.4-3.9-1.4c-1.2,0-2.3,0.3-3.2,0.9c-0.9,0.6-1.7,1.4-2.3,2.4
				c-0.6,1-1.1,2-1.4,3.1s-0.5,2.2-0.4,3.3c0,1.5,0.5,2.7,1.4,3.6c0.9,1,2.1,1.4,3.7,1.4c1.3,0,2.4-0.3,3.3-0.9s1.7-1.4,2.4-2.3
				c0.6-0.9,1.1-2,1.4-3.1s0.4-2.2,0.4-3.3C242.6,343.5,242.2,342.2,241.4,341.3z"/>
			<path class="st0" d="M249.6,340.6c0.5-0.8,1.1-1.5,1.9-2c0.7-0.5,1.6-0.9,2.5-1.2c1-0.3,1.9-0.4,3-0.4c1,0,1.9,0.1,2.7,0.2
				c0.9,0.2,1.6,0.4,2.3,0.8c0.7,0.4,1.2,0.9,1.6,1.5s0.6,1.5,0.6,2.4c0,0.6,0,1.2-0.2,1.8c-0.1,0.6-0.2,1.2-0.4,1.8l-1.1,5.3
				c-0.1,0.4-0.2,0.9-0.3,1.4c-0.1,0.5-0.2,1-0.2,1.4c0,0.5,0.1,0.8,0.3,0.9c0.2,0.2,0.4,0.3,0.7,0.3c0.2,0,0.3,0,0.5-0.1
				s0.4-0.1,0.5-0.2l-0.4,2.4c-0.3,0.1-0.6,0.2-1,0.3c-0.4,0.1-0.7,0.1-1,0.1c-0.9,0-1.6-0.2-2-0.7c-0.5-0.5-0.7-1.1-0.6-2l-0.1-0.1
				c-0.7,0.9-1.5,1.6-2.5,2.1s-2.3,0.7-4,0.7c-0.8,0-1.6-0.1-2.3-0.3c-0.7-0.2-1.4-0.5-1.9-0.9s-1-1-1.3-1.7s-0.5-1.5-0.5-2.6
				c0-1.4,0.2-2.6,0.8-3.4c0.6-0.8,1.4-1.4,2.3-1.8s2-0.7,3.2-0.9c1.2-0.2,2.3-0.3,3.4-0.4c0.9-0.1,1.6-0.2,2.2-0.2
				c0.6-0.1,1.1-0.2,1.5-0.4s0.7-0.5,0.9-0.9c0.2-0.4,0.3-0.9,0.2-1.6c0-0.5-0.2-1-0.4-1.3c-0.3-0.3-0.6-0.6-1-0.8
				c-0.4-0.2-0.8-0.3-1.3-0.4s-0.9-0.1-1.3-0.1c-0.6,0-1.2,0.1-1.8,0.2c-0.6,0.1-1.1,0.3-1.6,0.6c-0.5,0.3-0.9,0.7-1.2,1.1
				c-0.3,0.4-0.5,1-0.6,1.6h-3.2C248.8,342.3,249.1,341.4,249.6,340.6z M250.9,354c0.7,0.5,1.5,0.7,2.5,0.7c2.5,0,4.4-0.9,5.4-2.6
				c0.5-0.7,0.9-1.5,1-2.4c0.2-0.9,0.4-1.7,0.6-2.6h-0.1c-0.4,0.3-1,0.6-1.7,0.7s-1.4,0.2-2.2,0.3c-0.8,0.1-1.6,0.2-2.4,0.3
				c-0.8,0.1-1.5,0.3-2.1,0.5c-0.6,0.3-1.1,0.6-1.5,1.1s-0.6,1.1-0.6,1.9C249.8,352.9,250.1,353.5,250.9,354z"/>
			<path class="st0" d="M272.1,337.5l-0.5,3h0.1c0.8-1.1,1.8-2,3-2.6s2.5-0.9,3.9-0.9c1.8,0,3.2,0.4,4.1,1.2
				c0.9,0.8,1.4,2.1,1.4,3.8c0,0.4,0,1-0.1,1.7s-0.2,1.4-0.4,2.2l-2.1,11.2h-3.2l2.2-11.4c0-0.2,0.1-0.4,0.1-0.7s0.1-0.5,0.1-0.8
				s0.1-0.6,0.1-0.8s0-0.5,0-0.7c0-0.9-0.4-1.6-1-2.1c-0.7-0.4-1.5-0.7-2.4-0.7s-1.8,0.2-2.6,0.6c-0.9,0.4-1.6,1-2.2,1.6
				c-0.6,0.5-1,1.1-1.3,1.8c-0.3,0.7-0.6,1.5-0.7,2.3l-2,10.8h-3.2l3.6-19.6h3.1V337.5z"/>
			<path class="st0" d="M290.5,362.2c-0.4,0.6-0.8,1.1-1.3,1.5s-1,0.7-1.6,1c-0.6,0.2-1.3,0.4-2.1,0.4c-0.4,0-0.8,0-1.2-0.1
				c-0.4-0.1-0.8-0.2-1.1-0.4l0.5-2.6c0.3,0.2,0.6,0.3,0.9,0.4s0.7,0.2,0.9,0.2c0.7,0,1.3-0.2,1.8-0.6c0.4-0.4,0.8-0.9,1.2-1.5
				l1.9-3.2l-3.9-19.6h3.4l2.6,15.6h0.1l7.8-15.6h3.5l-12.4,22.9C291.3,361,290.9,361.6,290.5,362.2z"/>
		</g>
	</g>
	<polygon class="st1" points="297.7,227.1 290.5,280.1 17.2,280.1 52.9,15.1 326.2,15.1 319.1,68.1 334.2,68.1 343.4,0 39.7,0 
		0,295.1 303.7,295.1 312.9,227.1 	"/>
	<g>
		<g>
			<g>
				<path class="st0" d="M135.2,141.4h-22.3l28-58.1h23.3l12.9,58.1h-22.3l-1-7.2h-15.9L135.2,141.4z M151.9,120.3l-1.1-10.2
					c-0.3-2.5-0.3-5-0.4-7.5h-0.8l-6.2,17.7H151.9z"/>
				<path class="st0" d="M188.4,83.3h26.7c13.6,0,22.6,6.9,20.7,21.3c-1.6,11.9-10,19.3-21.8,19.3h-10.8l-2.4,17.5h-20.3L188.4,83.3
					z M205.2,109.2h2.1c3.7,0,7.8-0.6,8.4-5.3c0.6-4.5-3.7-4.8-7.1-4.8h-2L205.2,109.2z"/>
				<path class="st0" d="M242.5,83.3h26.7c13.6,0,22.6,6.9,20.7,21.3c-1.6,11.9-10,19.3-21.8,19.3h-10.8l-2.4,17.5h-20.3L242.5,83.3
					z M259.4,109.2h2.1c3.7,0,7.8-0.6,8.4-5.3c0.6-4.5-3.7-4.8-7.1-4.8h-2L259.4,109.2z"/>
				<path class="st0" d="M300.9,141.4h-22.3l28-58.1h23.3l12.9,58.1h-22.3l-1-7.2h-15.9L300.9,141.4z M317.7,120.3l-1.1-10.2
					c-0.3-2.5-0.3-5-0.4-7.5h-0.8l-6.2,17.7H317.7z"/>
				<path class="st0" d="M354.2,83.3h21.1l-5.3,39.4h17.7l-2.5,18.6h-38.8L354.2,83.3z"/>
				<path class="st0" d="M410,141.4h-22.3l28-58.1H439l12.9,58.1h-22.3l-1-7.2h-15.9L410,141.4z M426.7,120.3l-1.1-10.2
					c-0.3-2.5-0.3-5-0.4-7.5h-0.8l-6.2,17.7H426.7z"/>
				<path class="st0" d="M497.8,106.9c-3-3.2-6.8-5.9-11.6-5.9c-6.3,0-12.1,5-13,11.3c-0.9,6.4,3.9,11.3,10.3,11.3
					c4.9,0,9-2.1,12.8-5.4l-3.5,21.7c-3.6,1.6-11.6,2.3-15.3,2.3c-16.6,0-27.8-12.9-25.5-29.4c2.3-16.9,17.4-30.5,34.4-30.5
					c4.8,0,9.6,0.8,13.8,2.4L497.8,106.9z"/>
				<path class="st0" d="M506.9,83.3h20.3l-2.6,19.6h12.9l2.6-19.6h20.3l-7.8,58.1h-20.3l2.7-20.2h-12.9l-2.7,20.2h-20.3L506.9,83.3
					z"/>
				<path class="st0" d="M567.4,83.3h21.1l-7.8,58.1h-21.1L567.4,83.3z"/>
				<path class="st0" d="M606.2,141.4h-22.3l28-58.1h23.3l12.9,58.1h-22.3l-1-7.2h-15.9L606.2,141.4z M622.9,120.3l-1.1-10.2
					c-0.3-2.5-0.3-5-0.4-7.5h-0.8l-6.2,17.7H622.9z"/>
				<path class="st0" d="M659.4,83.3h20.2l14.6,32.2h0.6c-0.2-4.9-0.4-9.9,0.2-14.8l2.3-17.4h20.2l-7.8,58.1h-20.2l-14.3-30.5h-0.6
					c0.2,4,0.3,7.8-0.3,11.6l-2.5,18.9h-20.2L659.4,83.3z"/>
			</g>
			<g>
				<g>
					<path class="st0" d="M113.6,153.8h26.7c13.6,0,22.6,6.9,20.7,21.3c-1.6,11.9-10,19.3-21.8,19.3h-10.8l-2.4,17.5h-20.3
						L113.6,153.8z M130.4,179.8h2.1c3.7,0,7.8-0.6,8.4-5.3c0.6-4.5-3.7-4.8-7.1-4.8h-2L130.4,179.8z"/>
					<path class="st0" d="M226.3,183c-2.5,18.6-18.4,29.8-36.1,29.8s-30.6-11.2-28.1-29.8c2.5-18.2,18.5-30.1,36.2-30.1
						S228.8,164.7,226.3,183z M183.3,183.3c-0.9,6.6,3,11.2,9.4,11.2s11.5-4.5,12.4-11.2c0.8-6.2-2.6-11.3-9.3-11.3
						S184.2,177.1,183.3,183.3z"/>
					<path class="st0" d="M247.9,153.8l2.7,34.7h0.5c0.9-3.5,1.8-7.2,3.2-10.7l9.4-23.9h16.2l3.3,34.7h0.5c0.8-3.4,1.6-6.9,2.8-10.2
						l9.1-24.4h22l-28.4,57.9h-18.4l-2.4-31.6h-0.7c-0.6,3-1.2,5.9-2.3,8.8l-8.9,22.8h-17.9l-12.5-58.1L247.9,153.8L247.9,153.8z"/>
					<path class="st0" d="M320.9,153.8H360l-2.1,15.9h-17.8l-0.7,5.5h16.3l-2,15.1h-16.3l-0.8,5.7h18.3l-2.1,15.9h-39.7L320.9,153.8
						z"/>
					<path class="st0" d="M366.8,153.8h25.5c13.1,0,23.4,5.5,21.5,20.2c-1.2,8.8-5.1,12.5-13.3,15.1l-0.1,0.5c1,0.8,2.1,1.8,3.1,3.5
						l10.1,18.9h-24.3l-6.7-18.6h-0.4l-2.5,18.6h-20.6L366.8,153.8z M384,179.5h1.5c3.5,0,7-0.5,7.6-4.9c0.6-4.5-2.5-5-6.1-5h-1.6
						L384,179.5z"/>
				</g>
				<g>
					<path class="st0" d="M419.8,155.5c-0.3-0.5-0.7-0.7-1.3-0.7s-1.3,0.4-1.3,1.1c0,0.6,0.6,0.9,1.1,1.1l0.6,0.2c1.1,0.4,2,1,2,2.4
						s-1,2.4-2.4,2.4c-1.3,0-2.3-0.9-2.5-2.2l1-0.2c0,0.9,0.7,1.5,1.5,1.5s1.4-0.7,1.4-1.5s-0.7-1.2-1.4-1.5l-0.5-0.2
						c-0.9-0.4-1.7-0.9-1.7-2c0-1.3,1.1-2,2.3-2c0.9,0,1.6,0.4,2,1.2L419.8,155.5z"/>
					<path class="st0" d="M423.9,156.6L423.9,156.6l-0.8,5.2h-1l1.4-8.2l2.8,6.2l2.5-6.2l1.8,8.2h-1l-1-5.2l0,0l-2.2,5.3
						L423.9,156.6z"/>
				</g>
			</g>
		</g>
	</g>
</g>
</svg>
