<?xml version="1.0" encoding="utf-8"?>
<!-- Generator: Adobe Illustrator 23.0.3, SVG Export Plug-In . SVG Version: 6.00 Build 0)  -->
<svg version="1.1" id="Layer_1" xmlns="http://www.w3.org/2000/svg" xmlns:xlink="http://www.w3.org/1999/xlink" x="0px" y="0px"
	 viewBox="0 0 215.5 76.5" style="enable-background:new 0 0 215.5 76.5;" xml:space="preserve">
<style type="text/css">
	.st0{fill:#231F20;}
	.st1{fill:url(#SVGID_1_);}
	.st2{fill:url(#SVGID_2_);}
	.st3{fill:url(#SVGID_3_);}
</style>
<g>
	<g>
		<g>
			<path class="st0" d="M115.3,61.4v-5.2c-2.9,3.4-7.3,6.1-13.7,6.1c-8,0-15.1-4.6-15.1-13.1V49c0-9.4,7.3-13.9,17.2-13.9
				c5.1,0,8.4,0.7,11.7,1.8v-0.8c0-5.9-3.7-9.1-10.4-9.1c-4.7,0-8.3,1-12.1,2.6L90.2,22c4.6-2.1,9.2-3.5,16.1-3.5
				c12.5,0,18.6,6.6,18.6,17.9v25.1L115.3,61.4L115.3,61.4z M115.5,43.7c-2.5-1-5.9-1.7-9.7-1.7c-6.1,0-9.7,2.5-9.7,6.6v0.2
				c0,4,3.6,6.3,8.2,6.3c6.4,0,11.2-3.6,11.2-8.9V43.7z"/>
			<path class="st0" d="M128,19.1h9.7v7.1c3.1-4.4,7.5-7.9,14.4-7.9c10,0,19.7,7.9,19.7,22v0.2c0,14-9.6,22-19.7,22
				c-7,0-11.4-3.5-14.4-7.5v19.4H128V19.1z M161.9,40.3v-0.2c0-8.2-5.5-13.5-12.1-13.5s-12.3,5.5-12.3,13.5v0.2
				c0,8.2,5.8,13.5,12.3,13.5C156.4,53.9,161.9,48.7,161.9,40.3"/>
			<path class="st0" d="M170.2,55.9l4.3-6.6c4.6,3.4,9.5,5.2,13.9,5.2c4.2,0,6.6-1.8,6.6-4.6v-0.2c0-3.3-4.5-4.4-9.5-5.9
				c-6.3-1.8-13.2-4.3-13.2-12.4v-0.2c0-8,6.7-12.9,15.1-12.9c5.3,0,11.1,1.8,15.6,4.8l-3.8,6.9c-4.1-2.5-8.4-4-11.9-4
				c-3.8,0-5.9,1.8-5.9,4.2v0.2c0,3,4.6,4.3,9.5,5.9c6.2,1.9,13.2,4.7,13.2,12.3v0.2c0,8.9-6.9,13.3-15.7,13.3
				C182.1,62.2,175.5,60.1,170.2,55.9"/>
		</g>
		<g>
			<path class="st0" d="M213.6,22.8c0,2.5-2,4.5-4.5,4.5s-4.6-2-4.6-4.5s2-4.4,4.6-4.4C211.6,18.4,213.6,20.3,213.6,22.8
				 M205.6,22.8c0,2,1.5,3.5,3.5,3.5c1.9,0,3.4-1.6,3.4-3.5c0-2-1.4-3.6-3.4-3.6C207,19.3,205.6,20.9,205.6,22.8 M208.3,25.1h-1
				v-4.4c0.4-0.1,1-0.1,1.7-0.1c0.8,0,1.2,0.1,1.5,0.3c0.2,0.2,0.4,0.5,0.4,1s-0.4,0.9-0.9,1V23c0.4,0.2,0.7,0.5,0.8,1.1
				c0.1,0.7,0.2,0.9,0.3,1.1H210c-0.1-0.2-0.2-0.6-0.4-1.1c-0.1-0.5-0.4-0.7-0.9-0.7h-0.5L208.3,25.1L208.3,25.1z M208.3,22.6h0.5
				c0.6,0,1-0.2,1-0.6s-0.3-0.7-0.9-0.7c-0.3,0-0.5,0-0.6,0.1V22.6z"/>
		</g>
	</g>
	<g>
		
			<linearGradient id="SVGID_1_" gradientUnits="userSpaceOnUse" x1="-2.5265" y1="32.1956" x2="36.5668" y2="69.3976" gradientTransform="matrix(1 0 0 -1 0 78)">
			<stop  offset="0" style="stop-color:#FBB040"/>
			<stop  offset="1" style="stop-color:#EE2A24"/>
		</linearGradient>
		<path class="st1" d="M6.7,55.5C12,34.7,30.2,22,45.7,18.2C36.2,9.4,26.5,6.4,23.3,5.5C3.9,14.4-3.2,37.5,6.7,55.5z"/>
		
			<linearGradient id="SVGID_2_" gradientUnits="userSpaceOnUse" x1="65.0618" y1="8.0865" x2="13.4285" y2="23.833" gradientTransform="matrix(1 0 0 -1 0 78)">
			<stop  offset="0" style="stop-color:#9CCB44"/>
			<stop  offset="0.5542" style="stop-color:#47AF4B"/>
			<stop  offset="1" style="stop-color:#009851"/>
		</linearGradient>
		<path class="st2" d="M69,57c-20.7,5.8-40.7-3.6-51.8-15.2c-2.9,12.7-0.6,22.5,0.2,25.7C34.8,79.9,58.3,74.5,69,57z"/>
		
			<linearGradient id="SVGID_3_" gradientUnits="userSpaceOnUse" x1="51.9343" y1="78.9643" x2="64.8699" y2="26.4977" gradientTransform="matrix(1 0 0 -1 0 78)">
			<stop  offset="0" style="stop-color:#00BDDF"/>
			<stop  offset="1" style="stop-color:#005993"/>
		</linearGradient>
		<path class="st3" d="M39.1,2.2c15.3,15.1,17.2,37.1,12.8,52.5c12.4-3.8,19.8-10.7,22.2-13C76.1,20.4,59.6,2.8,39.1,2.2z"/>
	</g>
</g>
</svg>
