<svg width="311" height="120" viewBox="0 0 311 120" fill="none" xmlns="http://www.w3.org/2000/svg">
<g clip-path="url(#clip0_759_332)">
<path d="M77.4763 116.153H72.16C71.7746 117.297 71.4041 118.451 71.0687 119.61H69.8223C71.1338 115.378 72.5305 111.401 74.1774 107.859H75.4389C77.0858 111.401 78.5175 115.328 79.814 119.61H78.5675C78.2321 118.451 77.8617 117.292 77.4763 116.153ZM72.5154 115.093H77.1259C76.2999 112.695 75.4589 110.527 74.8231 109.098C74.1824 110.527 73.3414 112.69 72.5204 115.093H72.5154ZM82.342 119.61V107.859H83.5184C85.5708 111.521 87.5881 114.504 90.0611 117.916C90.026 117.482 90.011 116.942 90.011 116.323V107.864H91.1523V119.615H89.976C87.4029 116.173 85.2854 113.27 83.4333 109.862C83.4683 110.432 83.4833 111.086 83.4833 111.741V119.615H82.337L82.342 119.61ZM106.53 119.61H99.6673V107.859H106.53V108.918H100.879V113.05H105.724V114.109H100.879V118.561H106.53V119.62V119.61ZM113.163 114.304C112.087 115.763 110.84 117.677 109.949 119.61H108.673C109.614 117.477 111.061 115.378 112.593 113.45L108.908 107.859H110.305L113.519 112.725C114.795 111.146 115.891 109.403 116.512 107.859H117.774C116.983 109.807 115.671 111.721 114.074 113.565L118.044 119.61H116.662L113.163 114.304ZM127.405 119.61H120.542V107.859H127.405V108.918H121.753V113.05H126.599V114.109H121.753V118.561H127.405V119.62V119.61ZM130.173 107.859H131.385V118.551H136.971V119.61H130.173V107.859ZM143.554 119.81C140.205 119.81 138.608 117.142 138.608 113.734C138.608 110.327 140.17 107.659 143.554 107.659C146.938 107.659 148.515 110.327 148.515 113.734C148.515 117.142 146.918 119.81 143.554 119.81ZM143.554 118.721C146.162 118.721 147.253 116.507 147.253 113.734C147.253 110.961 146.162 108.748 143.554 108.748C140.946 108.748 139.87 110.966 139.87 113.734C139.87 116.502 140.961 118.721 143.554 118.721ZM151.618 119.61V107.859H152.795C154.847 111.521 156.865 114.504 159.337 117.916C159.302 117.482 159.287 116.942 159.287 116.323V107.864H160.429V119.615H159.252C156.679 116.173 154.557 113.27 152.71 109.862C152.745 110.432 152.76 111.086 152.76 111.741V119.615H151.613L151.618 119.61ZM168.338 113.869C168.338 110.327 170.02 107.659 173.584 107.659C174.575 107.659 175.572 107.879 176.463 108.248L176.162 109.288C175.371 109.003 174.595 108.748 173.604 108.748C170.746 108.748 169.6 111.031 169.6 113.869C169.6 116.707 170.896 118.721 173.684 118.721C174.796 118.721 175.602 118.421 176.292 118.116L176.543 119.155C175.852 119.505 174.796 119.81 173.649 119.81C170.165 119.81 168.333 117.442 168.333 113.869H168.338ZM183.216 119.81C179.867 119.81 178.27 117.142 178.27 113.734C178.27 110.327 179.837 107.659 183.216 107.659C186.595 107.659 188.176 110.327 188.176 113.734C188.176 117.142 186.579 119.81 183.216 119.81ZM183.216 118.721C185.824 118.721 186.915 116.507 186.915 113.734C186.915 110.961 185.819 108.748 183.216 108.748C180.612 108.748 179.531 110.966 179.531 113.734C179.531 116.502 180.622 118.721 183.216 118.721ZM202.969 107.859V119.61H201.827V111.786C201.827 111.116 201.862 110.512 201.877 109.992C200.801 112.475 199.455 114.994 197.658 117.816H196.616C194.814 114.994 193.453 112.445 192.361 109.977C192.411 110.497 192.426 111.116 192.426 111.791V119.615H191.28V107.864H192.541C193.753 110.817 195.285 113.64 197.152 116.627C199.004 113.64 200.516 110.822 201.712 107.864H202.974L202.969 107.859ZM206.633 107.859H209.491C212.335 107.859 214.167 108.998 214.167 111.621C214.167 114.244 212.335 115.363 209.491 115.363H207.844V119.61H206.633V107.859ZM209.476 108.918H207.844V114.309H209.476C211.544 114.309 212.925 113.689 212.925 111.621C212.925 109.553 211.544 108.918 209.476 108.918ZM222.902 116.153H217.586C217.2 117.297 216.83 118.451 216.49 119.61H215.243C216.555 115.378 217.951 111.401 219.598 107.859H220.86C222.507 111.401 223.938 115.328 225.235 119.61H223.988C223.653 118.451 223.283 117.292 222.897 116.153H222.902ZM217.941 115.093H222.552C221.726 112.695 220.885 110.527 220.249 109.098C219.608 110.527 218.767 112.69 217.946 115.093H217.941ZM227.768 119.61V107.859H228.944C230.997 111.521 233.014 114.504 235.487 117.916C235.452 117.482 235.437 116.942 235.437 116.323V107.864H236.578V119.615H235.402C232.829 116.173 230.711 113.27 228.859 109.862C228.894 110.432 228.909 111.086 228.909 111.741V119.615H227.763L227.768 119.61ZM243.061 114.659C241.279 112.291 240.017 110.277 239.026 107.859H240.303C241.144 109.907 242.12 111.521 243.682 113.65C245.228 111.536 246.19 109.907 247.031 107.859H248.307C247.281 110.277 246.054 112.305 244.272 114.624V119.61H243.061V114.659ZM223.443 60.2981C223.798 60.433 224.294 60.5829 224.849 60.5829C225.525 60.5829 225.921 60.3281 225.921 59.8034C225.921 59.2089 225.47 59.034 224.729 58.7892C223.858 58.5044 223.328 58.1247 223.328 57.2753C223.328 56.356 223.973 55.8413 225.07 55.8413C225.55 55.8413 226.071 55.9563 226.401 56.0912L226.241 56.7407C225.886 56.6208 225.505 56.5308 225.115 56.5308C224.449 56.5308 224.124 56.7807 224.124 57.2503C224.124 57.7599 224.459 57.9298 225.115 58.1497C226.016 58.4494 226.722 58.7642 226.722 59.7934C226.722 60.8227 225.911 61.2674 224.885 61.2674C224.254 61.2674 223.673 61.1425 223.298 60.9776L223.448 60.2981H223.443ZM233.024 55.9363V61.1824H232.288V58.1447C232.288 57.8299 232.303 57.5401 232.328 57.2703C231.898 58.2446 231.357 59.2438 230.661 60.3281H230.021C229.315 59.2438 228.774 58.2396 228.334 57.2653C228.364 57.5301 228.379 57.8249 228.379 58.1497V61.1874H227.648V55.9413H228.459C228.969 57.1904 229.57 58.3245 230.341 59.5536C231.107 58.3245 231.693 57.1904 232.203 55.9413H233.019L233.024 55.9363ZM79.9592 44.1699C73.2813 44.1699 69.9224 40.9123 69.9224 36.4405C69.9224 31.1494 74.1524 28.5563 79.9592 28.5563C81.6912 28.5563 83.7787 28.7612 85.3605 29.1159V26.9775C85.3605 23.4151 83.4233 21.4865 79.3985 21.4865C77.0057 21.4865 74.5578 21.9462 72.5705 22.7606L71.5493 18.6386C73.6368 17.7742 76.9006 17.1647 79.9041 17.1647C86.8873 17.1647 90.4015 20.777 90.4015 27.2373V41.8366C88.2589 43.0557 84.7448 44.1749 79.9542 44.1749L79.9592 44.1699ZM85.3605 39.2385V32.5734C83.9339 32.2186 82.352 31.9638 80.5699 31.9638C77.4112 31.9638 75.0684 33.083 75.0684 36.2357C75.0684 38.9287 77.0057 40.3027 80.4197 40.3027C82.7625 40.3027 84.3944 39.7931 85.3605 39.2335V39.2385ZM96.5987 43.5603V21.9412H92.9294V17.7692H96.5987V11.8685L101.745 11.6137V17.7692H108.117V21.9412H101.745V43.5553H96.5987V43.5603ZM111.651 43.5603V7.04208L116.797 6.7373V43.5553H111.651V43.5603ZM131.199 44.1749C124.522 44.1749 121.163 40.9173 121.163 36.4455C121.163 31.1544 125.393 28.5613 131.199 28.5613C132.931 28.5613 135.019 28.7662 136.601 29.1209V26.9825C136.601 23.4201 134.663 21.4915 130.639 21.4915C128.246 21.4915 125.798 21.9512 123.811 22.7656L122.79 18.6436C124.877 17.7792 128.141 17.1697 131.149 17.1697C138.133 17.1697 141.647 20.782 141.647 27.2423V41.8416C139.504 43.0607 135.99 44.1799 131.199 44.1799V44.1749ZM136.601 39.2435V32.5784C135.174 32.2236 133.592 31.9688 131.81 31.9688C128.651 31.9688 126.309 33.088 126.309 36.2407C126.309 38.9337 128.246 40.3077 131.66 40.3077C134.003 40.3077 135.635 39.7981 136.601 39.2385V39.2435ZM146.978 43.5653V19.5529C150.137 18.079 154.161 17.1597 158.086 17.1597C165.219 17.1597 168.989 20.772 168.989 26.9775V43.5603H163.843V27.3322C163.843 23.6199 161.956 21.4815 158.086 21.4815C155.943 21.4815 153.856 21.9412 152.124 22.8055V43.5553H146.978V43.5653ZM175.942 43.5653V21.9412H172.273V17.7692H175.942V11.8685L181.088 11.6137V17.7692H187.456V21.9412H181.088V43.5553H175.942V43.5653ZM190.779 10.1498C190.779 8.37111 191.951 7.09704 193.988 7.09704C196.026 7.09704 197.147 8.36611 197.147 10.1498C197.147 12.0334 195.976 13.3025 193.988 13.3025C192.001 13.3025 190.779 12.0334 190.779 10.1498ZM196.591 43.5653H191.445V17.7742H196.591V43.5603V43.5653ZM220.69 18.6935L219.668 22.8155C217.731 22.0011 215.539 21.4915 213.551 21.4915C208.555 21.4915 205.857 25.1038 205.857 30.6948C205.857 36.6454 208.71 39.853 214.062 39.853C215.949 39.853 218.036 39.3434 219.924 38.4291L220.84 42.601C219.058 43.5154 216.46 44.1749 213.706 44.1749C205.352 44.1749 200.611 39.1386 200.611 30.7997C200.611 22.4608 205.196 17.1697 213.196 17.1697C216.099 17.1697 218.802 17.8292 220.685 18.6985L220.69 18.6935ZM255.831 18.6935L254.81 22.8155C252.872 22.0011 250.68 21.4915 248.692 21.4915C243.697 21.4915 240.998 25.1038 240.998 30.6948C240.998 36.6454 243.852 39.853 249.203 39.853C251.09 39.853 253.178 39.3434 255.065 38.4291L255.981 42.601C254.199 43.5154 251.601 44.1749 248.848 44.1749C240.493 44.1749 235.752 39.1386 235.752 30.7997C235.752 22.4608 240.338 17.1697 248.337 17.1697C251.24 17.1697 253.944 17.8292 255.826 18.6985L255.831 18.6935ZM259.075 10.1448C259.075 8.36611 260.246 7.09204 262.283 7.09204C264.321 7.09204 265.442 8.36111 265.442 10.1448C265.442 12.0284 264.271 13.2975 262.283 13.2975C260.296 13.2975 259.075 12.0284 259.075 10.1448ZM264.887 43.5603H259.74V17.7742H264.887V43.5603ZM272.33 43.5603V21.9412H268.661V17.7692H272.33V11.8685L277.476 11.6137V17.7692H283.849V21.9412H277.476V43.5553H272.33V43.5603ZM288.559 52.9684L287.693 48.5467C291.007 47.8872 294.421 45.7987 296.409 42.4911C290.957 34.7618 287.999 27.5371 286.932 17.7742H292.129C292.944 26.4728 295.593 32.6233 299.112 38.524C302.321 32.1137 304.258 26.4678 305.024 17.7742H310.17C309.149 26.9775 306.04 34.8617 301.965 42.1364C298.091 48.9014 293.61 51.9542 288.564 52.9684H288.559ZM92.3938 86.4689C90.001 87.5881 86.9424 88.2476 83.6285 88.2476C75.524 88.2476 70.1727 83.3112 70.1727 74.7175C70.1727 66.7833 74.9133 61.2374 82.352 61.2374C89.0799 61.2374 93.0546 66.0688 93.0546 72.5291C93.0546 73.8531 92.9545 74.9723 92.8493 75.9366H75.4739C75.9845 81.3776 79.0932 83.8708 84.084 83.8708C86.632 83.8708 89.2301 83.2613 91.5228 82.297L92.3888 86.4689H92.3938ZM75.524 72.6341H88.0086C88.0587 72.3293 88.0587 72.1244 88.0587 71.8196C88.0587 68.4121 86.2766 65.4643 82.352 65.4643C78.4274 65.4643 75.9845 68.2623 75.524 72.6341ZM97.3396 87.6381V51.1198L102.486 50.815V87.6381H97.3396ZM128.666 86.4689C126.274 87.5881 123.215 88.2476 119.901 88.2476C111.797 88.2476 106.445 83.3112 106.445 74.7175C106.445 66.7833 111.186 61.2374 118.625 61.2374C125.353 61.2374 129.327 66.0688 129.327 72.5291C129.327 73.8531 129.227 74.9723 129.122 75.9366H111.747C112.257 81.3776 115.366 83.8708 120.357 83.8708C122.905 83.8708 125.503 83.2613 127.795 82.297L128.661 86.4689H128.666ZM111.797 72.6341H124.281C124.331 72.3293 124.331 72.1244 124.331 71.8196C124.331 68.4121 122.549 65.4643 118.625 65.4643C114.7 65.4643 112.257 68.2623 111.797 72.6341ZM152.404 62.7663L151.383 66.8883C149.446 66.0739 147.253 65.5642 145.266 65.5642C140.27 65.5642 137.572 69.1766 137.572 74.7725C137.572 80.7231 140.425 83.9258 145.777 83.9258C147.664 83.9258 149.751 83.4162 151.638 82.5018L152.554 86.6738C150.772 87.5881 148.174 88.2526 145.421 88.2526C137.066 88.2526 132.326 83.2163 132.326 74.8724C132.326 66.5285 136.911 61.2424 144.911 61.2424C147.814 61.2424 150.517 61.9019 152.399 62.7663H152.404ZM158.662 87.6381V66.0239H154.992V61.8519H158.662V55.9513L163.808 55.6964V61.8519H170.18V66.0239H163.808V87.6381H158.662ZM184.337 61.2424C185.764 61.2424 187.04 61.3923 187.956 61.5971L187.245 65.919C186.479 65.6642 185.513 65.5642 184.697 65.5642C182.149 65.5642 180.212 66.1238 178.785 66.8883V87.6381H173.639V63.6806C176.287 62.2067 180.417 61.2374 184.342 61.2374L184.337 61.2424ZM190.774 54.2225C190.774 52.4438 191.946 51.1698 193.983 51.1698C196.021 51.1698 197.142 52.4438 197.142 54.2225C197.142 56.1012 195.971 57.3752 193.983 57.3752C191.996 57.3752 190.774 56.1012 190.774 54.2225ZM196.581 87.6381H191.435V61.8519H196.581V87.6381ZM220.68 62.7663L219.658 66.8883C217.721 66.0739 215.529 65.5642 213.541 65.5642C208.545 65.5642 205.847 69.1766 205.847 74.7725C205.847 80.7231 208.7 83.9258 214.052 83.9258C215.939 83.9258 218.026 83.4162 219.914 82.5018L220.83 86.6738C219.048 87.5881 216.45 88.2526 213.696 88.2526C205.337 88.2526 200.601 83.2163 200.601 74.8724C200.601 66.5285 205.186 61.2424 213.186 61.2424C216.089 61.2424 218.792 61.9019 220.675 62.7663H220.68Z" fill="black"/>
<path d="M53.8887 32.2996C53.1078 30.0862 51.8413 27.8178 50.705 25.8942C49.2533 23.431 48.8378 21.0228 49.3184 17.8301C50.0192 13.1786 48.7877 8.91666 46.0195 6.42848C44.2023 4.79468 40.8734 3.14089 35.3519 4.56985C30.8567 5.729 26.7068 3.53061 23.3729 1.7619C20.8098 0.402893 18.7825 -0.67132 17.2206 0.0331642C16.3146 0.442864 15.6888 1.42215 15.3084 3.02597C14.3072 7.26287 13.3411 10.1907 12.2648 12.2442C11.3688 13.953 10.4126 15.0472 9.07606 15.8916C5.75216 17.995 3.30928 20.3383 1.81753 22.8515C0.490972 25.0948 -0.0496631 27.4731 0.25069 29.7364C0.516002 31.72 1.42207 33.5936 2.86376 35.1425C4.26541 36.6514 6.10257 37.7805 8.175 38.4201C9.81693 38.9247 11.1285 39.8091 12.1797 41.1181C13.1809 42.3672 13.9568 44.021 14.5475 46.1694C15.0731 48.088 15.9141 49.6968 17.0454 50.9659C18.1718 52.23 19.5283 53.0793 21.0752 53.489C21.766 53.6739 22.4768 53.7638 23.2077 53.7638C24.324 53.7638 25.4853 53.549 26.6667 53.1143C28.7242 52.3649 30.7666 50.9909 32.7439 49.0323C34.6661 47.1287 36.4332 45.9246 38.3004 45.2501C39.9523 44.6505 41.4842 44.5456 43.1011 44.4307C44.9432 44.3008 46.8505 44.1659 49.1081 43.3065C51.8413 42.2623 53.5884 40.7034 54.2992 38.6749C54.9149 36.9162 54.7798 34.8327 53.8887 32.2946V32.2996ZM49.9691 32.1697C49.6337 35.802 47.9017 38.7848 44.8281 41.0382C43.4765 42.0224 42.1599 42.672 40.8184 43.2365C41.7445 42.5321 42.6155 41.7526 43.4214 40.8883C45.3187 38.8548 46.7604 36.5115 47.7065 33.9184C48.6225 31.4152 49.038 28.7921 48.9429 26.1191C48.9229 25.5345 48.8728 24.9549 48.8028 24.3804C48.8979 24.5702 48.983 24.7501 49.0731 24.9399C49.869 27.548 50.1744 29.9713 49.9741 32.1697H49.9691ZM29.0245 46.6191C28.7842 46.6291 28.5439 46.6341 28.3037 46.6341C23.2778 46.6341 18.5122 44.7654 14.8178 41.3279C10.9433 37.7256 8.71063 32.8392 8.52041 27.558C8.33019 22.2769 10.2174 17.2406 13.8216 13.3784C17.4309 9.51123 22.3266 7.28286 27.6179 7.093C27.8581 7.083 28.0984 7.07801 28.3387 7.07801C33.3646 7.07801 38.1302 8.94664 41.8246 12.3841C45.6991 15.9865 47.9317 20.8729 48.122 26.1541C48.3122 31.4352 46.425 36.4715 42.8207 40.3337C39.2115 44.2008 34.3157 46.4292 29.0245 46.6191ZM42.3802 11.7846C40.3428 9.89095 37.995 8.452 35.397 7.50769C33.9503 6.98308 32.4585 6.62334 30.9468 6.43348C36.3882 5.88888 40.9335 8.26214 43.6167 13.0436C43.2212 12.609 42.8157 12.1893 42.3802 11.7846ZM19.8838 8.05729C17.3608 9.18147 15.1232 10.7853 13.2259 12.8188C13.1659 12.8838 13.1108 12.9537 13.0507 13.0187C13.281 12.509 13.5113 11.9644 13.7516 11.3799C13.9918 10.9202 14.2371 10.4555 14.4974 9.96589C16.4347 6.37852 19.7536 6.50843 23.9535 6.6733C24.0286 6.6733 24.1087 6.6783 24.1838 6.6833C22.7071 6.98308 21.2704 7.43774 19.8838 8.05729ZM7.69944 27.583C7.79456 30.2561 8.39526 32.8442 9.48654 35.2724C10.1323 36.7113 10.9383 38.0603 11.8894 39.3044C9.31134 37.3608 7.54426 34.7028 6.87848 31.72C6.19768 28.6672 6.66323 25.4046 8.21505 22.2069C7.80957 23.9607 7.62936 25.7593 7.69444 27.583H7.69944ZM21.2353 46.1994C23.508 47.0288 25.8808 47.4435 28.2987 47.4435C28.5489 47.4435 28.7992 47.4435 29.0445 47.4285C30.286 47.3835 31.5074 47.2286 32.7038 46.9688C30.6764 48.138 28.5489 48.7525 26.4615 48.7525C26.026 48.7525 25.5955 48.7275 25.17 48.6726C22.662 48.3678 20.4344 47.1887 18.7274 45.2751C18.6173 45.1501 18.5071 45.0302 18.392 44.9103C19.3031 45.41 20.2492 45.8396 21.2353 46.1994ZM45.9194 15.7667C45.5339 15.0122 45.1384 14.2278 44.753 13.4484C43.4014 10.7154 41.4291 8.55193 39.0513 7.20292C37.6546 6.4135 36.1429 5.90886 34.531 5.67404C37.3092 5.39424 39.7872 5.97382 41.7595 7.38778C43.026 8.29712 44.0722 9.52122 44.8631 11.0251C45.629 12.4791 46.1196 14.1279 46.3298 15.9215C46.3649 16.2313 46.4099 16.5311 46.455 16.8309C46.2748 16.4761 46.0946 16.1214 45.9194 15.7667ZM23.9836 5.8589C21.8761 5.77396 19.8888 5.69902 18.1567 6.1337C16.9403 6.43848 15.9441 6.97309 15.1282 7.7675C15.2683 7.38279 15.4035 6.99307 15.5487 6.58337C16.2445 4.59483 17.2607 3.90034 18.7725 3.90034C19.9138 3.90034 21.3355 4.30004 23.1126 4.83465C24.3841 5.21937 25.7957 5.64905 27.3075 5.91886C26.1812 5.93884 25.0749 5.89887 23.9886 5.8589H23.9836ZM8.33019 20.2933C6.03249 24.1455 5.25657 28.1576 6.09256 31.8948C6.54308 33.9134 7.46417 35.792 8.78071 37.4208C6.22771 35.8619 4.54574 33.4687 4.11523 30.7307C3.70976 28.1326 4.2604 24.0456 8.97094 19.1642C8.76069 19.5539 8.55044 19.9336 8.33519 20.2933H8.33019ZM18.1267 45.8147C19.9689 47.8781 22.3717 49.1472 25.0799 49.477C25.5404 49.5319 26.006 49.5619 26.4765 49.5619C28.1034 49.5619 29.7454 49.2122 31.3522 48.5477C28.614 50.4313 25.7457 51.1557 23.1476 50.5912C20.5395 50.0216 18.392 48.2079 17.0955 45.4849C16.7851 44.8304 16.3897 44.1709 15.9291 43.5213C16.65 44.2108 17.3808 44.9753 18.1317 45.8197L18.1267 45.8147ZM42.8457 43.1966C43.6617 42.7819 44.4777 42.3022 45.3137 41.6877C48.5875 39.2944 50.4297 36.1168 50.7851 32.2396C50.8802 31.1904 50.8602 30.0912 50.74 28.957C51.3557 30.8056 51.6811 32.4644 51.7012 33.9433C51.7212 35.5871 51.3708 37.0461 50.6549 38.2852C49.854 39.6792 48.5675 40.8433 46.8304 41.7526C45.4138 42.4971 44.1323 42.8868 42.8457 43.1916V43.1966ZM45.4838 7.03304C48.0469 9.33636 49.1832 13.3284 48.5224 17.7102C48.3572 18.7994 48.3022 19.7937 48.3422 20.743C48.197 20.4133 48.0519 20.0885 47.8967 19.7637C47.5663 18.5396 47.321 17.2506 47.1508 15.8266C46.9306 13.933 46.4049 12.1893 45.594 10.6454C44.743 9.02658 43.6167 7.70755 42.245 6.72826C40.9435 5.79395 39.4417 5.19938 37.7998 4.93957C41.6443 4.4949 44.0722 5.76397 45.4838 7.03304ZM17.566 0.777619C17.7913 0.677692 18.0416 0.632725 18.3119 0.632725C19.5033 0.632725 21.1503 1.50709 22.9974 2.48637C25.0548 3.58057 27.4176 4.82466 30.0007 5.39424C27.6179 5.35427 25.3802 4.67976 23.3428 4.06022C21.3955 3.47065 19.7186 2.96102 18.2669 3.11091C17.2607 3.21584 16.4647 3.62554 15.834 4.36999C15.9291 3.99527 16.0192 3.61554 16.1143 3.22083C16.4297 1.87682 16.9053 1.0774 17.571 0.782615L17.566 0.777619ZM3.47448 34.5929C2.14792 33.1639 1.31694 31.4502 1.07165 29.6315C0.786319 27.5231 1.2769 25.3796 2.52837 23.2662C3.95004 20.8629 6.3028 18.6146 9.52159 16.5811C9.94208 16.3113 10.3325 16.0165 10.698 15.6867C10.6479 15.7866 10.6029 15.8816 10.5528 15.9815C10.0122 16.8159 9.46652 17.4954 8.87583 18.075C3.45446 23.4211 2.85375 27.9727 3.29927 30.8506C3.66971 33.2439 4.92118 35.3923 6.82842 37.0161C5.54691 36.4115 4.40057 35.5871 3.46947 34.5829L3.47448 34.5929ZM26.3914 52.3549C24.5943 53.0094 22.8773 53.1293 21.2904 52.7046C19.9038 52.3349 18.6824 51.5655 17.6611 50.4263C16.6149 49.2571 15.834 47.7532 15.3434 45.9596C14.963 44.5756 14.4974 43.3764 13.9418 42.3372C14.8979 43.3914 15.7489 44.5756 16.3496 45.8346C17.7563 48.7925 20.104 50.761 22.9674 51.3856C23.6031 51.5255 24.2539 51.5954 24.9147 51.5954C26.6517 51.5954 28.4438 51.1158 30.2109 50.1865C28.9494 51.1607 27.6729 51.8902 26.3964 52.3549H26.3914ZM53.5333 38.4101C52.8926 40.2287 51.3507 41.5828 48.8178 42.552C47.3861 43.0966 46.0946 43.3365 44.8581 43.4714C45.614 43.2216 46.3899 42.9068 47.2059 42.4771C50.7701 40.6085 52.5572 37.7356 52.5121 33.9334C52.4971 32.5744 52.2418 31.0854 51.7562 29.4516C52.2818 30.4809 52.7574 31.5351 53.1228 32.5694C53.9538 34.9226 54.089 36.8312 53.5333 38.4101Z" fill="url(#paint0_linear_759_332)"/>
</g>
<defs>
<linearGradient id="paint0_linear_759_332" x1="16.3696" y1="51.0958" x2="43.1794" y2="4.56552" gradientUnits="userSpaceOnUse">
<stop offset="0.17" stop-color="#AC45FF"/>
<stop offset="0.25" stop-color="#5E24BD"/>
<stop offset="0.46" stop-color="#3D67B4"/>
<stop offset="0.64" stop-color="#239DAD"/>
<stop offset="0.8" stop-color="#0FC3A9"/>
<stop offset="0.92" stop-color="#04DBA6"/>
<stop offset="1" stop-color="#00E4A5"/>
</linearGradient>
<clipPath id="clip0_759_332">
<rect width="311" height="120" fill="white"/>
</clipPath>
</defs>
</svg>
