<svg id="avista-logo" class="brand-logo" xmlns="http://www.w3.org/2000/svg" viewBox="0 0 306.66 119.94"><defs><style>.a{fill:#003768;}.b{fill:#fff;}</style></defs><title>Avista logo</title><rect class="a" width="306.66" height="119.94"/><path class="b" d="M299.8,236.07h21.44c12.22,0,12.91-10,11.37-12.82-3.33-6.15-11-5.71-11-8.21a1.55,1.55,0,0,1,1.75-1.61h11.5l1.41-7.14H317.34c-3,0-12.69,1.15-12.69,10.39,0,7.1,11.73,7.35,11.49,10.63a1.78,1.78,0,0,1-2,1.62h-13Z" transform="translate(-142.9 -154.58)"/><polygon class="b" points="86.62 52.37 100.32 50.12 102.8 36.4 85.09 36.4 86.62 52.37"/><polygon class="b" points="99.8 52.59 86.91 55.01 87.06 56.26 99.52 54.36 99.8 52.59"/><polygon class="b" points="99 56.74 87.32 58.91 87.3 60.17 98.65 58.32 99 56.74"/><polygon class="b" points="79.41 64.34 78.22 64.49 78.3 81.47 81.44 81.47 79.41 64.34"/><polygon class="b" points="83.95 63.62 82.88 63.75 82.81 81.47 85.94 81.47 83.95 63.62"/><polygon class="b" points="83.7 36.4 80.47 36.39 82 52.8 83.69 52.51 83.7 36.4"/><polygon class="b" points="74.62 61.14 52.36 64.28 49.74 67.34 74.78 62.39 74.62 61.14"/><polygon class="b" points="87.3 62.88 87.3 81.47 93.77 81.47 98.19 60.86 87.3 62.88"/><polygon class="b" points="77.53 53.61 79.14 53.3 79.14 36.4 75.97 36.4 76.02 36.92 77.53 53.61"/><polygon class="b" points="75.06 65.03 48.5 68.81 37.52 81.62 57.7 81.62 64.19 74.83 76.1 74.83 75.06 65.03"/><polygon class="b" points="74.64 54.2 74.64 37.79 57.47 57.98 74.64 54.2"/><polygon class="b" points="74.64 57.18 56.21 59.76 53.84 62.53 74.64 58.45 74.64 57.18"/><polygon class="b" points="138.59 81.47 153.41 81.47 159.37 51.7 144.35 51.7 138.59 81.47"/><polygon class="b" points="228.46 51.69 196.77 51.69 195.35 58.82 203.87 58.82 199.32 81.47 214.01 81.47 218.51 58.82 227.03 58.82 228.46 51.69"/><path class="b" d="M389.15,236h15.62l-5.27-29.84H378.66L361.41,236h14.91l1.86-3.45H388.6Zm-7.69-9.82,4.74-9.88,0.38,0,1.26,9.85h-6.38Z" transform="translate(-142.9 -154.58)"/><polygon class="b" points="136.55 51.7 125.75 51.7 124.8 53.74 136.55 51.7"/><polygon class="b" points="123.99 55.5 117.08 70.42 116.7 70.42 116.44 57.04 102.4 59.9 104.97 81.47 125.98 81.47 141.82 51.86 123.99 55.5"/><polygon class="b" points="116.32 51.74 116.32 51.7 101.43 51.7 101.69 54.02 116.32 51.74"/><polygon class="b" points="101.93 56.01 102.14 57.66 116.4 55.19 116.36 53.23 101.93 56.01"/><path class="b" d="M404.32,208.87a2.4,2.4,0,1,1,2.4,2.47,2.38,2.38,0,0,1-2.4-2.47m2.4,3a2.95,2.95,0,1,0-3-3,2.95,2.95,0,0,0,3,3m-0.62-2.73h0.58l0.9,1.48h0.58l-1-1.51a0.88,0.88,0,0,0,.88-0.93,1,1,0,0,0-1.2-1h-1.3v3.4h0.52v-1.48Zm0-.44v-1h0.71c0.36,0,.74.08,0.74,0.5s-0.39.55-.83,0.55H406.1Z" transform="translate(-142.9 -154.58)"/></svg>
