<svg width="390" height="120" viewBox="0 0 390 120" fill="none" xmlns="http://www.w3.org/2000/svg">
<g clip-path="url(#clip0_757_318)">
<path d="M121.501 114.237H113.145C112.54 116.032 111.957 117.859 111.43 119.685H109.471C111.533 113.017 113.728 106.75 116.316 101.167H118.299C120.887 106.75 123.137 112.938 125.175 119.685H123.216C122.689 117.859 122.107 116.032 121.501 114.237ZM113.704 112.568H120.95C119.652 108.781 118.33 105.372 117.331 103.128C116.324 105.38 115.002 108.789 113.712 112.568H113.704ZM129.148 119.685V101.167H130.997C134.223 106.939 137.393 111.647 141.28 117.016C141.225 116.331 141.201 115.481 141.201 114.505V101.175H143.003V119.693H141.154C137.11 114.269 133.782 109.694 130.871 104.325C130.926 105.222 130.95 106.254 130.95 107.285V119.693H129.156L129.148 119.685ZM167.165 119.685H156.378V101.167H167.165V102.837H158.282V109.348H165.898V111.017H158.282V118.032H167.165V119.701V119.685ZM177.589 111.324C175.898 113.623 173.939 116.638 172.538 119.685H170.532C172.011 116.323 174.285 113.017 176.692 109.978L170.902 101.167H173.097L178.148 108.836C180.154 106.348 181.877 103.6 182.853 101.167H184.835C183.592 104.238 181.531 107.253 179.021 110.159L185.26 119.685H183.089L177.589 111.324ZM199.973 119.685H189.186V101.167H199.973V102.837H191.09V109.348H198.706V111.017H191.09V118.032H199.973V119.701V119.685ZM204.324 101.167H206.227V118.016H215.008V119.685H204.331V101.167H204.324ZM225.354 120C220.09 120 217.58 115.796 217.58 110.426C217.58 105.057 220.043 100.853 225.354 100.853C230.664 100.853 233.15 105.057 233.15 110.426C233.15 115.796 230.641 120 225.354 120ZM225.354 118.284C229.453 118.284 231.168 114.796 231.168 110.426C231.168 106.057 229.445 102.569 225.354 102.569C221.263 102.569 219.563 106.065 219.563 110.426C219.563 114.788 221.278 118.284 225.354 118.284ZM238.028 119.685V101.167H239.877C243.103 106.939 246.274 111.647 250.16 117.016C250.105 116.331 250.082 115.481 250.082 114.505V101.175H251.883V119.693H250.034C245.991 114.269 242.662 109.694 239.751 104.325C239.806 105.222 239.83 106.254 239.83 107.285V119.693H238.036L238.028 119.685ZM264.306 110.639C264.306 105.057 266.95 100.853 272.552 100.853C274.109 100.853 275.667 101.199 277.068 101.782L276.596 103.419C275.353 102.97 274.141 102.569 272.575 102.569C268.083 102.569 266.281 106.167 266.281 110.639C266.281 115.111 268.319 118.284 272.701 118.284C274.448 118.284 275.714 117.811 276.8 117.331L277.194 118.969C276.108 119.52 274.44 120 272.646 120C267.17 120 264.291 116.268 264.291 110.639H264.306ZM287.689 120C282.426 120 279.916 115.796 279.916 110.426C279.916 105.057 282.378 100.853 287.689 100.853C293 100.853 295.486 105.057 295.486 110.426C295.486 115.796 292.976 120 287.689 120ZM287.689 118.284C291.788 118.284 293.503 114.796 293.503 110.426C293.503 106.057 291.788 102.569 287.689 102.569C283.59 102.569 281.898 106.065 281.898 110.426C281.898 114.788 283.614 118.284 287.689 118.284ZM318.735 101.167V119.685H316.941V107.356C316.941 106.293 316.996 105.348 317.02 104.521C315.328 108.434 313.212 112.403 310.387 116.851H308.751C305.918 112.41 303.778 108.387 302.063 104.498C302.142 105.317 302.165 106.293 302.165 107.356V119.685H300.372V101.167H302.354C304.258 105.821 306.666 110.269 309.6 114.977C312.504 110.269 314.887 105.821 316.76 101.167H318.743H318.735ZM324.494 101.167H328.986C333.455 101.167 336.335 102.963 336.335 107.096C336.335 111.229 333.455 112.993 328.986 112.993H326.398V119.685H324.494V101.167ZM328.963 102.837H326.398V111.332H328.963C332.212 111.332 334.383 110.356 334.383 107.096C334.383 103.837 332.212 102.837 328.963 102.837ZM350.072 114.237H341.716C341.11 116.032 340.528 117.859 340.001 119.685H338.042C340.103 113.017 342.298 106.75 344.887 101.167H346.869C349.458 106.75 351.708 112.938 353.746 119.685H351.787C351.26 117.859 350.677 116.032 350.072 114.237ZM342.275 112.568H349.521C348.223 108.781 346.901 105.372 345.902 103.128C344.895 105.38 343.573 108.789 342.283 112.568H342.275ZM357.719 119.685V101.167H359.568C362.793 106.939 365.964 111.647 369.851 117.016C369.796 116.331 369.772 115.481 369.772 114.505V101.175H371.566V119.693H369.717C365.673 114.269 362.337 109.694 359.434 104.325C359.489 105.222 359.513 106.254 359.513 107.285V119.693H357.719V119.685ZM381.754 111.883C378.954 108.151 376.971 104.978 375.413 101.167H377.419C378.741 104.396 380.275 106.939 382.73 110.293C385.161 106.962 386.672 104.396 387.994 101.167H390C388.387 104.978 386.459 108.183 383.658 111.828V119.685H381.754V111.883ZM126.316 69.8956C120.95 69.8956 114.782 69.1713 111.1 67.1715V11.3898L119.188 10.9883V29.1045C120.95 28.0653 123.751 27.3409 126.953 27.3409C138.81 27.3409 146.819 34.5528 146.819 47.9372C146.819 61.3217 139.132 69.8956 126.316 69.8956ZM126.08 63.0853C134.412 63.0853 138.495 57.4796 138.495 48.0947C138.495 38.7099 134.246 34.1513 126.324 34.1513C123.523 34.1513 120.879 35.1905 119.196 36.2377V61.9673C121.115 62.7704 123.122 63.0932 126.08 63.0932V63.0853ZM169.029 84.2406C163.262 84.2406 159.738 83.5241 155.654 81.918L157.338 75.3439C160.863 76.7059 164.309 77.3437 168.549 77.3437C175.677 77.3437 179.438 74.0605 179.438 68.5257V65.156C176.952 66.4393 173.994 67.2424 170.626 67.2424C159.171 67.2424 151.964 60.2667 151.964 48.0868C151.964 35.2614 160.131 27.3252 172.546 27.3252C178.549 27.3252 184.001 28.8447 187.526 30.5296V67.8014C187.526 78.4617 180.398 84.2327 169.029 84.2327V84.2406ZM171.751 60.3533C174.954 60.3533 177.44 59.5502 179.438 58.2669V35.4267C177.676 34.789 175.111 34.1434 172.554 34.1434C164.946 34.1434 160.217 39.1901 160.217 47.4491C160.217 55.7081 164.466 60.3533 171.751 60.3533ZM229.697 67.0849C225.936 68.8485 221.129 69.8877 215.92 69.8877C203.183 69.8877 194.772 62.109 194.772 48.5671C194.772 36.0645 202.223 27.3252 213.914 27.3252C224.488 27.3252 230.735 34.9386 230.735 45.1186C230.735 47.205 230.578 48.9686 230.413 50.4882H203.104C203.906 59.0621 208.792 62.9908 216.636 62.9908C220.641 62.9908 224.724 62.0303 228.328 60.5029L229.689 67.077L229.697 67.0849ZM203.191 45.284H222.812C222.891 44.8037 222.891 44.4809 222.891 44.0006C222.891 38.6311 220.09 33.9859 213.922 33.9859C207.754 33.9859 203.906 38.3949 203.191 45.284ZM232.529 25.845C233.088 26.0576 233.866 26.2938 234.74 26.2938C235.802 26.2938 236.423 25.8923 236.423 25.0656C236.423 24.1287 235.715 23.8531 234.551 23.4673C233.182 23.0186 232.348 22.4202 232.348 21.0817C232.348 19.6331 233.363 18.8221 235.086 18.8221C235.841 18.8221 236.66 19.0032 237.179 19.2158L236.927 20.2393C236.368 20.0504 235.77 19.9086 235.157 19.9086C234.11 19.9086 233.599 20.3023 233.599 21.0424C233.599 21.8454 234.126 22.1131 235.157 22.4596C236.573 22.9319 237.682 23.428 237.682 25.0498C237.682 26.6717 236.408 27.3724 234.795 27.3724C233.804 27.3724 232.891 27.1756 232.301 26.9158L232.537 25.845H232.529ZM247.588 18.9717V27.2386H246.431V22.4517C246.431 21.9557 246.455 21.499 246.494 21.0739C245.817 22.6091 244.968 24.1838 243.874 25.8923H242.867C241.758 24.1838 240.908 22.6013 240.216 21.066C240.263 21.4833 240.286 21.9478 240.286 22.4596V27.2465H239.138V18.9796H240.412C241.215 20.9479 242.159 22.7351 243.371 24.6719C244.574 22.7351 245.495 20.9479 246.297 18.9796H247.58L247.588 18.9717Z" fill="black"/>
<path d="M84.4287 51.196C83.2014 47.7081 81.2108 44.1337 79.4249 41.1025C77.1432 37.221 76.4903 33.4261 77.2456 28.3952C78.347 21.0652 76.4116 14.3494 72.0608 10.4285C69.2048 7.85396 63.9728 5.24793 55.2948 7.49967C48.2297 9.32625 41.7074 5.86204 36.4676 3.07493C32.4393 0.933416 29.2529 -0.759323 26.7982 0.350799C25.3742 0.996402 24.3908 2.53955 23.7928 5.06685C22.2193 11.7433 20.7008 16.357 19.0093 19.5929C17.601 22.2856 16.0983 24.0098 13.9976 25.3404C8.77348 28.655 4.93407 32.3475 2.58952 36.3077C0.504591 39.8428 -0.345117 43.5904 0.126941 47.157C0.543926 50.2827 1.96795 53.2351 4.23383 55.6758C6.43676 58.0535 9.32422 59.8329 12.5814 60.8406C15.162 61.6358 17.2233 63.0294 18.8755 65.0922C20.4491 67.0605 21.6685 69.6665 22.5969 73.052C23.423 76.0753 24.7448 78.6105 26.5229 80.6103C28.2931 82.6022 30.4252 83.9406 32.8563 84.5862C33.942 84.8775 35.0592 85.0193 36.2079 85.0193C37.9624 85.0193 39.7877 84.6807 41.6445 83.9957C44.8781 82.8148 48.088 80.6496 51.1958 77.5633C54.2169 74.5636 56.9942 72.6662 59.9289 71.6033C62.5252 70.6585 64.9327 70.4932 67.4739 70.3121C70.3692 70.1074 73.3668 69.8948 76.9151 68.5406C81.2108 66.8951 83.9566 64.4387 85.0738 61.2422C86.0415 58.4708 85.8292 55.1877 84.4287 51.1881V51.196ZM78.2683 50.9913C77.7412 56.7151 75.019 61.4154 70.1883 64.9662C68.064 66.5172 65.9948 67.5407 63.8863 68.4304C65.3418 67.3203 66.7108 66.0921 67.9775 64.73C70.9593 61.5256 73.2252 57.8331 74.7122 53.7469C76.1519 49.8024 76.805 45.669 76.6555 41.4568C76.624 40.5356 76.5453 39.6224 76.4352 38.7169C76.5847 39.0161 76.7184 39.2995 76.86 39.5987C78.111 43.7085 78.5909 47.527 78.2762 50.9913H78.2683ZM45.3501 73.7606C44.9725 73.7763 44.5948 73.7842 44.2172 73.7842C36.3181 73.7842 28.8281 70.8396 23.0218 65.4228C16.9322 59.7463 13.4233 52.0463 13.1243 43.7243C12.8253 35.4023 15.7914 27.4661 21.4561 21.3801C27.1287 15.2863 34.8232 11.7748 43.1393 11.4756C43.517 11.4599 43.8946 11.452 44.2723 11.452C52.1714 11.452 59.6614 14.3966 65.4677 19.8134C71.5572 25.4899 75.0662 33.1899 75.3652 41.5119C75.6641 49.8339 72.698 57.7701 67.0333 63.8561C61.3608 69.9499 53.6662 73.4614 45.3501 73.7606ZM66.341 18.8686C63.1388 15.8846 59.4489 13.6172 55.3656 12.1291C53.0919 11.3024 50.7473 10.7356 48.3713 10.4364C56.9234 9.5782 64.0672 13.318 68.2843 20.8526C67.6628 20.1677 67.0255 19.5063 66.341 18.8686ZM30.9838 12.9952C27.0185 14.7666 23.5017 17.2939 20.5198 20.4983C20.4254 20.6007 20.3389 20.7109 20.2445 20.8133C20.6064 20.0102 20.9683 19.152 21.3459 18.2309C21.7236 17.5065 22.1091 16.7743 22.5182 16.0027C25.563 10.3498 30.7792 10.5545 37.3802 10.8143C37.4982 10.8143 37.6241 10.8222 37.7421 10.83C35.4212 11.3024 33.1631 12.0189 30.9838 12.9952ZM11.8419 43.7637C11.9914 47.9758 12.9354 52.0541 14.6506 55.8805C15.6655 58.148 16.9322 60.2738 18.4271 62.2342C14.3752 59.1715 11.598 54.983 10.5516 50.2827C9.48156 45.4721 10.2132 40.3309 12.6522 35.2921C12.0149 38.0556 11.7317 40.8899 11.834 43.7637H11.8419ZM33.1159 73.0992C36.6879 74.4062 40.4171 75.0596 44.2172 75.0596C44.6106 75.0596 45.0039 75.0596 45.3894 75.036C47.3406 74.9652 49.2603 74.7211 51.1407 74.3117C47.9543 76.154 44.6106 77.1224 41.3298 77.1224C40.6453 77.1224 39.9686 77.0831 39.2999 76.9965C35.3582 76.5162 31.8571 74.6581 29.1743 71.6427C29.0012 71.4458 28.8281 71.2569 28.6471 71.0679C30.079 71.8553 31.566 72.5324 33.1159 73.0992ZM71.9113 25.1435C71.3055 23.9547 70.6839 22.7186 70.0781 21.4904C67.9538 17.1837 64.854 13.7746 61.1169 11.6489C58.9218 10.4049 56.5458 9.60969 54.0124 9.23965C58.3789 8.79875 62.2734 9.71204 65.3733 11.9402C67.3638 13.3731 69.0081 15.302 70.2512 17.6719C71.455 19.963 72.226 22.5611 72.5564 25.3876C72.6115 25.8757 72.6823 26.3481 72.7531 26.8205C72.4699 26.2615 72.1866 25.7025 71.9113 25.1435ZM37.4195 9.53096C34.1072 9.39711 30.9838 9.27901 28.2616 9.96398C26.3498 10.4442 24.7841 11.2867 23.5017 12.5385C23.722 11.9323 23.9344 11.3182 24.1626 10.6726C25.2562 7.53904 26.8533 6.44466 29.2293 6.44466C31.0232 6.44466 33.2575 7.07452 36.0506 7.91695C38.0489 8.52319 40.2676 9.20028 42.6436 9.62544C40.8734 9.65693 39.1347 9.59394 37.4274 9.53096H37.4195ZM12.8174 32.2766C9.2062 38.3469 7.98669 44.6691 9.30059 50.5582C10.0087 53.739 11.4563 56.6993 13.5255 59.266C9.51301 56.8096 6.86948 53.0383 6.19286 48.7238C5.55558 44.6297 6.42103 38.1894 13.8245 30.4973C13.494 31.1114 13.1636 31.7098 12.8253 32.2766H12.8174ZM28.2144 72.493C31.1097 75.7446 34.8861 77.7444 39.1425 78.264C39.8664 78.3507 40.5981 78.3979 41.3376 78.3979C43.8946 78.3979 46.4752 77.8468 49.0007 76.7996C44.6971 79.7678 40.1889 80.9094 36.1056 80.0198C32.0066 79.1222 28.6314 76.2643 26.5937 71.9734C26.1059 70.942 25.4843 69.9027 24.7605 68.8792C25.8935 69.9657 27.0421 71.1703 28.2222 72.5009L28.2144 72.493ZM67.0648 68.3674C68.3473 67.7139 69.6297 66.9581 70.9436 65.9897C76.089 62.2185 78.9843 57.2111 79.5429 51.1015C79.6924 49.4481 79.6609 47.716 79.4721 45.9288C80.4398 48.8419 80.9512 51.4558 80.9827 53.7862C81.0142 56.3765 80.4634 58.6755 79.3383 60.6281C78.0795 62.8247 76.0575 64.6591 73.3274 66.0921C71.1009 67.2652 69.0868 67.8793 67.0648 68.3596V68.3674ZM71.211 11.3812C75.2393 15.0107 77.0252 21.3014 75.9867 28.2062C75.7271 29.9226 75.6405 31.4893 75.7035 32.9852C75.4753 32.4656 75.2471 31.9538 75.0032 31.4421C74.484 29.5132 74.0985 27.4819 73.831 25.238C73.4848 22.2541 72.6587 19.5063 71.3842 17.0735C70.0467 14.5226 68.2764 12.444 66.1207 10.9009C64.0751 9.42861 61.7148 8.49169 59.1342 8.08229C65.1766 7.38157 68.9924 9.38137 71.211 11.3812ZM27.3411 1.51603C27.6951 1.35857 28.0885 1.28771 28.5134 1.28771C30.3859 1.28771 32.9743 2.66552 35.8775 4.20867C39.1111 5.9329 42.8246 7.89333 46.8843 8.79088C43.1393 8.72789 39.6225 7.66501 36.4204 6.68873C33.3599 5.75969 30.7242 4.95662 28.4426 5.19282C26.8612 5.35816 25.6102 6.00376 24.6189 7.17687C24.7684 6.58638 24.91 5.98801 25.0595 5.36603C25.5552 3.24814 26.3026 1.98843 27.349 1.52391L27.3411 1.51603ZM5.18583 54.8098C3.1009 52.558 1.79488 49.8575 1.40937 46.9917C0.960915 43.6692 1.73192 40.2916 3.69883 36.9612C5.93324 33.1742 9.63106 29.6313 14.6899 26.4269C15.3508 26.0017 15.9645 25.5372 16.5388 25.0176C16.4601 25.175 16.3894 25.3246 16.3107 25.4821C15.461 26.7969 14.6034 27.8677 13.675 28.7809C5.15434 37.2053 4.21026 44.3778 4.91048 48.9127C5.49268 52.684 7.45958 56.0695 10.4572 58.6283C8.44304 57.6756 6.64133 56.3765 5.17795 54.794L5.18583 54.8098ZM41.2039 82.799C38.3794 83.8304 35.6808 84.0194 33.1868 83.3501C31.0074 82.7675 29.0877 81.555 27.4827 79.76C25.8384 77.9176 24.611 75.5478 23.84 72.7213C23.2421 70.5404 22.5103 68.6509 21.637 67.0132C23.1398 68.6745 24.4773 70.5404 25.4214 72.5245C27.6322 77.1854 31.3221 80.2875 35.8224 81.2716C36.8216 81.4921 37.8444 81.6023 38.8829 81.6023C41.613 81.6023 44.4296 80.8465 47.2069 79.382C45.2242 80.9173 43.218 82.0668 41.2117 82.799H41.2039ZM83.8622 60.8249C82.8551 63.6907 80.4319 65.8244 76.4509 67.3518C74.2008 68.21 72.1709 68.5879 70.2276 68.8005C71.4156 68.4068 72.6351 67.9108 73.9175 67.2337C79.5193 64.2891 82.328 59.762 82.2572 53.7705C82.2336 51.629 81.8324 49.2828 81.0692 46.7082C81.8953 48.3301 82.6427 49.9914 83.2171 51.6211C84.5231 55.3294 84.7355 58.337 83.8622 60.8249Z" fill="url(#paint0_linear_757_318)"/>
</g>
<defs>
<linearGradient id="paint0_linear_757_318" x1="25.4607" y1="80.8071" x2="67.7627" y2="7.58069" gradientUnits="userSpaceOnUse">
<stop offset="0.17" stop-color="#AC45FF"/>
<stop offset="0.25" stop-color="#5E24BD"/>
<stop offset="0.46" stop-color="#3D67B4"/>
<stop offset="0.64" stop-color="#239DAD"/>
<stop offset="0.8" stop-color="#0FC3A9"/>
<stop offset="0.92" stop-color="#04DBA6"/>
<stop offset="1" stop-color="#00E4A5"/>
</linearGradient>
<clipPath id="clip0_757_318">
<rect width="390" height="120" fill="white"/>
</clipPath>
</defs>
</svg>
