<svg width="390" height="120" viewBox="0 0 390 120" fill="none" xmlns="http://www.w3.org/2000/svg">
<g clip-path="url(#clip0_757_315)">
<path d="M140.921 29.3181L139.316 35.8131C136.271 34.5298 132.825 33.7268 129.702 33.7268C121.85 33.7268 117.609 39.4188 117.609 48.2283C117.609 57.6047 122.094 62.659 130.504 62.659C133.47 62.659 136.751 61.856 139.717 60.4153L141.157 66.989C138.356 68.4297 134.273 69.4689 129.946 69.4689C116.814 69.4689 109.363 61.5332 109.363 48.3937C109.363 35.2541 116.57 26.9169 129.143 26.9169C133.706 26.9169 137.955 27.9561 140.913 29.326L140.921 29.3181ZM162.935 69.4689C151.078 69.4689 143.95 60.8955 143.95 48.1496C143.95 35.4037 151.078 26.9091 162.935 26.9091C174.792 26.9091 181.999 35.4824 181.999 48.1496C181.999 60.8168 174.949 69.4689 162.935 69.4689ZM162.935 62.659C170.221 62.659 173.667 56.967 173.667 48.1496C173.667 39.3322 170.221 33.7268 162.935 33.7268C155.65 33.7268 152.204 39.4188 152.204 48.1496C152.204 56.8804 155.886 62.659 162.935 62.659ZM239.119 68.5084V42.9379C239.119 37.3246 236.641 33.719 230.386 33.719C226.782 33.719 223.1 35.0022 220.779 36.5216C221.495 38.6079 221.818 41.0878 221.818 43.8118V68.4927H213.887V42.9379C213.887 37.3246 211.487 33.719 205.24 33.719C202.196 33.719 199.151 34.4432 196.507 35.8052V68.5005H188.419V30.6801C193.384 28.3577 199.473 26.9091 205.555 26.9091C210.441 26.9091 214.288 28.1923 217.011 30.5935C220.614 28.5938 225.343 26.9091 230.708 26.9091C241.684 26.9091 247.207 32.8372 247.207 42.3789V68.5084H239.119ZM287.939 44.7092C287.939 34.2779 281.676 27.531 271.975 27.531C266.523 27.531 261.928 29.5386 258.686 33.3411C255.523 37.057 253.848 42.2057 253.848 48.2362C253.848 61.297 261.464 69.0988 274.217 69.0988C279.064 69.0988 283.47 68.2092 287.317 66.4536L286.436 62.4622C282.455 64.0997 278.379 64.9578 274.611 64.9578C264.918 64.9578 259.324 59.4548 258.859 49.4565L258.844 49.0628H287.734C287.868 47.7245 287.939 46.2916 287.939 44.7092ZM283.084 45.4808L283.037 45.8035H258.915L258.954 45.3942C259.733 36.7499 264.603 31.5855 271.983 31.5855C275.634 31.5855 278.608 32.9081 280.567 35.4195C282.243 37.5608 283.171 40.5761 283.171 43.9062C283.171 44.5597 283.171 44.8903 283.084 45.4808ZM322.486 29.0583L321.975 28.8694C319.654 28.0034 317.026 27.531 314.579 27.531C301.723 27.531 294.052 35.5375 294.052 48.9526C294.052 61.3757 301.613 69.091 313.777 69.091C319.017 69.091 323.824 67.9258 327.333 65.8081V10.959L322.478 11.2345V29.0504L322.486 29.0583ZM322.486 62.8558L322.321 62.966C320.527 64.1942 317.223 64.9499 313.698 64.9499C304.674 64.9499 299.064 58.7541 299.064 48.7873C299.064 37.7419 304.658 31.6642 314.815 31.6642C317.207 31.6642 319.921 32.2625 322.258 33.3017L322.478 33.404V62.8558H322.486ZM335.091 18.5483C335.649 18.7608 336.428 18.997 337.301 18.997C338.364 18.997 338.985 18.5955 338.985 17.7689C338.985 16.832 338.277 16.5565 337.113 16.1707C335.744 15.722 334.91 15.1237 334.91 13.7853C334.91 12.3367 335.925 11.5258 337.648 11.5258C338.403 11.5258 339.221 11.7069 339.741 11.9195L339.489 12.9429C338.93 12.754 338.332 12.6123 337.718 12.6123C336.672 12.6123 336.161 13.0059 336.161 13.7459C336.161 14.5489 336.688 14.8166 337.718 15.163C339.135 15.6354 340.244 16.1314 340.244 17.7531C340.244 19.3749 338.969 20.0756 337.357 20.0756C336.365 20.0756 335.452 19.8788 334.862 19.619L335.098 18.5483H335.091ZM350.15 11.6754V19.9417H348.993V15.1551C348.993 14.6592 349.017 14.2025 349.056 13.7774C348.379 15.3126 347.53 16.8871 346.436 18.5955H345.429C344.32 16.8871 343.47 15.3047 342.777 13.7695C342.825 14.1868 342.848 14.6513 342.848 15.163V19.9496H341.7V11.6754H342.974C343.777 13.6436 344.721 15.4307 345.932 17.3674C347.136 15.4307 348.057 13.6436 348.859 11.6754H350.142H350.15ZM121.244 113.807H112.888C112.282 115.602 111.7 117.429 111.173 119.255H109.214C111.275 112.587 113.47 106.32 116.059 100.739H118.042C120.63 106.32 122.88 112.508 124.918 119.255H122.959C122.432 117.429 121.85 115.602 121.244 113.807ZM113.447 112.138H120.693C119.395 108.359 118.073 104.943 117.074 102.691C116.067 104.943 114.745 108.352 113.455 112.138H113.447ZM128.891 119.255V100.739H130.74C133.966 106.502 137.137 111.209 141.023 116.579C140.968 115.894 140.945 115.043 140.945 114.067V100.739H142.739V119.255H140.89C136.846 113.831 133.518 109.257 130.606 103.888C130.662 104.785 130.685 105.824 130.685 106.856V119.263H128.883L128.891 119.255ZM166.908 119.255H156.122V100.739H166.908V102.4H158.026V108.911H165.642V110.58H158.026V117.594H166.908V119.263V119.255ZM177.333 110.894C175.642 113.193 173.683 116.209 172.282 119.255H170.276C171.755 115.894 174.029 112.587 176.436 109.548L170.646 100.739H172.841L177.892 108.407C179.898 105.919 181.621 103.171 182.597 100.739H184.58C183.336 103.809 181.275 106.824 178.765 109.729L185.004 119.255H182.833L177.333 110.894ZM199.717 119.255H188.93V100.739H199.717V102.4H190.834V108.911H198.45V110.58H190.834V117.594H199.717V119.263V119.255ZM204.068 100.739H205.972V117.586H214.753V119.255H204.068V100.739ZM225.099 119.57C219.835 119.57 217.325 115.366 217.325 109.997C217.325 104.628 219.78 100.424 225.099 100.424C230.417 100.424 232.896 104.628 232.896 109.997C232.896 115.366 230.386 119.57 225.099 119.57ZM225.099 117.854C229.198 117.854 230.913 114.366 230.913 109.997C230.913 105.628 229.198 102.14 225.099 102.14C221 102.14 219.308 105.636 219.308 109.997C219.308 114.358 221.023 117.854 225.099 117.854ZM237.774 119.255V100.739H239.623C242.848 106.502 246.019 111.209 249.906 116.579C249.851 115.894 249.827 115.043 249.827 114.067V100.739H251.621V119.255H249.772C245.728 113.831 242.392 109.257 239.489 103.888C239.544 104.785 239.568 105.824 239.568 106.856V119.263H237.766L237.774 119.255ZM264.052 110.21C264.052 104.628 266.696 100.424 272.298 100.424C273.855 100.424 275.421 100.77 276.822 101.353L276.35 102.99C275.106 102.542 273.887 102.14 272.329 102.14C267.837 102.14 266.035 105.738 266.035 110.21C266.035 114.681 268.073 117.854 272.455 117.854C274.202 117.854 275.468 117.374 276.554 116.901L276.948 118.539C275.862 119.09 274.202 119.57 272.4 119.57C266.924 119.57 264.044 115.839 264.044 110.21H264.052ZM287.435 119.57C282.172 119.57 279.662 115.366 279.662 109.997C279.662 104.628 282.125 100.424 287.435 100.424C292.746 100.424 295.232 104.628 295.232 109.997C295.232 115.366 292.722 119.57 287.435 119.57ZM287.435 117.854C291.534 117.854 293.25 114.366 293.25 109.997C293.25 105.628 291.527 102.14 287.435 102.14C283.344 102.14 281.645 105.636 281.645 109.997C281.645 114.358 283.36 117.854 287.435 117.854ZM318.482 100.739V119.255H316.688V106.927C316.688 105.872 316.743 104.919 316.766 104.092C315.075 108.005 312.958 111.973 310.134 116.421H308.497C305.665 111.981 303.525 107.958 301.81 104.069C301.888 104.888 301.912 105.872 301.912 106.927V119.255H300.11V100.739H302.093C303.997 105.391 306.405 109.84 309.339 114.547C312.25 109.84 314.626 105.391 316.507 100.739H318.489H318.482ZM324.241 100.739H328.733C333.202 100.739 336.082 102.534 336.082 106.667C336.082 110.8 333.202 112.564 328.733 112.564H326.145V119.255H324.241V100.739ZM328.71 102.4H326.145V110.894H328.71C331.959 110.894 334.131 109.918 334.131 106.659C334.131 103.4 331.959 102.4 328.71 102.4ZM349.811 113.8H341.456C340.85 115.594 340.268 117.421 339.733 119.247H337.774C339.835 112.579 342.03 106.313 344.619 100.731H346.601C349.19 106.313 351.44 112.501 353.478 119.247H351.519C350.991 117.421 350.409 115.594 349.803 113.8H349.811ZM342.014 112.131H349.26C347.962 108.352 346.641 104.935 345.641 102.683C344.634 104.935 343.312 108.344 342.022 112.131H342.014ZM357.459 119.247V100.731H359.308C362.533 106.494 365.704 111.202 369.591 116.571C369.536 115.886 369.512 115.036 369.512 114.059V100.731H371.306V119.247H369.457C365.413 113.823 362.085 109.249 359.174 103.88C359.229 104.777 359.253 105.817 359.253 106.848V119.255H357.451L357.459 119.247ZM381.495 111.446C378.694 107.714 376.711 104.541 375.153 100.731H377.16C378.481 103.959 380.016 106.494 382.47 109.855C384.902 106.525 386.412 103.959 387.734 100.731H389.74C388.127 104.541 386.2 107.738 383.399 111.39V119.247H381.495V111.446Z" fill="black"/>
<path d="M84.1707 50.7629C82.9433 47.2753 80.9528 43.7011 79.1668 40.6701C76.8851 36.7889 76.2321 32.9942 76.9874 27.9636C78.0889 20.6341 76.1534 13.9187 71.8025 9.99814C68.9465 7.42377 63.7144 4.81791 55.0362 7.0695C47.9709 8.89597 41.4485 5.43198 36.2085 2.64505C32.1802 0.50367 28.9938 -1.18896 26.539 -0.0789092C25.115 0.566652 24.1314 2.1097 23.5335 4.63684C21.9599 11.3128 20.4415 15.9262 18.7499 19.1619C17.3416 21.8544 15.8388 23.5785 13.7381 24.909C8.5139 28.2234 4.67441 31.9157 2.3298 35.8756C0.244836 39.4105 -0.60489 43.1579 -0.132822 46.7242C0.284171 49.8497 1.70822 52.8019 3.97415 55.2425C6.17713 57.62 9.0646 59.3993 12.3219 60.407C14.9025 61.2021 16.9639 62.5956 18.6161 64.6582C20.1897 66.6264 21.4092 69.2323 22.3376 72.6175C23.1637 75.6406 24.4856 78.1756 26.2637 80.1753C28.0339 82.1671 30.1661 83.5054 32.5972 84.151C33.683 84.4423 34.8002 84.584 35.9489 84.584C37.7034 84.584 39.5288 84.2455 41.3856 83.5606C44.6192 82.3797 47.8293 80.2147 50.9371 77.1286C53.9583 74.1291 56.7356 72.2317 59.6703 71.1689C62.2667 70.2242 64.6742 70.0589 67.2155 69.8778C70.1109 69.6731 73.1085 69.4606 76.6569 68.1065C80.9527 66.4611 83.6986 64.0048 84.8158 60.8085C85.7835 58.0373 85.5712 54.7544 84.1707 50.755V50.7629ZM78.0101 50.5582C77.483 56.2817 74.7608 60.9817 69.93 64.5322C67.8057 66.0832 65.7364 67.1066 63.6279 67.9962C65.0834 66.8862 66.4524 65.658 67.7191 64.2961C70.701 61.0919 72.9669 57.3996 74.454 53.3137C75.8938 49.3694 76.5468 45.2363 76.3973 41.0244C76.3658 40.1033 76.2871 39.19 76.177 38.2847C76.3265 38.5838 76.4602 38.8673 76.6019 39.1664C77.8528 43.276 78.3327 47.0942 78.018 50.5582H78.0101ZM45.0913 73.3261C44.7136 73.3418 44.336 73.3497 43.9584 73.3497C36.0591 73.3497 28.5689 70.4053 22.7625 64.9889C16.6728 59.3126 13.1638 51.6132 12.8648 43.2917C12.5658 34.9703 15.532 27.0346 21.1968 20.949C26.8695 14.8555 34.5642 11.3443 42.8805 11.0452C43.2581 11.0294 43.6357 11.0215 44.0134 11.0215C51.9127 11.0215 59.4029 13.9659 65.2093 19.3823C71.299 25.0586 74.808 32.7581 75.107 41.0795C75.4059 49.4009 72.4398 57.3366 66.775 63.4222C61.1023 69.5157 53.4075 73.0269 45.0913 73.3261ZM66.0826 18.4376C62.8804 15.4539 59.1904 13.1865 55.107 11.6986C52.8332 10.872 50.4886 10.3051 48.1125 10.006C56.6648 9.14789 63.8088 12.8874 68.0259 20.4215C67.4044 19.7366 66.7671 19.0753 66.0826 18.4376ZM30.7247 12.5646C26.7593 14.3359 23.2424 16.8631 20.2606 20.0673C20.1661 20.1696 20.0795 20.2798 19.9851 20.3822C20.347 19.5792 20.709 18.721 21.0866 17.7999C21.4643 17.0756 21.8498 16.3435 22.2589 15.572C25.3037 9.91942 30.5201 10.1241 37.1212 10.3839C37.2392 10.3839 37.3651 10.3917 37.4831 10.3996C35.1621 10.872 32.904 11.5884 30.7247 12.5646ZM11.5823 43.3311C11.7318 47.543 12.6759 51.621 14.3911 55.4472C15.4061 57.7145 16.6728 59.8401 18.1677 61.8004C14.1158 58.7379 11.3384 54.5497 10.292 49.8497C9.22199 45.0395 9.95373 39.8986 12.3928 34.8601C11.7555 37.6234 11.4722 40.4575 11.5745 43.3311H11.5823ZM32.8569 72.6647C36.4289 73.9716 40.1582 74.625 43.9584 74.625C44.3518 74.625 44.7451 74.625 45.1307 74.6014C47.0819 74.5306 49.0016 74.2865 50.882 73.8771C47.6955 75.7193 44.3517 76.6877 41.0708 76.6877C40.3863 76.6877 39.7098 76.6483 39.041 76.5617C35.0992 76.0815 31.5981 74.2235 28.9151 71.2083C28.742 71.0115 28.5689 70.8225 28.388 70.6336C29.8199 71.4209 31.307 72.0979 32.8569 72.6647ZM71.653 24.7122C71.0472 23.5234 70.4256 22.2874 69.8198 21.0592C67.6955 16.7529 64.5956 13.344 60.8584 11.2184C58.6633 9.97453 56.2872 9.17938 53.7537 8.80937C58.1204 8.3685 62.015 9.28173 65.1149 11.5097C67.1054 12.9425 68.7498 14.8713 69.9929 17.241C71.1967 19.5319 71.9677 22.1299 72.2981 24.9562C72.3532 25.4443 72.424 25.9167 72.4948 26.389C72.2116 25.8301 71.9284 25.2711 71.653 24.7122ZM37.1606 9.10066C33.8482 8.96682 30.7247 8.84873 28.0024 9.53365C26.0906 10.0138 24.5248 10.8562 23.2424 12.108C23.4627 11.5018 23.6752 10.8877 23.9033 10.2421C24.997 7.10887 26.5941 6.01456 28.9702 6.01456C30.764 6.01456 32.9985 6.64438 35.7916 7.48675C37.79 8.09295 40.0087 8.77 42.3848 9.19513C40.6145 9.22662 38.8758 9.16364 37.1684 9.10066H37.1606ZM12.5579 31.8448C8.94662 37.9147 7.72714 44.2364 9.04106 50.1252C9.74916 53.3058 11.1968 56.2659 13.2661 58.8324C9.25349 56.3761 6.60985 52.6051 5.93322 48.2909C5.29593 44.1971 6.16145 37.7572 13.565 30.0656C13.2346 30.6797 12.9041 31.278 12.5658 31.8448H12.5579ZM27.9552 72.0585C30.8505 75.31 34.6271 77.3096 38.8836 77.8292C39.6074 77.9158 40.3391 77.9631 41.0787 77.9631C43.6358 77.9631 46.2164 77.412 48.742 76.3649C44.4383 79.3329 39.93 80.4745 35.8466 79.5848C31.7475 78.6874 28.3722 75.8296 26.3345 71.5389C25.8467 70.5076 25.2251 69.4684 24.5012 68.445C25.6342 69.5314 26.7829 70.7359 27.9631 72.0664L27.9552 72.0585ZM66.8064 67.9333C68.0888 67.2798 69.3713 66.524 70.6853 65.5557C75.8308 61.7847 78.7261 56.7776 79.2847 50.6684C79.4342 49.0152 79.4028 47.2832 79.2139 45.4961C80.1817 48.409 80.6931 51.0227 80.7246 53.353C80.7561 55.9431 80.2053 58.242 79.0802 60.1944C77.8214 62.3909 75.7994 64.2252 73.0692 65.658C70.8426 66.8311 68.8284 67.4452 66.8064 67.9254V67.9333ZM70.9527 10.9507C74.981 14.58 76.7671 20.8703 75.7285 27.7746C75.4689 29.4909 75.3823 31.0576 75.4452 32.5534C75.2171 32.0338 74.989 31.522 74.7451 31.0103C74.2258 29.0815 73.8403 27.0504 73.5728 24.8066C73.2266 21.8229 72.4004 19.0753 71.1258 16.6426C69.7883 14.0919 68.0181 12.0135 65.8623 10.4705C63.8167 8.99831 61.4563 8.06146 58.8757 7.65208C64.9182 6.95141 68.734 8.95108 70.9527 10.9507ZM27.0819 1.08625C27.4359 0.928796 27.8293 0.857941 28.2542 0.857941C30.1267 0.857941 32.7152 2.23567 35.6184 3.77872C38.8521 5.50284 42.5658 7.46314 46.6256 8.36062C42.8805 8.29764 39.3635 7.23483 36.1613 6.25861C33.1008 5.32964 30.465 4.52662 28.1834 4.7628C26.602 4.92813 25.351 5.57369 24.3596 6.74672C24.5091 6.15627 24.6507 5.55794 24.8002 4.936C25.2959 2.81825 26.0433 1.55862 27.0898 1.09413L27.0819 1.08625ZM4.92622 54.3765C2.84125 52.1249 1.53516 49.4245 1.14963 46.5589C0.701169 43.2366 1.47224 39.8592 3.43919 36.5291C5.67365 32.7423 9.37149 29.1996 14.4305 25.9954C15.0914 25.5703 15.7051 25.1058 16.2794 24.5862C16.2007 24.7436 16.1299 24.8932 16.0512 25.0507C15.2015 26.3654 14.3439 27.4361 13.4155 28.3493C4.89468 36.7731 3.95053 43.9452 4.65077 48.4798C5.23298 52.2508 7.19997 55.6361 10.1976 58.1947C8.18345 57.2421 6.38175 55.9431 4.91834 54.3607L4.92622 54.3765ZM40.9449 82.3639C38.1204 83.3952 35.4218 83.5842 32.9277 82.915C30.7483 82.3324 28.8286 81.12 27.2235 79.325C25.5792 77.4828 24.3518 75.1132 23.5807 72.2869C22.9828 70.1061 22.251 68.2167 21.3777 66.5791C22.8805 68.2403 24.218 70.1061 25.1622 72.09C27.373 76.7507 31.063 79.8525 35.5634 80.8366C36.5626 81.057 37.5854 81.1673 38.624 81.1673C41.3541 81.1673 44.1707 80.4115 46.9481 78.9472C44.9654 80.4823 42.9591 81.6317 40.9528 82.3639H40.9449ZM83.6042 60.3912C82.5971 63.2569 80.1738 65.3904 76.1927 66.9177C73.9425 67.7758 71.9126 68.1537 69.9693 68.3663C71.1573 67.9726 72.3769 67.4766 73.6593 66.7996C79.2612 63.8552 82.07 59.3284 81.9992 53.3373C81.9756 51.1959 81.5743 48.8498 80.8111 46.2755C81.6372 47.8972 82.3847 49.5584 82.959 51.188C84.2651 54.8961 84.4776 57.9034 83.6042 60.3912Z" fill="url(#paint0_linear_757_315)"/>
</g>
<defs>
<linearGradient id="paint0_linear_757_315" x1="25.1936" y1="80.38" x2="67.4989" y2="7.15526" gradientUnits="userSpaceOnUse">
<stop offset="0.17" stop-color="#AC45FF"/>
<stop offset="0.25" stop-color="#5E24BD"/>
<stop offset="0.46" stop-color="#3D67B4"/>
<stop offset="0.64" stop-color="#239DAD"/>
<stop offset="0.8" stop-color="#0FC3A9"/>
<stop offset="0.92" stop-color="#04DBA6"/>
<stop offset="1" stop-color="#00E4A5"/>
</linearGradient>
<clipPath id="clip0_757_315">
<rect width="390" height="120" fill="white"/>
</clipPath>
</defs>
</svg>
