<svg width="268" height="120" viewBox="0 0 268 120" fill="none" xmlns="http://www.w3.org/2000/svg">
<g clip-path="url(#clip0_755_309)">
<path d="M82.9161 44.2862C74.7696 44.2862 69.6786 39.3503 69.6786 31.2038C69.6786 23.0573 74.7696 17.2563 83.2211 17.2563C84.6464 17.2563 86.0716 17.5113 87.2419 17.8664V7.1244L92.3828 6.86935V42.1458C90.0924 43.4161 86.6318 44.2862 82.9161 44.2862ZM82.8661 39.9604C84.6464 39.9604 86.2767 39.5504 87.2419 38.9953V22.3972C86.0716 21.8871 84.7464 21.5821 83.4762 21.5821C77.9251 21.5821 74.9246 24.9427 74.9246 30.9988C74.9246 37.0549 78.0802 39.9604 82.8661 39.9604ZM118.983 42.5059C116.587 43.6261 113.537 44.2862 110.226 44.2862C102.13 44.2862 96.7836 39.3503 96.7836 30.7438C96.7836 22.8023 101.519 17.2513 108.951 17.2513C115.672 17.2513 119.643 22.0872 119.643 28.5533C119.643 29.8786 119.543 30.9988 119.438 31.964H102.08C102.59 37.41 105.695 39.9054 110.681 39.9054C113.227 39.9054 115.822 39.2953 118.113 38.3301L118.978 42.5059H118.983ZM102.13 28.6584H114.602C114.652 28.3533 114.652 28.1483 114.652 27.8432C114.652 24.4326 112.872 21.477 108.951 21.477C105.03 21.477 102.585 24.2776 102.13 28.6534V28.6584ZM125.174 43.6761V7.1244L130.315 6.81934V43.6761H125.174ZM168.547 43.6761V27.4381C168.547 23.8725 166.967 21.5821 162.996 21.5821C160.705 21.5821 158.365 22.3972 156.885 23.3624C157.345 24.6876 157.545 26.2629 157.545 27.9932V43.6711H152.504V27.4331C152.504 23.8675 150.979 21.5771 147.008 21.5771C145.073 21.5771 143.137 22.0371 141.457 22.9023V43.6711H136.316V19.6417C139.471 18.1664 143.342 17.2463 147.208 17.2463C150.313 17.2463 152.759 18.0614 154.489 19.5867C156.78 18.3165 159.785 17.2463 163.196 17.2463C170.172 17.2463 173.683 21.0119 173.683 27.0731V43.6711H168.542L168.547 43.6761ZM187.885 44.2862C181.214 44.2862 177.859 41.0256 177.859 36.5498C177.859 31.2538 182.084 28.6584 187.885 28.6584C189.616 28.6584 191.706 28.8634 193.281 29.2185V27.0781C193.281 23.5124 191.346 21.5821 187.325 21.5821C184.93 21.5821 182.489 22.0422 180.504 22.8523L179.484 18.7265C181.569 17.8614 184.83 17.2513 187.835 17.2513C194.807 17.2513 198.322 20.8669 198.322 27.3331V41.9408C196.182 43.161 192.671 44.2812 187.885 44.2812V44.2862ZM193.281 39.3503V32.6791C191.856 32.324 190.276 32.069 188.496 32.069C185.34 32.069 183 33.1892 183 36.3448C183 39.0403 184.935 40.4155 188.345 40.4155C190.686 40.4155 192.316 39.9054 193.281 39.3453V39.3503ZM214.495 17.2563C215.921 17.2563 217.191 17.4113 218.111 17.6113L217.396 21.9371C216.631 21.6821 215.666 21.5821 214.85 21.5821C212.305 21.5821 210.37 22.1422 208.944 22.9073V43.6761H203.803V19.6967C206.454 18.2214 210.575 17.2513 214.495 17.2513V17.2563ZM233.544 39.4003C237.054 32.8841 239.4 26.573 240.215 17.8664H245.356C244.136 27.7932 241.485 34.7695 236.394 43.6761H230.693C225.502 34.7695 222.752 27.7932 221.732 17.8664H226.923C227.838 26.573 230.128 32.8841 233.539 39.4003H233.544ZM257.318 44.2862C250.647 44.2862 247.291 41.0256 247.291 36.5498C247.291 31.2538 251.517 28.6584 257.318 28.6584C259.049 28.6584 261.134 28.8634 262.714 29.2185V27.0781C262.714 23.5124 260.779 21.5821 256.758 21.5821C254.368 21.5821 251.922 22.0422 249.937 22.8523L248.917 18.7265C251.002 17.8614 254.263 17.2513 257.263 17.2513C264.239 17.2513 267.75 20.8669 267.75 27.3331V41.9408C265.61 43.161 262.099 44.2812 257.313 44.2812L257.318 44.2862ZM262.714 39.3503V32.6791C261.289 32.324 259.709 32.069 257.928 32.069C254.773 32.069 252.432 33.1892 252.432 36.3448C252.432 39.0403 254.368 40.4155 257.778 40.4155C260.119 40.4155 261.749 39.9054 262.719 39.3453L262.714 39.3503ZM81.4858 88.3593C79.1954 88.3593 77.6701 87.8993 76.3449 87.3392V97.266H71.2039V63.6648C74.3095 62.1395 78.0752 61.3744 81.2858 61.3744C89.4323 61.3744 93.9131 66.5653 93.9131 74.3568C93.9131 82.6033 89.6373 88.3593 81.4908 88.3593H81.4858ZM80.7757 84.0836C86.0717 84.0836 88.5671 80.6729 88.5671 74.5118C88.5671 69.4709 86.3767 65.7052 81.0307 65.7052C79.2004 65.7052 77.6701 66.1653 76.3449 66.7754V82.9634C77.5151 83.5235 78.7903 84.0836 80.7757 84.0836ZM109.221 88.4094C101.685 88.4094 97.1537 82.9634 97.1537 74.8669C97.1537 66.7704 101.685 61.3744 109.221 61.3744C116.757 61.3744 121.338 66.8204 121.338 74.8669C121.338 82.9134 116.857 88.4094 109.221 88.4094ZM109.221 84.0836C113.852 84.0836 116.042 80.4679 116.042 74.8669C116.042 69.2658 113.852 65.7052 109.221 65.7052C104.59 65.7052 102.4 69.3208 102.4 74.8669C102.4 80.4129 104.74 84.0836 109.221 84.0836ZM149.578 83.6285C152.784 77.1123 154.924 70.6961 155.534 61.9945H160.625C159.555 71.9213 157.165 78.8976 152.379 87.8043H147.188C144.947 83.3734 143.117 79.4027 141.742 75.332C140.622 79.3527 138.891 83.6785 136.701 87.8043H131.66C126.519 78.8976 124.429 71.9213 123.414 61.9945H128.504C129.32 70.7011 131.355 77.1123 134.461 83.6285C136.956 78.6926 138.991 72.3264 139.757 67.4405C139.451 65.7102 139.196 63.9299 138.991 61.9945H143.827C144.642 70.7011 146.678 77.1123 149.578 83.6285ZM184.895 86.629C182.504 87.7493 179.449 88.4094 176.138 88.4094C168.047 88.4094 162.701 83.4735 162.701 74.8669C162.701 66.9254 167.437 61.3744 174.868 61.3744C181.589 61.3744 185.56 66.2103 185.56 72.6765C185.56 74.0017 185.46 75.1219 185.355 76.0871H167.997C168.507 81.5331 171.612 84.0286 176.598 84.0286C179.144 84.0286 181.739 83.4185 184.03 82.4533L184.895 86.629ZM168.047 72.7815H180.519C180.569 72.4764 180.569 72.2714 180.569 71.9663C180.569 68.5557 178.789 65.6002 174.868 65.6002C170.947 65.6002 168.502 68.4007 168.047 72.7765V72.7815ZM200.983 61.3794C202.408 61.3794 203.683 61.5344 204.598 61.7345L203.883 66.0603C203.118 65.8052 202.153 65.7052 201.338 65.7052C198.792 65.7052 196.857 66.2653 195.432 67.0304V87.7992H190.291V63.8198C192.936 62.3446 197.062 61.3744 200.983 61.3744V61.3794ZM207.619 60.4342C207.974 60.5692 208.469 60.7193 209.024 60.7193C209.699 60.7193 210.094 60.4642 210.094 59.9391C210.094 59.344 209.644 59.169 208.904 58.9239C208.034 58.6389 207.504 58.2588 207.504 57.4087C207.504 56.4885 208.149 55.9734 209.244 55.9734C209.724 55.9734 210.245 56.0884 210.575 56.2234L210.415 56.8736C210.059 56.7535 209.679 56.6635 209.289 56.6635C208.624 56.6635 208.299 56.9136 208.299 57.3837C208.299 57.8937 208.634 58.0638 209.289 58.2838C210.19 58.5839 210.895 58.8989 210.895 59.9291C210.895 60.9593 210.084 61.4044 209.059 61.4044C208.429 61.4044 207.849 61.2794 207.474 61.1143L207.624 60.4342H207.619ZM217.191 56.0684V61.3194H216.456V58.2788C216.456 57.9638 216.471 57.6737 216.496 57.4037C216.066 58.3788 215.525 59.379 214.83 60.4642H214.19C213.485 59.379 212.945 58.3738 212.505 57.3987C212.535 57.6637 212.55 57.9588 212.55 58.2838V61.3244H211.82V56.0734H212.63C213.14 57.3236 213.74 58.4588 214.51 59.6891C215.275 58.4588 215.861 57.3236 216.371 56.0734H217.186L217.191 56.0684ZM77.225 116.34H71.914C71.529 117.485 71.1589 118.64 70.8238 119.8H69.5786C70.8889 115.564 72.2841 111.584 73.9294 108.038H75.1896C76.835 111.584 78.2652 115.514 79.5605 119.8H78.3152C77.9802 118.64 77.6101 117.48 77.225 116.34ZM72.2691 115.279H76.875C76.0498 112.879 75.2097 110.708 74.5745 109.278C73.9344 110.708 73.0943 112.874 72.2741 115.279H72.2691ZM82.0859 119.8V108.038H83.2611C85.3115 111.704 87.3269 114.689 89.7973 118.105C89.7623 117.67 89.7473 117.13 89.7473 116.51V108.043H90.8875V119.805H89.7123C87.1418 116.36 85.0265 113.454 83.1761 110.043C83.2111 110.613 83.2261 111.269 83.2261 111.924V119.805H82.0809L82.0859 119.8ZM106.25 119.8H99.3941V108.038H106.25V109.098H100.604V113.234H105.445V114.294H100.604V118.75H106.25V119.81V119.8ZM112.877 114.489C111.801 115.949 110.556 117.865 109.666 119.8H108.391C109.331 117.665 110.776 115.564 112.306 113.634L108.626 108.038H110.021L113.232 112.909C114.507 111.329 115.602 109.583 116.222 108.038H117.482C116.692 109.988 115.382 111.904 113.787 113.749L117.752 119.8H116.372L112.877 114.489ZM127.104 119.8H120.248V108.038H127.104V109.098H121.458V113.234H126.299V114.294H121.458V118.75H127.104V119.81V119.8ZM129.87 108.038H131.08V118.74H136.661V119.8H129.87V108.038ZM143.237 120C139.892 120 138.296 117.33 138.296 113.919C138.296 110.508 139.857 107.838 143.237 107.838C146.618 107.838 148.193 110.508 148.193 113.919C148.193 117.33 146.598 120 143.237 120ZM143.237 118.91C145.843 118.91 146.933 116.695 146.933 113.919C146.933 111.144 145.843 108.928 143.237 108.928C140.632 108.928 139.557 111.149 139.557 113.919C139.557 116.69 140.647 118.91 143.237 118.91ZM151.294 119.8V108.038H152.469C154.519 111.704 156.535 114.689 159.005 118.105C158.97 117.67 158.955 117.13 158.955 116.51V108.043H160.095V119.805H158.92C156.35 116.36 154.229 113.454 152.384 110.043C152.419 110.613 152.434 111.269 152.434 111.924V119.805H151.289L151.294 119.8ZM167.997 114.054C167.997 110.508 169.677 107.838 173.238 107.838C174.228 107.838 175.223 108.058 176.113 108.428L175.813 109.468C175.023 109.183 174.248 108.928 173.258 108.928C170.402 108.928 169.257 111.214 169.257 114.054C169.257 116.895 170.552 118.91 173.338 118.91C174.448 118.91 175.253 118.61 175.943 118.305L176.193 119.345C175.503 119.695 174.448 120 173.303 120C169.822 120 167.992 117.63 167.992 114.054H167.997ZM182.859 120C179.514 120 177.919 117.33 177.919 113.919C177.919 110.508 179.484 107.838 182.859 107.838C186.235 107.838 187.815 110.508 187.815 113.919C187.815 117.33 186.22 120 182.859 120ZM182.859 118.91C185.465 118.91 186.555 116.695 186.555 113.919C186.555 111.144 185.46 108.928 182.859 108.928C180.259 108.928 179.179 111.149 179.179 113.919C179.179 116.69 180.269 118.91 182.859 118.91ZM202.593 108.038V119.8H201.453V111.969C201.453 111.299 201.488 110.693 201.503 110.173C200.428 112.659 199.082 115.179 197.287 118.005H196.247C194.447 115.179 193.086 112.629 191.996 110.158C192.046 110.678 192.061 111.299 192.061 111.974V119.805H190.916V108.043H192.176C193.386 110.999 194.917 113.824 196.782 116.815C198.632 113.824 200.143 111.004 201.338 108.043H202.598L202.593 108.038ZM206.254 108.038H209.109C211.95 108.038 213.78 109.178 213.78 111.804C213.78 114.429 211.95 115.549 209.109 115.549H207.464V119.8H206.254V108.038ZM209.094 109.098H207.464V114.494H209.094C211.16 114.494 212.54 113.874 212.54 111.804C212.54 109.733 211.16 109.098 209.094 109.098ZM222.507 116.34H217.196C216.811 117.485 216.441 118.64 216.101 119.8H214.855C216.166 115.564 217.561 111.584 219.206 108.038H220.466C222.112 111.584 223.542 115.514 224.837 119.8H223.592C223.257 118.64 222.887 117.48 222.502 116.34H222.507ZM217.551 115.279H222.157C221.332 112.879 220.491 110.708 219.856 109.278C219.216 110.708 218.376 112.874 217.556 115.279H217.551ZM227.368 119.8V108.038H228.543C230.593 111.704 232.609 114.689 235.079 118.105C235.044 117.67 235.029 117.13 235.029 116.51V108.043H236.169V119.805H234.994C232.424 116.36 230.308 113.454 228.458 110.043C228.493 110.613 228.508 111.269 228.508 111.924V119.805H227.363L227.368 119.8ZM242.645 114.844C240.865 112.474 239.605 110.458 238.615 108.038H239.89C240.73 110.088 241.705 111.704 243.266 113.834C244.811 111.719 245.771 110.088 246.611 108.038H247.886C246.861 110.458 245.636 112.489 243.856 114.809V119.8H242.645V114.844Z" fill="black"/>
<path d="M53.6656 32.4094C52.8854 30.194 51.6202 27.9236 50.485 25.9982C49.0347 23.5328 48.6196 21.1223 49.0997 17.9267C49.7998 13.2709 48.5696 9.00508 45.8041 6.51462C43.9888 4.87932 40.6632 3.22401 35.1471 4.65428C30.6563 5.81449 26.5106 3.61409 23.1799 1.84376C20.6195 0.483511 18.5941 -0.591683 17.0338 0.113447C16.1286 0.523522 15.5035 1.5037 15.1235 3.109C14.1233 7.34978 13.1581 10.2803 12.0829 12.3357C11.1877 14.046 10.2326 15.1412 8.89731 15.9864C5.5767 18.0918 3.13625 20.4372 1.64598 22.9527C0.320732 25.1981 -0.219367 27.5785 0.0806879 29.8439C0.345737 31.8293 1.2509 33.7046 2.69117 35.2549C4.09143 36.7652 5.92676 37.8954 7.99715 38.5355C9.63745 39.0406 10.9477 39.9258 11.9979 41.236C12.9981 42.4863 13.7732 44.1416 14.3633 46.292C14.8884 48.2123 15.7286 49.8226 16.8588 51.0928C17.984 52.3581 19.3392 53.2082 20.8845 53.6183C21.5746 53.8033 22.2848 53.8934 23.0149 53.8934C24.1301 53.8934 25.2903 53.6783 26.4705 53.2432C28.5259 52.4931 30.5663 51.1178 32.5417 49.1575C34.462 47.2521 36.2273 46.0469 38.0927 45.3718C39.743 44.7717 41.2733 44.6667 42.8886 44.5516C44.7289 44.4216 46.6343 44.2866 48.8897 43.4264C51.6202 42.3812 53.3655 40.821 54.0756 38.7906C54.6907 37.0303 54.5557 34.9449 53.6656 32.4044V32.4094ZM49.7498 32.2794C49.4148 35.915 47.6845 38.9006 44.6139 41.156C43.2636 42.1412 41.9484 42.7913 40.6082 43.3564C41.5333 42.6513 42.4035 41.8711 43.2086 41.006C45.104 38.9706 46.5442 36.6252 47.4894 34.0297C48.4046 31.5242 48.8197 28.8988 48.7246 26.2233C48.7046 25.6382 48.6546 25.058 48.5846 24.4829C48.6796 24.673 48.7647 24.853 48.8547 25.043C49.6498 27.6535 49.9549 30.079 49.7548 32.2794H49.7498ZM28.826 46.742C28.5859 46.752 28.3459 46.757 28.1058 46.757C23.0849 46.757 18.324 44.8867 14.6334 41.4461C10.7627 37.8404 8.53224 32.9495 8.34221 27.6635C8.15217 22.3776 10.0375 17.3366 13.6382 13.4709C17.2438 9.60019 22.1348 7.36977 27.4207 7.17974C27.6608 7.16974 27.9008 7.16473 28.1409 7.16473C33.1618 7.16473 37.9227 9.03509 41.6133 12.4757C45.4841 16.0814 47.7145 20.9723 47.9045 26.2583C48.0945 31.5442 46.2092 36.5852 42.6085 40.4509C39.0029 44.3216 34.112 46.552 28.826 46.742ZM42.1684 11.8756C40.1331 9.98026 37.7876 8.54 35.1922 7.59482C33.7469 7.06973 32.2566 6.70966 30.7463 6.51963C36.1823 5.97453 40.7232 8.34995 43.4037 13.1358C43.0086 12.7008 42.6035 12.2807 42.1684 11.8756ZM19.6943 8.14493C17.1738 9.27013 14.9384 10.8754 13.0431 12.9108C12.9831 12.9758 12.9281 13.0458 12.868 13.1108C13.0981 12.6008 13.3281 12.0557 13.5682 11.4705C13.8082 11.0105 14.0533 10.5454 14.3133 10.0553C16.2487 6.46461 19.5643 6.59463 23.76 6.75966C23.8351 6.75966 23.9151 6.76467 23.9901 6.76967C22.5148 7.06973 21.0796 7.52481 19.6943 8.14493ZM7.52706 27.6885C7.62208 30.364 8.22219 32.9545 9.31239 35.385C9.95751 36.8252 10.7627 38.1755 11.7128 39.4207C9.13736 37.4753 7.37203 34.8148 6.70691 31.8293C6.02678 28.7737 6.49187 25.5081 8.04215 22.3075C7.63708 24.0629 7.45705 25.8632 7.52206 27.6885H7.52706ZM21.0495 46.322C23.32 47.1521 25.6904 47.5672 28.1058 47.5672C28.3559 47.5672 28.6059 47.5672 28.851 47.5522C30.0912 47.5072 31.3114 47.3522 32.5067 47.0921C30.4813 48.2623 28.3559 48.8774 26.2705 48.8774C25.8354 48.8774 25.4054 48.8524 24.9803 48.7974C22.4748 48.4924 20.2494 47.3121 18.5441 45.3968C18.4341 45.2718 18.324 45.1517 18.209 45.0317C19.1192 45.5318 20.0644 45.9619 21.0495 46.322ZM45.7091 15.8614C45.324 15.1062 44.9289 14.3211 44.5439 13.5409C43.1936 10.8054 41.2233 8.64001 38.8478 7.28976C37.4526 6.49961 35.9423 5.99452 34.332 5.75948C37.1075 5.47943 39.583 6.05954 41.5533 7.4748C42.8186 8.38497 43.8637 9.6102 44.6539 11.1155C45.419 12.5708 45.9091 14.221 46.1192 16.0164C46.1542 16.3264 46.1992 16.6265 46.2442 16.9266C46.0642 16.5715 45.8841 16.2164 45.7091 15.8614ZM23.7851 5.94451C21.6797 5.85949 19.6943 5.78449 17.964 6.21957C16.7488 6.52462 15.7536 7.05972 14.9384 7.85486C15.0785 7.46979 15.2135 7.07972 15.3585 6.66965C16.0536 4.67928 17.0688 3.98416 18.5791 3.98416C19.7193 3.98416 21.1396 4.38423 22.9149 4.91933C24.1851 5.3044 25.5954 5.73448 27.1057 6.00453C25.9805 6.02454 24.8753 5.98452 23.7901 5.94451H23.7851ZM8.14717 20.3922C5.85175 24.2479 5.07661 28.2636 5.91176 32.0043C6.36184 34.0247 7.28201 35.905 8.59726 37.5353C6.04679 35.9751 4.36648 33.5796 3.9364 30.8391C3.53132 28.2386 4.08142 24.1479 8.78729 19.262C8.57725 19.652 8.36721 20.0321 8.15218 20.3922H8.14717ZM17.934 45.9369C19.7743 48.0023 22.1748 49.2725 24.8803 49.6026C25.3403 49.6576 25.8054 49.6876 26.2755 49.6876C27.9008 49.6876 29.5411 49.3375 31.1464 48.6724C28.4109 50.5577 25.5454 51.2829 22.9499 50.7178C20.3444 50.1477 18.199 48.3323 16.9038 45.6068C16.5937 44.9517 16.1987 44.2916 15.7386 43.6415C16.4587 44.3316 17.1888 45.0967 17.939 45.9419L17.934 45.9369ZM42.6285 43.3164C43.4437 42.9013 44.2588 42.4212 45.094 41.8061C48.3646 39.4107 50.2049 36.2301 50.56 32.3494C50.655 31.2992 50.635 30.199 50.515 29.0638C51.1301 30.9141 51.4552 32.5744 51.4752 34.0547C51.4952 35.7 51.1451 37.1603 50.43 38.4005C49.6298 39.7958 48.3446 40.961 46.6093 41.8711C45.194 42.6163 43.9138 43.0063 42.6285 43.3114V43.3164ZM45.264 7.11973C47.8245 9.42515 48.9597 13.4209 48.2996 17.8067C48.1345 18.8969 48.0795 19.8921 48.1195 20.8423C47.9745 20.5122 47.8295 20.1871 47.6745 19.8621C47.3444 18.6369 47.0993 17.3466 46.9293 15.9214C46.7093 14.026 46.1842 12.2807 45.374 10.7354C44.5239 9.1151 43.3987 7.79486 42.0284 6.81468C40.7282 5.87951 39.2279 5.28439 37.5876 5.02434C41.4283 4.57926 43.8537 5.84949 45.264 7.11973ZM17.3789 0.853573C17.6039 0.753555 17.854 0.708557 18.124 0.708557C19.3142 0.708557 20.9595 1.58372 22.8049 2.5639C24.8603 3.6591 27.2207 4.90433 29.8012 5.47444C27.4207 5.43443 25.1853 4.7593 23.1499 4.13918C21.2046 3.54908 19.5293 3.03898 18.079 3.18901C17.0738 3.29403 16.2787 3.7041 15.6486 4.44924C15.7436 4.07417 15.8336 3.69411 15.9286 3.29903C16.2437 1.95379 16.7188 1.15364 17.3839 0.858579L17.3789 0.853573ZM3.30128 34.7048C1.97604 33.2746 1.14588 31.5592 0.900839 29.7389C0.615786 27.6285 1.10588 25.4831 2.35611 23.3677C3.77637 20.9623 6.1268 18.7119 9.34239 16.6765C9.76247 16.4065 10.1525 16.1114 10.5176 15.7813C10.4676 15.8814 10.4226 15.9764 10.3726 16.0764C9.83248 16.9115 9.28738 17.5917 8.69728 18.1718C3.28128 23.5228 2.68117 28.0786 3.12625 30.9591C3.49632 33.3546 4.74655 35.505 6.6519 37.1303C5.37166 36.5252 4.22645 35.7 3.29628 34.6948L3.30128 34.7048ZM26.1955 52.4831C24.4002 53.1382 22.6848 53.2582 21.0996 52.8332C19.7143 52.4631 18.4941 51.693 17.4739 50.5527C16.4287 49.3825 15.6486 47.8772 15.1585 46.0819C14.7784 44.6967 14.3133 43.4964 13.7582 42.4562C14.7134 43.5114 15.5635 44.6967 16.1636 45.9569C17.5689 48.9174 19.9143 50.8878 22.7749 51.5129C23.41 51.6529 24.0601 51.723 24.7202 51.723C26.4555 51.723 28.2459 51.2429 30.0112 50.3127C28.751 51.2879 27.4757 52.018 26.2005 52.4831H26.1955ZM53.3105 38.5255C52.6704 40.3459 51.1301 41.7011 48.5996 42.6713C47.1694 43.2164 45.8791 43.4564 44.6439 43.5915C45.399 43.3414 46.1742 43.0264 46.9893 42.5963C50.55 40.7259 52.3353 37.8504 52.2903 34.0447C52.2753 32.6844 52.0203 31.1942 51.5352 29.5589C52.0603 30.5891 52.5353 31.6443 52.9004 32.6795C53.7306 35.0349 53.8656 36.9452 53.3105 38.5255Z" fill="url(#paint0_linear_755_309)"/>
</g>
<defs>
<linearGradient id="paint0_linear_755_309" x1="16.1837" y1="51.2179" x2="43.0436" y2="4.68929" gradientUnits="userSpaceOnUse">
<stop offset="0.17" stop-color="#AC45FF"/>
<stop offset="0.25" stop-color="#5E24BD"/>
<stop offset="0.46" stop-color="#3D67B4"/>
<stop offset="0.64" stop-color="#239DAD"/>
<stop offset="0.8" stop-color="#0FC3A9"/>
<stop offset="0.92" stop-color="#04DBA6"/>
<stop offset="1" stop-color="#00E4A5"/>
</linearGradient>
<clipPath id="clip0_755_309">
<rect width="268" height="120" fill="white"/>
</clipPath>
</defs>
</svg>
