<svg xmlns="http://www.w3.org/2000/svg" viewBox="0 0 221.46 156.7"><defs><style>.cls-1{fill:#0055b8;}</style></defs><title>logo</title><g id="Layer_2" data-name="Layer 2"><g id="Layer_1-2" data-name="Layer 1"><polygon class="cls-1" points="38.77 149.82 46.33 149.82 46.33 147.28 38.77 147.28 38.77 143.95 46.89 143.95 46.89 141.4 35.73 141.4 35.73 156.45 47.18 156.45 47.18 153.91 38.77 153.91 38.77 149.82"/><rect class="cls-1" x="49.15" y="141.4" width="2.88" height="15.05"/><path class="cls-1" d="M69.35,141.63a17.66,17.66,0,0,0-3.61-.23H60.86v15.05h3v-5.68h2a17.37,17.37,0,0,0,3.15-.22,4.43,4.43,0,0,0,1.57-.71,4.14,4.14,0,0,0,1.28-1.49,4.89,4.89,0,0,0,.5-2.33,4.67,4.67,0,0,0-.87-2.93A3.94,3.94,0,0,0,69.35,141.63Zm-.43,5.62a2,2,0,0,1-1,.74,7.85,7.85,0,0,1-2.4.24H63.9v-4.27h1.47a14.56,14.56,0,0,1,2.19.1,2.1,2.1,0,0,1,1.22.67,1.94,1.94,0,0,1,.48,1.36A2,2,0,0,1,68.91,147.24Z"/><path class="cls-1" d="M83.1,152.87l0-3.37a6,6,0,0,0-.39-2.58,2.87,2.87,0,0,0-1.33-1.16,6.91,6.91,0,0,0-2.88-.46,5.58,5.58,0,0,0-3.2.76,4.08,4.08,0,0,0-1.52,2.34l2.62.47a2.09,2.09,0,0,1,.7-1.06,2.05,2.05,0,0,1,1.2-.3,2.47,2.47,0,0,1,1.55.35A1.5,1.5,0,0,1,80.3,149v.29a15.87,15.87,0,0,1-2.8.71,9.74,9.74,0,0,0-2.3.67A2.88,2.88,0,0,0,74,151.83a3.1,3.1,0,0,0-.44,1.65,3,3,0,0,0,1,2.31,3.72,3.72,0,0,0,2.65.91,4.55,4.55,0,0,0,1.8-.36,5.26,5.26,0,0,0,1.58-1.08c0,.06.06.17.1.34.11.38.2.66.28.85h2.86a6.19,6.19,0,0,1-.52-1.46A11.48,11.48,0,0,1,83.1,152.87Zm-2.8-1.08a5.67,5.67,0,0,1-.11,1.41,1.79,1.79,0,0,1-.69,1,2.51,2.51,0,0,1-1.49.51,1.57,1.57,0,0,1-1.15-.44,1.41,1.41,0,0,1-.45-1,1.21,1.21,0,0,1,.56-1,5.48,5.48,0,0,1,1.57-.5,17.91,17.91,0,0,0,1.76-.44Z"/><path class="cls-1" d="M90.44,149.61a10.71,10.71,0,0,1-2.7-.81.63.63,0,0,1-.29-.52.69.69,0,0,1,.33-.59,3.12,3.12,0,0,1,1.63-.32,2.4,2.4,0,0,1,1.39.34,1.66,1.66,0,0,1,.66,1l2.72-.5A3.72,3.72,0,0,0,92.7,146a6.09,6.09,0,0,0-3.33-.73,5.22,5.22,0,0,0-3.47,1,3,3,0,0,0-1.12,2.38,2.81,2.81,0,0,0,1.29,2.46,15.53,15.53,0,0,0,4.43,1.41,2.29,2.29,0,0,1,1,.38.76.76,0,0,1,.21.55.91.91,0,0,1-.38.77,2.83,2.83,0,0,1-1.68.41,2.52,2.52,0,0,1-1.58-.44,2.12,2.12,0,0,1-.75-1.28l-2.9.44a4.15,4.15,0,0,0,1.7,2.45,6.09,6.09,0,0,0,3.53.9,5.54,5.54,0,0,0,3.71-1.08A3.29,3.29,0,0,0,94.56,153a2.67,2.67,0,0,0-.9-2.14A8,8,0,0,0,90.44,149.61Z"/><path class="cls-1" d="M101.46,145.3a6,6,0,0,0-2.9.71,4.87,4.87,0,0,0-2,2.05,5.94,5.94,0,0,0-.71,2.78,6.65,6.65,0,0,0,.71,3.19,4.66,4.66,0,0,0,2.07,2,6.33,6.33,0,0,0,2.86.68,5.39,5.39,0,0,0,4-1.63,5.63,5.63,0,0,0,1.59-4.1,5.55,5.55,0,0,0-1.58-4.06A5.44,5.44,0,0,0,101.46,145.3Zm1.9,8.18a2.52,2.52,0,0,1-3.79,0,4.39,4.39,0,0,1,0-5,2.52,2.52,0,0,1,3.79,0,3.59,3.59,0,0,1,.77,2.46A3.65,3.65,0,0,1,103.36,153.48Z"/><polygon class="cls-1" points="118.26 149.82 125.81 149.82 125.81 147.28 118.26 147.28 118.26 143.95 126.38 143.95 126.38 141.4 115.22 141.4 115.22 156.45 126.67 156.45 126.67 153.91 118.26 153.91 118.26 149.82"/><rect class="cls-1" x="128.64" y="141.4" width="2.88" height="15.05"/><path class="cls-1" d="M141.9,146.91a4.84,4.84,0,0,0-3.84-1.61,4.66,4.66,0,0,0-3.58,1.54,6,6,0,0,0-1.42,4.25,6.25,6.25,0,0,0,1.08,3.76,4.88,4.88,0,0,0,4.21,1.86,5.12,5.12,0,0,0,3-.83,4.71,4.71,0,0,0,1.75-2.41l-2.88-.48a2.28,2.28,0,0,1-.7,1.19,1.77,1.77,0,0,1-1.14.37,2.19,2.19,0,0,1-1.67-.72,2.91,2.91,0,0,1-.7-2h7.23A7.14,7.14,0,0,0,141.9,146.91Zm-5.83,3.16a2.66,2.66,0,0,1,.61-1.87,2.08,2.08,0,0,1,3.06,0,2.79,2.79,0,0,1,.64,1.91Z"/><path class="cls-1" d="M151.09,153.88a1.94,1.94,0,0,1-1.35.47,2.14,2.14,0,0,1-1.75-.8,4.41,4.41,0,0,1-.65-2.74,3.83,3.83,0,0,1,.64-2.49,2.16,2.16,0,0,1,1.72-.74A2,2,0,0,1,151,148a2.05,2.05,0,0,1,.65,1.28l2.85-.51a4.78,4.78,0,0,0-1.69-2.62,5.28,5.28,0,0,0-3.17-.86,5.06,5.06,0,0,0-3.86,1.51,6.88,6.88,0,0,0,0,8.38,5,5,0,0,0,3.81,1.51,5.23,5.23,0,0,0,3.36-1,5,5,0,0,0,1.7-2.95l-2.84-.48A2.8,2.8,0,0,1,151.09,153.88Z"/><path class="cls-1" d="M160,154.31a.82.82,0,0,1-.49-.14.64.64,0,0,1-.26-.36,10.69,10.69,0,0,1-.06-1.56v-4.4h2v-2.3h-2V141.7l-2.89,1.68v2.17h-1.33v2.3h1.33v4.75a14.35,14.35,0,0,0,.09,2,2.68,2.68,0,0,0,.41,1.13,2.07,2.07,0,0,0,.92.68,3.66,3.66,0,0,0,1.41.26,5.75,5.75,0,0,0,2.28-.43l-.25-2.24A3.83,3.83,0,0,1,160,154.31Z"/><path class="cls-1" d="M166.33,145.65a4.67,4.67,0,0,0-1.24,1.45v-1.55h-2.68v10.9h2.88v-3.37a17.14,17.14,0,0,1,.24-3.66,2.25,2.25,0,0,1,.66-1.21,1.58,1.58,0,0,1,1-.33,2.54,2.54,0,0,1,1.35.47l.89-2.51a3.64,3.64,0,0,0-1.9-.55A2.29,2.29,0,0,0,166.33,145.65Z"/><rect class="cls-1" x="170.14" y="145.55" width="2.88" height="10.9"/><rect class="cls-1" x="170.14" y="141.4" width="2.88" height="2.67"/><path class="cls-1" d="M181.48,153.88a1.94,1.94,0,0,1-1.35.47,2.14,2.14,0,0,1-1.75-.8,4.4,4.4,0,0,1-.65-2.74,3.83,3.83,0,0,1,.64-2.49,2.16,2.16,0,0,1,1.72-.74,2,2,0,0,1,1.32.43,2.05,2.05,0,0,1,.65,1.28l2.85-.51a4.78,4.78,0,0,0-1.69-2.62,5.28,5.28,0,0,0-3.17-.86,5.06,5.06,0,0,0-3.86,1.51,6.88,6.88,0,0,0,0,8.38A5,5,0,0,0,180,156.7a5.23,5.23,0,0,0,3.36-1,5,5,0,0,0,1.7-2.95l-2.84-.48A2.8,2.8,0,0,1,181.48,153.88Z"/><path class="cls-1" d="M201.62,79.54c-1,4.68-2.32,9.49-3.34,14.17-12.36,9.13-6.1,2.92-3.48-12.43,1.55-5.77-4.14-6.25-4.81-2l-2.21,8.56c-.24.23-5.16,5.58-7.07,6.9-4,2.79,13.47-31.64-9.64-13.45l.07-.74c1.57-4.13-3-4.5-4.28-2.61-1.65,3.93-1.3,6.74-3.21,11.63l-8.15,7s-.49.5-.74.41,0-.5,0-.5l2.35-8.89c1.54-4.48-3.46-4.84-4.28-1.34-1.32,5.92-2,9.25-5.61,12.62-1.39,1.3-2.59,2.08-3.95,2.08-9.46,0,2-16.73,7.69-18.31,3.34-1,6.16.27,6.86-2a4,4,0,0,0-.19-2.24,2.23,2.23,0,0,0-1.91-1.64,12.64,12.64,0,0,0-4.36.27c-5.94,1.55-10.48,6.08-13.24,10.54-3.58,4.38-7.55,18.88,2.66,18.68a10.31,10.31,0,0,0,6.67-2.59c.2-.17,1-.88,1-.25.06,1.81-.22,3.15,1.87,3a2.6,2.6,0,0,0,1.46-.67l7.87-6.4c2.41-1.69,1.45.32.9,2.72a10.62,10.62,0,0,0-.42,2.86c.2,2.25,4.58,2.38,5.4.17,1.5-5.46,2.61-10.89,3.74-16.44,1.6-1.05,2.13-1.33,3.61-2.3,1-.68,1.62-1,2.29-.84s.56,1.39.37,2.41l-2.79,13.42c-1,4.11-.12,6.72,4.68,3.61l7.49-6.68c.29,2.48-2.67,8.25,1,8.28a5.69,5.69,0,0,0,2.29-.64l6.05-3.63c1.23-.8,2-.9,1.79-.16-.5,2.29-2.58,9.88-4.19,16.51a2.66,2.66,0,0,1-3.08,2H117c-3-.44-3.09,4.63-.13,4.68H193.2c2.32.06,2.28-.77,3.21-3.21,3.39-13.88,8.1-28.56,10.83-42.65C207.66,75,201.91,75.41,201.62,79.54Z"/><path class="cls-1" d="M5.72,30.81c.48-1.06-.8-2.08-2-.54-.84.39-1.19-.63-.94-1Q8,25.48,13.18,21.62L14,26.92l-.2.17L6.88,33A13.51,13.51,0,0,0,4.39,35.8C-2.71,47,12,57.11,17.41,49.91c2.13-2.83,2.14-5.77,1.59-10.38-.07-.61-1-6.45-1.83-11.71l1.93-1.51,2.47,13.92s.24,1.36,1.41,1.22,1.11-1.06,1-1.61L21.46,24.44l1.69-1.33c2.29-1.62,3-2,2.87.6C25.89,32,27.18,38.8,35.13,27.2c4.07,1.49,9.05-4.93,8.15-9.51-.32-1.62-1.16-1.51-1.77-1.1-.33.22-.46.93-.55,1.38-.38,1.81-1.37,5.54-3.27,6.06-.33.09-1.1.13-1,0,.37-.67,1.18-2.6,1.59-3.29a11.32,11.32,0,0,0,1.48-6.23c-2-10.35-13.21.8-7.1,10.52L31,27.67c-1.27,1.5-2.25,1.45-2.14.4-.07-3.6.82-9.4-2.77-9.53a4.3,4.3,0,0,0-2.54.77l-2.57,2-.79-4.91,4.59-3.44a29,29,0,0,1-.11,4c0,1.66,2.68,1.73,2.93-.53-.18-2.17-.15-3.82-.35-5.33C31.1,8.16,35,5.26,38.93,2.4c.26-.22.32-.27.4-.44A1.31,1.31,0,0,0,39.27.5,1.66,1.66,0,0,0,37.66.06a3.62,3.62,0,0,0-1.2.74L26.4,8.17a12.55,12.55,0,0,0-1.64-2.56C19.68,1.75,15.37,7,16.47,12.29L17,15.06,3.3,25.13,1.49,26.6C-3,31.07,3.76,35.17,5.72,30.81Zm29.64-16.2c.79-1.06,2-.17,1.6,1.34A26.47,26.47,0,0,1,34.29,22C32.89,20,34.29,16.06,35.37,14.62ZM23.9,10l-4.27,3.13-.29-1.78C19.11,7.48,22.52,7.48,23.9,10Zm-6.24,8.24v.06l.87,4.9-1.87,1.52-.82-5.13Zm-3.2,11.68h0l0,0,1,6.52c.32,2.82,2,8.13-.61,11.35C11.23,53,2.45,44.11,6.57,37.65,8.11,35.23,11,33,14.42,30h0Z"/><path class="cls-1" d="M219.21,8.51,73,8.58c-1.2-4.92-9.18-6-16.16-4a18.14,18.14,0,0,0-8.45,5.11,18.88,18.88,0,0,0-4.72,11.93c-.09,4.91,3.06,8.73,5.41,9.52a8,8,0,0,0-.89.34C40.64,35.15,36.72,41,35.65,47.23A32.93,32.93,0,0,0,10.43,58C2.1,67.24-.94,81.56,4.14,94.81,10.55,111.53,32,121.26,51.51,111.5c2.17-1.08.61-6.42-3.5-4.7-3.6,1.51-7.43,2.66-10,2.69-44.76.45-36.71-59-2.5-56.54,1.74,17.31,24,32.33,49.52,2.62-1.9,7.37-9.87,24.88,9.36,11.36,3.77,7,9.06,5.8,16.84,1.47,2.1-1,4.49-2.68,7.09-2.94,2,9.95,16.1,7,21.66.67a8.42,8.42,0,0,0-.3,5.1C143,78.78,159.54,58.6,161.19,55l1.47.27-.93,1.87c-6.24,13-3.78,23.44,13,9-3.13,10,7.47,6.26,12.17.67,8.24,14.06,28.16-3.14,24.29-7.11a2.48,2.48,0,0,0-3.37,0c-22.08,19.35-20-5.9-4.74-12.14a7.15,7.15,0,0,1,3.28-.39,4.33,4.33,0,0,0,1.6.06c5.69-2,2.1-6.92-3.82-5.56-10.23,1.81-15,10-16.71,15.78l-.67,2.67c-3.14,2.86-4.53,3.79-6.55,4.28,1.57-4.94,3.21-10.74,4.54-15.71,2.75-5-3.34-6.36-4.61-2.74-1.9,9.09-2.5,11.79-12,19-8.13,4.78-2.31-5.93-1.87-7.62,5.19-.18,6.92-.73,7.79-4a5.43,5.43,0,0,0-.08-2.91c-1.56-5.77-7.67-4.18-9.18.92l-1.74-1.6c4.53-5.79-4.78-8.79-4.75-2.94C158.94,52,152.51,59,147,63.92c-.48.44-.77.65-1,.26-.33-.55-.12-1.26.06-2.05,3.32-10.29,6-20.87,8.29-31.28h60.29c2.93,0,2.53-4.53.13-4.81h-59l1.07-4.55c.23-3.18-5.07-4-5.75-.4L150.09,26h-35c-2.91.34-2.8,4.77,0,4.68h34.09c-2.32,8.87-2.92,19.36-9.36,27.41-17.94,20.13-24.09-2.51-6-10.15a11.86,11.86,0,0,1,2.36-.3c4.65-.33,7.56-2.8,4.61-5.3a4.61,4.61,0,0,0-2.38-.9c-11.44-.39-16.94,8.34-19.15,14.51l-.94,2.14c-4.28,2.41-8.16,4.41-12.43,6.82-3.62.86-4.61,1.2-5.41-1.6,2.45-1.71,12-6.85,14.7-9.06a11.55,11.55,0,0,0,2.81-3.33c2.85-5.13,1.92-11.59-8-9.53-5.3,1.76-8.44,4.07-10.64,7-1.9,2.52-3.47,5.77-4.7,11.08l-.3,1.43C93.08,61.72,91.25,63,90,63c-3.59-.11,2.12-13.94,3-18.17,1.89-6.57,4.7-13,6.43-19.57a8.9,8.9,0,0,0,.16-2.47A3.49,3.49,0,0,0,97,20.2a3.94,3.94,0,0,0-3.53,1.85,12.16,12.16,0,0,0-.89,2.68,123.36,123.36,0,0,1-3,13.19C72,76.78,43.45,69.74,41,53.85a46.93,46.93,0,0,1,13,5.7c3.15,1.93,6.63.39,5-3.18A6.62,6.62,0,0,0,57,54.13a42.33,42.33,0,0,0-15.65-6.34c.95-3.79,3.32-7.78,7.51-11.6,0,0,2.9-2.14,4.41-2.14H64.87c2.91-.33,2.39-6-.07-5.62H56c-8.88-2.18-8.9-11.95-1.2-16.84C60,8.21,67,7.19,68.58,13.64H219.12C222.3,13.53,222.14,8.69,219.21,8.51ZM101.76,54c8.1-11.85,18.3-7.58,5.48-1.07l-5.08,3.14C100.25,56.93,100.87,55.54,101.76,54Z"/><circle class="cls-1" cx="184.91" cy="37.69" r="2.41"/><path class="cls-1" d="M124.66,97.59c-1.74,1.37-6.08,3.6-6.78,5.09-1.34,2.84,2.33,4.6,3.93,4.13,4.71-3.17,7.3-5.09,10.69-9.62,4.84-6.29,4.75-27.25-11.9-17.78-1.34.4-1,.27-.75-.88a2.05,2.05,0,0,0-1.77-2.29,2.26,2.26,0,0,0-2.64,1.41c-.93,2.9-1.76,6.11-2.6,9-3.71,4-5.9,6.83-7.41,6.85-.5,0-.51-.53-.37-1.05.91-3.42,1.53-5.66,2.57-9.27.79-5.08-1.39-6.4-4.05-5.68-1.6.44-3,1.87-5,3C95.7,82,97.91,78.06,94.94,77c-3.46-.83-7.41,4.6-8.82,3.21.82-2,.41-3.63-1.41-3.68a3.39,3.39,0,0,0-3.44,3.14,18.42,18.42,0,0,1-.5,2.26,6,6,0,0,1-1.54,2.91c-1.82,1.68-3.1,1.9-6.34,1.65-1.41-13.52-13-11-19.65-3.08-14.1,20.08,9.17,35.91,19,9.89A15.63,15.63,0,0,0,78,91.7C76.9,96.4,76.34,99.24,75,103.87c-.23,2.73,4.22,3.72,5.21.67l4-15.78c1-.71,6.36-4.84,6.28-3.34L85.85,102.8c-.8,3.87,3.34,4.93,5.35,2.41l4.28-17c2.77-1.74,6.57-4.8,6.22-3L97,102.87c-.68,3.61,2.28,4.36,3.88,3.14l7.69-7.09c1-1.1,1-.28.52,2.2-1,4.87-3.89,14.44-4.39,16.65-1,2.55-2,2.5-4.28,2.81H43.74c-3.46.59-2.79,5,.67,4.68h62.83c.58-.11.82-.09,1.47-1.07l9.36-36.1C131,74.48,132.44,91.47,124.66,97.59ZM67.4,93.71c-13.23,21.44-21.19-5.27-3.48-11.36,1,2.66.16,3.56,4.41,8.69Z"/><path class="cls-1" d="M34.31,124.28a3.14,3.14,0,0,0-.72-.56,2.12,2.12,0,0,0,1.32-.62,1.79,1.79,0,0,0,.44-1.25,1.93,1.93,0,0,0-.29-1.05,1.54,1.54,0,0,0-.78-.64,4.86,4.86,0,0,0-1.56-.18H29.88v6.69h1.35v-2.79h.27a2.25,2.25,0,0,1,.68.08,1,1,0,0,1,.41.28,9.49,9.49,0,0,1,.71,1l1,1.46H35.9l-.82-1.3A7.59,7.59,0,0,0,34.31,124.28Zm-2.08-1.47h-1v-1.7h1.05c.55,0,.88,0,1,0a.83.83,0,0,1,.51.26.8.8,0,0,1,.18.55.87.87,0,0,1-.14.5.73.73,0,0,1-.38.28A5.21,5.21,0,0,1,32.24,122.81Z"/><path class="cls-1" d="M38.2,123.46a5.46,5.46,0,1,0-5.46,5.46A5.46,5.46,0,0,0,38.2,123.46Zm-5.46,4.71a4.71,4.71,0,1,1,4.71-4.71A4.71,4.71,0,0,1,32.75,128.17Z"/></g></g></svg>