<?xml version="1.0" encoding="UTF-8"?>
<svg width="576px" height="144px" viewBox="0 0 576 144" version="1.1" xmlns="http://www.w3.org/2000/svg" xmlns:xlink="http://www.w3.org/1999/xlink">
    <title>horizLogo</title>
    <defs>
        <linearGradient x1="76.6452875%" y1="106.733429%" x2="28.7462587%" y2="3.49216114%" id="linearGradient-1">
            <stop stop-color="#8026FF" offset="25%"></stop>
            <stop stop-color="#FF1A58" offset="75%"></stop>
        </linearGradient>
    </defs>
    <g id="Page-1" stroke="none" stroke-width="1" fill="none" fill-rule="evenodd">
        <g id="horizLogo" transform="translate(0.000000, 0.009657)" fill-rule="nonzero">
            <path d="M443.21,58.1603428 L443.21,68.9903428 C441.026149,67.94445 438.631242,67.4141493 436.21,67.4403428 C431.85,67.4403428 419.44,69.3403428 419.44,94.5903428 L419.44,116.990343 L407.94,116.990343 L407.94,58.3903428 L419.44,58.3903428 L419.44,67.4403428 C421.97,60.8103428 428.95,56.8503428 437.14,56.8503428 C439.229113,56.889485 441.29069,57.3344054 443.21,58.1603428 L443.21,58.1603428 Z M323.54,104.340343 L328.79,113.430343 C324.609174,116.26424 319.680692,117.792209 314.63,117.820343 C302.63,117.820343 296.75,111.270343 296.75,97.6803428 L296.75,68.6803428 L288,68.6803428 L288,58.4003428 L296.71,58.4003428 L296.71,39.9903428 L308.13,39.9903428 L308.13,58.3903428 L326.74,58.3903428 L326.74,68.7003428 L308.17,68.7003428 L308.17,98.0303428 C308.17,104.340343 312.61,106.710343 316.29,106.710343 C319.21,106.720343 322,105.180343 323.54,104.340343 Z M212.86,91.8303428 L161.86,91.8303428 C163.52,102.260343 171.35,108.070343 181.54,108.070343 C189.13,108.070343 194.46,105.700343 197.9,100.600343 L210.35,100.600343 C205.85,111.510343 195.18,118.500343 181.54,118.500343 C163.05,118.500343 150.01,105.500343 150.01,87.6803428 C150.01,69.8603428 163.01,56.8503428 181.54,56.8503428 C200.07,56.8503428 212.84,69.8503428 212.84,87.6803428 L212.86,91.8303428 Z M201,81.7503428 C198.75,72.3803428 191.05,67.2903428 181.56,67.2903428 C171.84,67.2903428 164.49,72.5003428 162.24,81.7503428 L201,81.7503428 Z M397,91.8303428 L346,91.8303428 C347.66,102.260343 355.49,108.070343 365.68,108.070343 C373.27,108.070343 378.6,105.700343 382.04,100.600343 L394.49,100.600343 C389.98,111.510343 379.31,118.500343 365.68,118.500343 C347.19,118.500343 334.15,105.500343 334.15,87.6803428 C334.15,69.8603428 347.15,56.8503428 365.68,56.8503428 C384.21,56.8503428 396.98,69.8503428 396.98,87.6803428 L397,91.8303428 Z M385.14,81.7503428 C382.89,72.3803428 375.19,67.2903428 365.7,67.2903428 C355.98,67.2903428 348.63,72.5003428 346.38,81.7503428 L385.14,81.7503428 Z M508.54,88.1503428 L508.54,112.690343 C508.54,135.210343 494.78,143.990343 477.47,143.990343 C463.13,143.990343 451.87,137.940343 447.83,124.420343 L459.33,124.420343 C462.06,131.180343 468.94,134.150343 477.47,134.150343 C489.47,134.150343 497.39,128.460343 497.39,113.150343 L497.39,105.920343 C493.39,113.510343 485.18,118.020343 475.34,118.020343 C460.16,118.020343 445.7,107.590343 445.7,87.6703428 C445.7,69.8803428 458.7,56.8403428 477.24,56.8403428 C495.78,56.8403428 508.49,69.3003428 508.49,88.1503428 L508.54,88.1503428 Z M497.39,87.6803428 C497.39,75.8203428 489.33,67.2903428 477.24,67.2903428 C465.15,67.2903428 457,75.8203428 457,87.6803428 C457,99.5403428 465.06,107.480343 477.16,107.480343 C489.26,107.480343 497.34,99.5303428 497.34,87.6803428 L497.39,87.6803428 Z M518.71,124.420343 L529.97,124.420343 C532.7,131.060343 538.51,134.150343 546.97,134.150343 C557.88,134.150343 564.87,128.930343 564.87,115.650343 L564.87,106.770343 C561.1,113.990343 554,117.990343 545.22,117.990343 C530.64,117.990343 518.22,108.860343 518.22,88.3503428 L518.22,58.3503428 L529.48,58.3503428 L529.48,88.3503428 C529.48,101.030343 536.48,107.440343 547.14,107.440343 C557.58,107.440343 564.81,100.800343 564.81,88.3503428 L564.81,58.3503428 L576,58.3503428 L576,115.350343 C576,135.750343 563.08,143.930768 546.84,143.930768 C533.36,143.990343 522.1,137.700343 518.66,124.420343 L518.71,124.420343 Z M234.86,58.4203428 L234.81,67.3203428 C238.49,60.0803428 245.6,56.8803428 254.37,56.8803428 C268.96,56.8803428 281.37,66.4903428 281.37,87.0003428 L281.37,117.000343 L270.09,117.000343 L270.09,86.9903428 C270.09,74.3003428 263.09,67.9003428 252.43,67.9003428 C241.99,67.9003428 234.76,74.5403428 234.76,86.9903428 L234.76,116.990343 L223.5,116.990343 L223.5,58.3903428 L234.86,58.4203428 Z" id="Shape" fill="#231F20"></path>
            <path d="M3.22,65.9903428 C7.36,48.9903428 20.85,39.4403428 38.69,39.4403428 C56.1,39.4403428 70.25,48.8003428 74.38,65.9903428 L3.22,65.9903428 Z M105.22,38.5203428 C95.0100528,20.8238516 78.1856989,7.91046115 58.4510992,2.62326895 C38.7164996,-2.66392325 17.6896641,0.108571645 1.42108547e-14,10.3303428 L9.71,27.1503428 C18.6760705,22.5434556 28.6302113,20.1922189 38.71,20.3003428 C72.66,20.3003428 96.16,44.2403428 96.16,76.8803428 L96.16,84.5003428 L2.57,84.5003428 C5.62,103.650343 19.98,114.310343 38.69,114.310343 C52.62,114.310343 62.41,109.960343 68.69,100.600343 L91.54,100.600343 C86.8570334,112.00133 78.2280851,121.336638 67.23,126.900343 L77,143.760343 C94.6992057,133.550362 107.614545,116.724187 112.901881,96.9871749 C118.189217,77.2501625 115.414946,56.220907 105.19,38.5303428 L105.22,38.5203428 Z" id="Shape" fill="url(#linearGradient-1)"></path>
        </g>
    </g>
</svg>