<svg width="231" height="30" viewBox="0 0 231 30" fill="none" xmlns="http://www.w3.org/2000/svg">
<path fill-rule="evenodd" clip-rule="evenodd" d="M122.51 1C116.957 1 112.34 3.7892 110.003 8H135.003C132.671 3.7892 128.068 1 122.51 1Z" fill="#2CAAE2"/>
<mask id="mask0_755_276" style="mask-type:luminance" maskUnits="userSpaceOnUse" x="110" y="21" width="25" height="7">
<path d="M110.255 21.1963H134.898V27.9997H110.255V21.1963Z" fill="#007749"/>
</mask>
<g mask="url(#mask0_755_276)">
<path fill-rule="evenodd" clip-rule="evenodd" d="M122.583 27.9999C128.023 27.9999 132.546 25.2918 134.898 21.1963H110.254C112.611 25.2957 117.143 27.9999 122.583 27.9999Z" fill="#007749"/>
</g>
<path fill-rule="evenodd" clip-rule="evenodd" d="M136.55 11H109.444C109.154 12.0571 108.997 13.1743 108.997 14.3303C108.997 15.6104 109.181 16.8398 109.518 18H136.477C136.813 16.8398 136.997 15.6104 136.997 14.3303C136.993 13.1744 136.84 12.0614 136.55 11Z" fill="#07B14C"/>
<path fill-rule="evenodd" clip-rule="evenodd" d="M0 1H16.407V5.4842H5.2372V12.156H15.489V16.636H5.2372V23.515H17V28H0V1Z" fill="black"/>
<path fill-rule="evenodd" clip-rule="evenodd" d="M18 1H23.6822L29.4386 18.216C29.9531 19.7907 30.4722 22.2448 30.4722 22.2448H30.551C30.551 22.2448 31.0655 19.7948 31.5846 18.216L37.4152 1H43.0001L33.2068 28H27.8305L18 1Z" fill="black"/>
<path fill-rule="evenodd" clip-rule="evenodd" d="M46 1H62.407V5.4842H51.237V12.156H61.8V16.636H51.237V23.515H63V28H46V1Z" fill="black"/>
<path fill-rule="evenodd" clip-rule="evenodd" d="M66 1H74.9553C77.788 1 79.0573 1.2118 80.1773 1.62573C83.122 2.72663 85.012 5.46573 85.012 9.20453C85.012 12.359 83.3553 15.379 80.5087 16.5397V16.618C80.5087 16.618 80.8541 17.0365 81.4327 18.0454L87 28H81.0873L75.772 18.0822H71.2873V28H66.0093V1L66 1ZM71.278 5.4842V13.5971H75.478C78.04 13.5971 79.636 12.0781 79.636 9.49C79.636 7.8278 79.09 6.6265 77.802 5.9957C77.1254 5.66419 76.2527 5.48415 74.61 5.48415L71.278 5.4842Z" fill="black"/>
<mask id="mask1_755_276" style="mask-type:luminance" maskUnits="userSpaceOnUse" x="88" y="0" width="19" height="28">
<path d="M88.3615 0.178711H106.93V27.9996H88.3615V0.178711Z" fill="white"/>
</mask>
<g mask="url(#mask1_755_276)">
<path fill-rule="evenodd" clip-rule="evenodd" d="M91.1975 20.3705C91.1975 20.3705 94.1819 23.2114 97.9077 23.2114C99.8587 23.2114 101.675 22.2479 101.675 20.164C101.675 15.656 88.9773 16.3358 88.9773 8.06001C88.9773 3.47401 92.9163 0.178711 98.1761 0.178711C103.626 0.178711 106.397 3.05631 106.397 3.05631L104.122 7.31641C104.122 7.31641 101.499 4.96581 98.1344 4.96581C96.012 4.96581 94.2324 6.15971 94.2324 7.97741C94.2324 12.4482 106.93 11.4063 106.93 20.0264C106.93 24.3457 103.585 27.9995 97.8289 27.9995C91.7489 27.9995 88.3613 24.304 88.3613 24.304L91.1975 20.3705Z" fill="black"/>
</g>
<mask id="mask2_755_276" style="mask-type:luminance" maskUnits="userSpaceOnUse" x="139" y="1" width="23" height="28">
<path d="M139.216 1.17285H161.568V29H139.216V1.17285Z" fill="white"/>
</mask>
<g mask="url(#mask2_755_276)">
<path fill-rule="evenodd" clip-rule="evenodd" d="M139.216 1.17315H144.525V18.6592C144.525 22.1825 146.829 24.1659 150.373 24.1659C153.936 24.1659 156.264 22.1826 156.264 18.6219V1.17285H161.568V18.6589C161.568 24.7816 157.095 28.9999 150.411 28.9999C143.69 28.9999 139.216 24.7812 139.216 18.6589L139.216 1.17315Z" fill="black"/>
</g>
<path fill-rule="evenodd" clip-rule="evenodd" d="M165 1H173.957C176.791 1 178.06 1.2118 179.181 1.62573C182.126 2.72663 184.016 5.46573 184.016 9.20453C184.016 12.359 182.359 15.379 179.508 16.5397V16.618C179.508 16.618 179.853 17.0365 180.432 18.0454L186 28H180.086L174.77 18.0822H170.279V28H165.005V1L165 1ZM170.275 5.4842V13.5971H174.476C177.038 13.5971 178.635 12.0781 178.635 9.49C178.635 7.8278 178.088 6.6265 176.8 5.9957C176.123 5.66419 175.251 5.48415 173.607 5.48415L170.275 5.4842Z" fill="black"/>
<mask id="mask3_755_276" style="mask-type:luminance" maskUnits="userSpaceOnUse" x="186" y="0" width="25" height="29">
<path d="M186.046 0.177734H210.843V28.5319H186.046V0.177734Z" fill="white"/>
</mask>
<g mask="url(#mask3_755_276)">
<path fill-rule="evenodd" clip-rule="evenodd" d="M200.065 0.178134C206.695 0.178134 210.097 3.92473 210.097 3.92473L207.616 7.90053C207.616 7.90053 204.518 5.00473 200.296 5.00473C194.662 5.00473 191.449 9.27053 191.449 14.1542C191.449 19.1118 194.791 23.6915 200.315 23.6915C204.921 23.6915 208.111 20.2162 208.111 20.2162L210.842 24.0564C210.842 24.0564 207.06 28.5327 200.106 28.5327C191.773 28.5327 186.046 22.3351 186.046 14.2477C186.042 6.27743 192.037 0.178134 200.065 0.178134Z" fill="black"/>
</g>
<path fill-rule="evenodd" clip-rule="evenodd" d="M214 1H230.41V5.4842H219.24V12.156H229.49V16.636H219.24V23.515H231V28H214V1Z" fill="black"/>
</svg>
