<?xml version="1.0" encoding="utf-8"?>
<svg id="idaho-power-logo" version="1.1" xmlns="http://www.w3.org/2000/svg" xmlns:xlink="http://www.w3.org/1999/xlink" x="0px" y="0px"
	 viewBox="0 0 202.6 75.1" xml:space="preserve" data-color="">
<style type="text/css">
	.sky,
	[data-color="preferred"] .sky,
	.water,
	[data-color="preferred"] .water,
	.idaho-power *,
	[data-color="preferred"] .idaho-power *,
	.an-idacorp-company *,
	[data-color="preferred"] .an-idacorp-company *,
	.registered,
	[data-color="preferred"] .registered {
		fill:#00818c
	}
	.mountain-dam,
	[data-color="preferred"] .mountain-dam {
		fill:#ffffff
	}
	.trees,
	[data-color="preferred"] .trees {
		fill:#00b259
	}


	[data-color="two-tone-teal"] .sky,
	[data-color="two-tone-teal"] .water,
	[data-color="two-tone-teal"] .idaho-power *,
	[data-color="two-tone-teal"] .an-idacorp-company *,
	[data-color="two-tone-teal"] .registered {
		fill:#00818c
	}
	[data-color="two-tone-teal"] .trees {
		fill:#3cc7cd
	}
	[data-color="two-tone-teal"] .mountain-dam {
		display:none
	}


	[data-color="two-tone-black"] .sky,
	[data-color="two-tone-black"] .water,
	[data-color="two-tone-black"] .idaho-power *,
	[data-color="two-tone-black"] .an-idacorp-company *,
	[data-color="two-tone-black"] .registered {
		fill:#000000
	}
	[data-color="two-tone-black"] .trees {
		fill:#9b9b9b
	}
	[data-color="two-tone-black"] .mountain-dam {
		display:none
	}


	[data-color="white"] .sky,
	[data-color="white"] .water,
	[data-color="white"] .trees,
	[data-color="white"] .idaho-power *,
	[data-color="white"] .an-idacorp-company *,
	[data-color="white"] .registered {
		fill:#ffffff
	}
	[data-color="white"] .mountain-dam {
		display:none
	}


	[data-color="black"] .sky,
	[data-color="black"] .water,
	[data-color="black"] .trees,
	[data-color="black"] .idaho-power *,
	[data-color="black"] .an-idacorp-company *,
	[data-color="black"] .registered {
		fill:#000000
	}
	[data-color="black"] .mountain-dam {
		display:none
	}


	[data-color="teal"] .sky,
	[data-color="teal"] .water,
	[data-color="teal"] .trees,
	[data-color="teal"] .idaho-power *,
	[data-color="teal"] .an-idacorp-company *,
	[data-color="teal"] .registered {
		fill:#00818c
	}
	[data-color="teal"] .mountain-dam {
		display:none
	}

</style>
<g>
	<path class="mountain-dam" d="M77.3,48.7L77.3,48.7c-0.3,3-2.8,5.4-5.9,5.4H5.9c-3.2,0-5.9-2.6-5.9-5.9V28.2V17.4V6c0-3.2,2.6-5.9,5.9-5.9
		h65.5c3.2,0,5.9,2.6,5.9,5.9v17V48.7z"/>
	<path class="trees" d="M71.7,21.8l5.6,3.4v20.8H59.4c-6.9,0-23.7-20.9-30.7-20.9H0v-3.5l1.3-0.5c0.6-0.2,0.5-0.2,1,0l1,0.4
		C4,22,4.1,22,4.9,21.7L14,18c0.7-0.4,0.7-0.2,1,0l1.2,0.9c0.2,0.2,0.3,0.2,0.6,0l1.1-0.7c0.3-0.2,0.3-0.2,0.6,0l1.1,0.7
		c0.3,0.2,0.4,0.1,0.7-0.1l1.6-1.5c0.3-0.4,0.4-0.3,1.2-0.3c0.4,0,0.4-0.1,0.7-0.4l3.5-3c0.6-0.5,0.7-0.5,1-0.1l0.8,1.3
		c0.3,0.4,0.5,0.3,1.4-0.2l2.7-1.7c0.4-0.3,0.4-0.2,0.6,0c0.5,0.5,0.5,0.7,1.2,0.3l0.6-0.4c0.2-0.2,0.3,0,0.3,0l3.2,3.6
		c0.2,0.2,0.2,0.2,0.5,0l0.4-0.3c0.3-0.3,0.4-0.2,0.6,0l5.8,4.7c0.3,0.2,0.6,0.2,1-0.6l2.3-4.9c0.4-0.7,0.6-0.6,1.3,0.1L57,21
		c0.4,0.3,0.7,0.5,1,0.3l0.8-0.8c0.1-0.2,0.3-0.2,0.4,0l1.4,0.9c0.5,0.3,0.5,0.2,0.9,0.1l0.5-0.5c0.3-0.3,0.3-0.2,0.7,0.1l1.1,0.7
		c0.3,0.2,0.4,0.2,0.6-0.1l2-1.9c0.1-0.2,0.5-0.3,1,0.1l2.6,1.8c0.1,0.1,0.3,0.1,0.5,0.1C71.3,21.6,71.1,21.4,71.7,21.8"/>
	<path class="sky" d="M64.7,15.9L77.3,23V6c0-3.2-2.6-5.9-5.9-5.9H5.9C2.6,0.1,0,2.8,0,6v11.4l3.2-1.3c0.9-0.4,1.1-0.4,2-0.1
		l0.7,0.2c1.1,0.4,0.9,0.4,2.2,0l10.2-4.1c1.8-0.8,1.5-0.8,2.6-0.4l0.3,0.1c0.9,0.4,0.8,0.6,2.5-0.7l10.3-8.4
		c2.7-2.1,2-2.1,4.9-0.1l8.5,6.5c0.9,0.7,0.8,0.6,1.3,0.5c0.7-0.3,0.3-0.3,1,0.2l9.8,7.2c1.2,0.8,1.2,0.8,2.3,0l1.9-1.2
		C64.2,15.5,64.2,15.5,64.7,15.9"/>
	<path class="water" d="M77.3,48.7c-0.3,3-2.8,5.4-5.9,5.4H5.9c-3.2,0-5.9-2.6-5.9-5.9V28.2h18.9c7.6,0,22.5,20.6,29.7,20.6H77.3z"
		/>
</g>
<g class="idaho-power">
	<rect x="81.9" y="0.6" width="7" height="25.3"/>
	<path d="M97.8,6.8h4.1c4.1,0,4.5,3.6,4.5,6.1c0,2.2-0.7,7-4.8,7h-3.8V6.8z M90.9,26h9.8c8.4,0,12.3-5.6,12.3-13.9
		c0-9-4-11.5-10.1-11.5h-12V26z"/>
	<path d="M123.5,14.7h-4.6l2.4-9.5h0.1L123.5,14.7z M109,26h6.9l1.4-5.5h7.7l1.5,5.5h7.1l-7-25.3h-10.5L109,26z"/>
	<polygon points="132.7,0.6 139.7,0.6 139.7,9.8 146.7,9.8 146.7,0.6 153.8,0.6 153.8,26 146.7,26 146.7,16.2
		139.7,16.2 139.7,26 132.7,26 			"/>
	<path d="M164.5,20.6c-4.2,0-4.9-4.4-4.9-7.7c0-3,0.9-6,4.9-6c4,0,4.9,3,4.9,6C169.4,16.2,168.7,20.6,164.5,20.6
		 M164.5,26.6c8.1,0,11.5-5.8,11.5-13.7C176,3.1,172,0,164.5,0c-7.4,0-11.5,3.1-11.5,12.9C153.1,20.8,156.4,26.6,164.5,26.6"/>
	<path d="M88.7,35h3.6c1.9,0,3.5,0.8,3.5,2.7c0,1.8-1.4,3.1-3.7,3.1h-3.4V35z M81.9,54.1h6.8v-7.7H93
		c5.8,0,9.5-3.7,9.5-9.9c0-6.9-4.4-7.8-9.4-7.8H81.9V54.1z"/>
	<path d="M113.1,48.8c-4.2,0-4.9-4.4-4.9-7.7c0-3,0.9-6,4.9-6c4,0,4.9,3,4.9,6C118,44.4,117.3,48.8,113.1,48.8
		 M113.1,54.7c8.1,0,11.5-5.8,11.5-13.7c0-9.7-4.1-12.9-11.5-12.9c-7.4,0-11.5,3.1-11.5,12.9C101.6,49,105,54.7,113.1,54.7"/>
	<polygon points="154.5,28.8 171.9,28.8 171.9,35 160.9,35 160.9,38.4 171.9,38.4 171.9,44.4 160.9,44.4 160.9,48.1
		171.9,48.1 171.9,54.1 154.5,54.1 			"/>
	<path d="M179.9,34.7h3.5c1.8,0,3.1,0.3,3.1,2.5c0,1.5-1,2.6-2.6,2.6h-4V34.7z M173.1,54.1h6.8v-10h0.1l5.9,10h8.2
		l-7.6-11c3.6,0,6.9-2.6,6.9-7.6c0-6.1-4.4-6.7-8.8-6.7h-11.5V54.1z"/>
	<path d="M121.7,28.8h7c0.6,1.9,2.6,12.7,3.1,20.2c0.8-3.6,1.5-14.6,3-20.2h8c1.6,5.6,2.2,16.6,3,20.2
		c0.5-7.5,2.4-18.3,3.1-20.2h7l-6.3,25.3h-7.8c-0.5-1.8-2.8-16.3-2.8-18.9c0,2.7-2.4,17.2-2.9,18.9H128L121.7,28.8z"/>
</g>
<path class="registered" d="M196.1,50.9c0-1.9,1.5-3.2,3.3-3.2c1.8,0,3.3,1.4,3.3,3.2c0,1.9-1.5,3.2-3.3,3.2
	C197.6,54.2,196.1,52.8,196.1,50.9 M199.4,53.6c1.5,0,2.6-1.1,2.6-2.7c0-1.5-1.2-2.7-2.6-2.7c-1.5,0-2.6,1.2-2.6,2.7
	C196.8,52.5,197.9,53.6,199.4,53.6 M198.7,52.8h-0.6v-3.7h1.4c0.9,0,1.3,0.3,1.3,1.1c0,0.7-0.4,1-1,1l1.1,1.6h-0.6l-1-1.6h-0.6
	V52.8z M199.4,50.7c0.5,0,0.9,0,0.9-0.6c0-0.5-0.4-0.6-0.8-0.6h-0.8v1.2H199.4z"/>
<g class="an-idacorp-company">
	<path d="M86.9,70.2h-2.3l1.2-3.9h0L86.9,70.2z M82.2,73.5h1.3l0.6-2.2h3l0.6,2.2H89l-2.4-7.9h-1.9L82.2,73.5z"/>
	<path d="M89.9,66.9h1.1v1.3h0c0.5-1,1.2-1.5,2.2-1.5c1.5,0,2.1,1.1,2.1,2.1v4.7h-1.2v-4.1c0-0.6-0.2-1.5-1.3-1.5
		c-1.4,0-1.7,1.3-1.7,2.1v3.5h-1.2V66.9z"/>
	<rect x="100" y="65.6" width="1.3" height="7.9"/>
	<path d="M104.3,66.9h1.6c1.6,0,2.1,0.9,2.1,2.5c0,1.6-0.6,3-2.3,3h-1.4V66.9z M103,73.5h2.4c2.7,0,3.8-2,3.8-4.2
		c0-2.8-1.3-3.7-3-3.7H103V73.5z"/>
	<path d="M114.6,70.2h-2.3l1.2-3.9h0L114.6,70.2z M109.9,73.5h1.3l0.6-2.2h3l0.6,2.2h1.3l-2.4-7.9h-1.9L109.9,73.5z"/>
	<path d="M123.3,72.6c-0.8,0.8-1.8,1-2.6,1c-2.5,0-3.3-2.1-3.3-4.3c0-2.1,1-3.9,3.3-3.9c1.3,0,2.1,0.5,2.6,1v1.7l0,0
		c-0.4-0.8-1.2-1.4-2.4-1.4c-1.2,0-2.1,0.9-2.1,2.8c0,1.7,0.7,2.9,2.2,2.9c1.2,0,1.9-0.6,2.5-1.6V72.6z"/>
	<path d="M129.9,69.5c0,1.4-0.4,3-2.1,3c-1.7,0-2.1-1.6-2.1-3c0-1.4,0.4-2.7,2.1-2.7C129.5,66.8,129.9,68.1,129.9,69.5
		 M131.1,69.4c0-2.1-1-3.9-3.3-3.9c-2.3,0-3.3,1.7-3.3,3.9c0,2.2,0.8,4.3,3.3,4.3C130.3,73.7,131.1,71.6,131.1,69.4"/>
	<path d="M134,66.9h1.9c0.7,0,1.2,0.3,1.2,1.1c0,1.1-0.7,1.2-1.6,1.2H134V66.9z M132.6,73.5h1.3v-3.9h0l2.9,3.9h1.6
		l-2.7-3.4h0.4c1.1,0,2.2-0.7,2.2-2.3c0-1.5-0.9-2.2-2.2-2.2h-3.4V73.5z"/>
	<path d="M141,66.9h1.8c0.8,0,1.4,0.4,1.4,1.3c0,1-0.4,1.6-1.4,1.6H141V66.9z M139.6,73.5h1.3v-2.6h1.7
		c2,0,2.8-1.1,2.8-2.8c0-1.7-1-2.5-2.5-2.5h-3.2V73.5z"/>
	<path d="M155.2,72.6c-0.8,0.8-1.8,1-2.5,1c-2.5,0-3.3-2.1-3.3-4.3c0-2.1,1-3.9,3.3-3.9c1.3,0,2.1,0.5,2.5,1v1.7l0,0
		c-0.4-0.8-1.2-1.4-2.4-1.4c-1.2,0-2.1,0.9-2.1,2.8c0,1.7,0.7,2.9,2.1,2.9c1.2,0,1.9-0.6,2.5-1.6V72.6z"/>
	<path d="M161.3,70.1c0,1.4-0.5,2.5-1.9,2.5c-1.4,0-1.9-1.1-1.9-2.5c0-1.2,0.5-2.2,1.9-2.2
		C160.8,68,161.3,68.9,161.3,70.1 M162.4,70.1c0-2-0.8-3.4-3-3.4c-2.2,0-3,1.4-3,3.4c0,2,0.8,3.6,3,3.6
		C161.6,73.7,162.4,72.1,162.4,70.1"/>
	<path d="M163.8,66.9h1.1v1.3h0c0.4-0.9,1.1-1.4,2-1.4c1,0,1.7,0.6,1.9,1.6h0c0.3-1,0.9-1.6,2-1.6
		c1.7,0,1.9,1.6,1.9,2.5v4.3h-1.2v-3.5c0-1-0.1-2.1-1.2-2.1c-1.1,0-1.5,1.2-1.5,2.3v3.3h-1.2v-3.5c0-1-0.1-2.1-1.2-2.1
		c-1.1,0-1.5,1.2-1.5,2.3v3.3h-1.2V66.9z"/>
	<path d="M175.6,70.3c0-1.1,0.4-2.4,1.8-2.4c1.4,0,1.7,1,1.7,2.2c0,1.2-0.4,2.5-1.7,2.5
		C175.9,72.6,175.6,71.5,175.6,70.3 M174.4,75.1h1.2v-2.5h0c0.3,0.7,1.1,1,1.9,1c1.8,0,2.6-1.3,2.6-3.5c0-1.7-0.5-3.4-2.4-3.4
		c-1.1,0-1.8,0.7-2.1,1.5h0v-1.4h-1.1V75.1z"/>
	<path d="M184.6,71c0,0.8-0.6,1.8-1.5,1.8c-0.4,0-0.9-0.3-0.9-0.8c0-1.2,1.4-1.2,2.4-1.7h0V71z M185.8,68.7
		c0-1.3-0.7-2-2.1-2c-1.1,0-1.7,0.4-2.3,1V69c0.6-0.7,1.2-1.1,2.1-1.1c0.5,0,1.2,0.2,1.2,0.9c0,0.6-0.4,0.7-1,0.9
		c-1.3,0.4-2.7,0.5-2.7,2.2c0,1.1,0.7,1.7,1.7,1.7c0.8,0,1.5-0.5,1.9-1.2h0v1.1h1.2V68.7z"/>
	<path d="M187.4,66.9h1.1v1.3h0c0.5-1,1.2-1.5,2.2-1.5c1.5,0,2.1,1.1,2.1,2.1v4.7h-1.2v-4.1c0-0.6-0.2-1.5-1.3-1.5
		c-1.4,0-1.7,1.3-1.7,2.1v3.5h-1.2V66.9z"/>
	<polygon points="196.1,73.2 193.8,66.9 195,66.9 196.7,71.9 196.7,71.9 198.3,66.9 199.5,66.9 196.7,75.1 195.5,75.1
				"/>
</g>
<script>
<![CDATA[
	var params = {};
	location.href.split('?')[1].split('&').forEach(
		function (i) {
			params[i.split('=')[0]] = i.split('=')[1];
		}
	);

	if (params.color) {
		var svg = document.getElementsByTagName('svg')[0];
		svg.setAttribute('data-color', params.color);
	}
]]>
</script>
</svg>
