<svg xmlns="http://www.w3.org/2000/svg" xmlns:xlink="http://www.w3.org/1999/xlink" width="1049.459" height="322.093" viewBox="0 0 1049.459 322.093">
  <defs>
    <linearGradient id="a" x1="-48.251" y1="246.217" x2="213.494" y2="95.098" gradientUnits="userSpaceOnUse">
      <stop offset="0.2" stop-color="#906bff"/>
      <stop offset="0.65" stop-color="#00d8ff"/>
      <stop offset="1" stop-color="#bdf76b"/>
    </linearGradient>
  </defs>
  <path d="M78.907,40.214A38.693,38.693,0,0,1,117.6,78.907v80.362h80.361a38.693,38.693,0,1,1,0,77.385H40.214V78.907A38.692,38.692,0,0,1,78.907,40.214m0-4.5A43.239,43.239,0,0,0,35.716,78.907V241.152H197.961a43.191,43.191,0,1,0,0-86.381H122.1V78.907A43.24,43.24,0,0,0,78.907,35.716Zm0-7.407a50.6,50.6,0,0,1,50.6,50.6v68.456h68.456a50.6,50.6,0,0,1,0,101.2H28.309V78.907a50.6,50.6,0,0,1,50.6-50.6m0-4.5a55.158,55.158,0,0,0-55.1,55.1v174.15h174.15a55.1,55.1,0,0,0,0-110.192H134V78.907a55.158,55.158,0,0,0-55.1-55.1Zm0-7.408a62.5,62.5,0,0,1,62.5,62.5v56.551h56.551a62.5,62.5,0,1,1,0,125.007H16.4V78.907a62.5,62.5,0,0,1,62.5-62.5m0-4.5a67.078,67.078,0,0,0-67,67V264.963H197.961a67,67,0,1,0,0-134H145.908V78.907a67.077,67.077,0,0,0-67-67Zm0-7.407a74.409,74.409,0,0,1,74.409,74.409v44.645h44.645a74.409,74.409,0,0,1,0,148.818H4.5V78.907A74.409,74.409,0,0,1,78.907,4.5m0-4.5A79,79,0,0,0,0,78.907V276.868H197.961a78.907,78.907,0,0,0,0-157.814H157.814V78.907A79,79,0,0,0,78.907,0Zm0,64.025A14.882,14.882,0,0,1,93.789,78.907V183.079H197.961a14.882,14.882,0,0,1,0,29.764H64.025V78.907A14.882,14.882,0,0,1,78.907,64.025m0-4.5a19.4,19.4,0,0,0-19.38,19.38V217.341H197.961a19.38,19.38,0,0,0,0-38.76H98.287V78.907a19.4,19.4,0,0,0-19.38-19.38Zm0-7.407a26.787,26.787,0,0,1,26.787,26.787v92.267h92.267a26.788,26.788,0,1,1,0,53.575H52.12V78.907A26.787,26.787,0,0,1,78.907,52.12m0-4.5A31.32,31.32,0,0,0,47.622,78.907V229.246H197.961a31.285,31.285,0,0,0,0-62.57H110.192V78.907A31.32,31.32,0,0,0,78.907,47.622Z" fill="url(#a)"/>
  <path d="M421.8,252.069v24.8H331.62V119.055h25.926V252.069Z"/>
  <path d="M430.726,131.681a15.556,15.556,0,1,1,15.556,15.555A15.588,15.588,0,0,1,430.726,131.681Zm3.382,32.464h24.348V276.868H434.108Z"/>
  <path d="M595.86,220.506c0,33.366-25.475,59.293-56.136,59.293-17.585,0-30.886-7.215-39.453-19.163v16.232H475.923V119.055h24.348v61.1c8.567-11.723,21.868-18.938,39.453-18.938C570.385,161.213,595.86,186.915,595.86,220.506Zm-24.348,0c0-20.966-15.33-36.071-35.621-36.071s-35.62,15.1-35.62,36.071,15.33,36.072,35.62,36.072S571.512,241.473,571.512,220.506Z"/>
  <path d="M666.651,257.479c13.527,0,23.672-6.087,29.083-13.977L715.8,255.225c-10.37,15.33-27.279,24.574-49.372,24.574-37.2,0-61.322-25.475-61.322-59.293,0-33.366,24.123-59.293,59.518-59.293,33.592,0,56.587,27.054,56.587,59.518a73.894,73.894,0,0,1-.9,10.145H630.58C634.412,248.461,648.615,257.479,666.651,257.479Zm29.984-46.441c-3.381-19.389-17.584-27.73-32.238-27.73-18.262,0-30.661,10.821-34.043,27.73Z"/>
  <path d="M799.605,162.134v26.378c-16.007-1.127-41.761,6.312-41.761,31.562v56.813H733.5V164.164h24.348V183.1C764.607,167.771,785.4,162.134,799.605,162.134Z"/>
  <path d="M836.207,187.609v54.108c0,14.428,12.04,14.2,30.527,13.3v21.869c-37.424,4.508-54.875-5.862-54.875-35.17v-101.9l24.348-7.214v31.563h30.527v23.445Z"/>
  <path d="M991,164.164l-43.286,116.33c-10.6,28.631-29.083,43.06-55.009,41.482v-22.77c15.781.9,24.349-7.214,29.985-22.093l1.127-2.256L876.022,164.164h26.6L936.216,246l28.858-81.836Z"/>
  <path d="M1015.893,162.862h12.272v1.924h-4.94v16.2h-2.366v-16.2h-4.966Z"/>
  <path d="M1031.076,162.992h2.548l6.656,14.872,6.657-14.872h2.522v17.993h-2.366V167.568l-5.981,13.417h-1.664l-6.006-13.443v13.443h-2.366Z"/>
</svg>
