<svg width="300" height="70" viewBox="0 0 300 70" fill="none" xmlns="http://www.w3.org/2000/svg">
<path d="M75.5 37.9998L78.5 2.2998H89.8L94.5 13.2998C96.2 16.7998 97.8 21.5998 99.1 25.7998H99.3C99.2 21.0998 99.4 16.0998 99.8 10.7998L100.5 2.3998H109.2L106.2 38.0998H96.1L91.1 26.1998C89.4 22.3998 87.5 17.5998 86.2 13.2998H86C85.8 18.0998 85.4 23.4998 85 29.2998L84.2 37.9998H75.5Z" fill="black"/>
<path d="M121.5 37.9998L113.2 2.2998H123.7L126.3 16.2998C127.1 20.2998 127.8 24.1998 128.2 28.7998H128.3C129.6 24.3998 130.9 20.2998 132.3 16.4998L137.4 2.2998H147.6L132.8 37.9998H121.5Z" fill="black"/>
<path d="M156.5 5.89961L155.6 17.3996H171.4L171.2 20.4996H155.3L154.1 34.7996H170.9L170.7 37.9996H149.9L152.9 2.59961H173.7L173.4 5.89961H156.5Z" fill="black"/>
<path d="M178.2 12.7998H181.6L181.3 17.2998H181.4C182.5 15.6998 183.9 14.4998 185.4 13.5998C187 12.6998 188.7 12.2998 190.4 12.2998C193.3 12.2998 195.3 13.1998 196.5 14.8998C197.7 16.6998 198.2 19.4998 197.9 23.2998L196.6 37.9998H193.1L194.3 23.5998C194.6 20.4998 194.3 18.2998 193.5 17.0998C192.7 15.8998 191.2 15.2998 189 15.2998C187.1 15.2998 185.3 16.1998 183.6 18.0998C181.9 19.8998 181 22.0998 180.7 24.5998L179.6 37.9998H176.1L178.2 12.7998Z" fill="black"/>
<path d="M205.7 26.8004C205.5 29.5004 206.2 31.7004 207.6 33.3004C209.1 34.9004 211.1 35.7004 213.7 35.7004C216.3 35.7004 218.8 35.1004 221.3 33.8004L222 36.6004C219.2 38.0004 216.2 38.6004 213.1 38.6004C209.5 38.6004 206.6 37.4004 204.6 35.1004C202.6 32.7004 201.7 29.6004 202.1 25.5004C202.5 21.4004 203.8 18.2004 206.1 15.9004C208.4 13.6004 211.3 12.4004 214.9 12.4004C218.4 12.4004 221 13.5004 222.7 15.7004C224.4 17.9004 225.1 21.1004 224.8 25.2004C224.8 25.6004 224.7 26.2004 224.6 26.8004H205.7ZM206 24.0004H221.5C221.7 21.2004 221.2 19.0004 220 17.5004C218.8 16.0004 217 15.2004 214.7 15.2004C212.3 15.2004 210.3 16.0004 208.7 17.5004C207.2 19.0004 206.3 21.2004 206 24.0004Z" fill="black"/>
<path d="M230.9 12.7998H234.3L233.9 18.1998H234C237.2 14.2998 241.3 12.2998 246.5 12.2998L246.2 15.3998C242.6 15.3998 239.6 16.3998 237.2 18.3998C234.8 20.3998 233.5 22.8998 233.2 26.0998L232.2 38.0998H228.6L230.9 12.7998Z" fill="black"/>
<path d="M258.3 12.2998C261.7 12.2998 264.1 13.5998 265.6 16.0998H265.7L266.1 12.6998H269.5L268.7 21.4998C268.1 27.8998 264.4 31.0998 257.6 31.0998C255.7 31.0998 254.1 30.7998 252.7 30.0998C252 30.7998 251.6 31.3998 251.6 31.8998C251.5 32.5998 252 33.1998 253 33.6998C254 34.1998 255.5 34.4998 257.3 34.4998C265.2 34.4998 268.9 36.7998 268.5 41.4998C268.3 43.7998 267.1 45.5998 264.9 46.9998C262.7 48.3998 259.8 49.0998 256 49.0998C252.5 49.0998 249.8 48.4998 247.9 47.1998C246.1 45.8998 245.2 44.1998 245.4 41.9998C245.5 40.6998 246.1 39.4998 247.2 38.3998C248.3 37.2998 249.8 36.4998 251.6 35.9998V35.8998C249.2 35.0998 248 33.8998 248.2 32.1998C248.3 30.9998 249 29.7998 250.3 28.6998C248.7 26.9998 248 24.7998 248.2 21.9998C248.4 19.0998 249.5 16.7998 251.3 14.9998C253.2 13.1998 255.5 12.2998 258.3 12.2998ZM256.2 46.5998C258.8 46.5998 260.9 46.1998 262.4 45.2998C263.9 44.3998 264.7 43.2998 264.8 41.7998C265.1 38.6998 262.5 37.0998 257 37.0998C254.4 37.0998 252.4 37.4998 251 38.3998C249.6 39.1998 248.8 40.3998 248.7 41.7998C248.6 43.1998 249.2 44.3998 250.5 45.2998C251.8 46.1998 253.7 46.5998 256.2 46.5998ZM251.7 21.8998C251.5 23.9998 252 25.6998 253 26.8998C254.1 28.0998 255.6 28.6998 257.7 28.6998C259.8 28.6998 261.5 28.0998 262.8 26.8998C264.1 25.6998 264.8 23.9998 265 21.7998C265.2 19.8998 264.7 18.2998 263.5 16.9998C262.4 15.6998 260.8 15.0998 258.9 15.0998C256.9 15.0998 255.2 15.6998 253.9 16.9998C252.6 18.2998 251.9 19.8998 251.7 21.8998Z" fill="black"/>
<path d="M277.9 12.8002L284.2 33.7002H284.3L293.7 12.8002H297.6L285.6 38.0002C283.5 42.3002 281.5 45.3002 279.4 46.8002C277.3 48.4002 274.6 49.1002 271.1 49.1002L271.2 46.1002C273.8 46.1002 275.9 45.5002 277.4 44.4002C278.9 43.3002 280.5 41.1002 282 37.9002L273.9 12.7002H277.9V12.8002Z" fill="black"/>
<path d="M69.1 27.1996L57.1 36.2996H55.5L69.1 24.1996V21.5996L50.3 36.2996H48.6L69.1 17.3996V15.5996L43.5 36.2996H41.8L69.1 10.0996V9.09961L36.5 36.3996L69.1 68.9996V32.4996L63.9 36.2996H62.3L69.1 30.4996V27.1996Z" fill="#EB0029"/>
<path d="M35.7 35.5996L69.1 2.09961H2.3L35.7 35.5996Z" fill="#EB0029"/>
</svg>
