<svg xmlns="http://www.w3.org/2000/svg" width="67.034" height="40" viewBox="0 0 67.034 40"><defs><style>.a{fill:#70002a;}.b{fill:#e72431;}</style></defs><g transform="translate(-298.502 -245.757)"><path class="a" d="M390.194,280.426c2.154-.023,3.748-.476,3.748-2.516,0-1.52-1.14-2.154-2.931-2.154h-1.587V287.34H387.6V274.207h3.325c2.029,0,2.96.334,3.826,1.133a3.723,3.723,0,0,1-2.026,6.167l3.3,5.833h-2.058Z" transform="translate(-33.731 -15.033)"/><path class="a" d="M330.039,273.3l9.747,9.955v-9.328h1.821V287.6l-9.746-9.955v9.415h-1.822Z" transform="translate(-16.022 -14.755)"/><path class="a" d="M359.515,276.65a5.276,5.276,0,0,0-3.488-1.2,5,5,0,0,0-4.963,5.221,5.086,5.086,0,0,0,8.451,3.943v1.962a7.192,7.192,0,0,1-3.47.923,6.728,6.728,0,0,1-6.888-6.775,6.858,6.858,0,0,1,7.027-6.917,6.4,6.4,0,0,1,3.331.889Z" transform="translate(-21.904 -14.909)"/><path class="a" d="M379.038,280.65a6.924,6.924,0,0,1-13.846,0,6.924,6.924,0,0,1,13.846,0Zm-1.858,0a5.068,5.068,0,1,0-10.132,0,5.068,5.068,0,1,0,10.132,0Z" transform="translate(-26.837 -14.909)"/><path class="a" d="M321.476,280.65a6.924,6.924,0,0,1-13.846,0,6.924,6.924,0,0,1,13.846,0Zm-1.856,0a5.069,5.069,0,1,0-10.133,0,5.069,5.069,0,1,0,10.133,0Z" transform="translate(-9.128 -14.909)"/><path class="b" d="M338.029,256.4a19.325,19.325,0,0,1,11.927,3.484l.371-.445a20.153,20.153,0,0,0-32.985,15.386h.615C318.621,264.925,327.451,256.731,338.029,256.4Z" transform="translate(-12.116 -9.071)"/><path class="b" d="M340.135,302.139a19.308,19.308,0,0,1-11.926-3.485l-.372.446a20.152,20.152,0,0,0,32.985-15.385h-.615C359.543,293.617,350.714,301.812,340.135,302.139Z" transform="translate(-15.345 -17.958)"/><g transform="translate(362.891 269.677)"><path class="a" d="M401.952,289.377a1.314,1.314,0,1,1-1.322,1.314A1.321,1.321,0,0,1,401.952,289.377Zm0,2.395a1.081,1.081,0,1,0-1.088-1.081A1.085,1.085,0,0,0,401.952,291.772Zm-.508-1.84h.583c.363,0,.533.163.533.452a.381.381,0,0,1-.363.413l.395.636H402.3l-.377-.615h-.2v.615h-.277Zm.277.654h.2c.17,0,.359-.01.359-.212s-.188-.212-.359-.208h-.2Z" transform="translate(-400.63 -289.377)"/></g></g></svg>