<svg width="391" height="120" viewBox="0 0 391 120" fill="none" xmlns="http://www.w3.org/2000/svg">
<g clip-path="url(#clip0_761_390)">
<path d="M121.604 114.237H113.248C112.642 116.032 112.06 117.858 111.533 119.685H109.574C111.635 113.016 113.83 106.749 116.419 101.167H118.401C120.99 106.749 123.24 112.938 125.278 119.685H123.319C122.792 117.858 122.209 116.032 121.604 114.237ZM113.807 112.568H121.053C119.755 108.788 118.433 105.371 117.434 103.12C116.427 105.371 115.105 108.781 113.814 112.568H113.807ZM129.251 119.685V101.167H131.1C134.326 106.93 137.497 111.639 141.383 117.008C141.328 116.323 141.305 115.473 141.305 114.497V101.167H143.098V119.685H141.249C137.205 114.26 133.877 109.686 130.966 104.316C131.021 105.214 131.045 106.253 131.045 107.285V119.693H129.243L129.251 119.685ZM167.268 119.685H156.482V101.167H167.268V102.828H158.386V109.34H166.002V111.009H158.386V118.024H167.268V119.693V119.685ZM177.693 111.324C176.002 113.623 174.043 116.638 172.642 119.685H170.636C172.115 116.323 174.389 113.016 176.796 109.977L171.006 101.167H173.201L178.252 108.836C180.258 106.348 181.981 103.6 182.957 101.167H184.939C183.696 104.238 181.635 107.253 179.125 110.158L185.364 119.685H183.193L177.693 111.324ZM200.077 119.685H189.29V101.167H200.077V102.828H191.194V109.34H198.81V111.009H191.194V118.024H200.077V119.693V119.685ZM204.428 101.167H206.332V118.016H215.112V119.685H204.428V101.167ZM225.459 120C220.195 120 217.685 115.796 217.685 110.426C217.685 105.057 220.14 100.852 225.459 100.852C230.777 100.852 233.256 105.057 233.256 110.426C233.256 115.796 230.746 120 225.459 120ZM225.459 118.284C229.558 118.284 231.273 114.796 231.273 110.426C231.273 106.056 229.558 102.569 225.459 102.569C221.359 102.569 219.668 106.064 219.668 110.426C219.668 114.788 221.383 118.284 225.459 118.284ZM238.134 119.685V101.167H239.983C243.208 106.93 246.379 111.639 250.266 117.008C250.211 116.323 250.187 115.473 250.187 114.497V101.167H251.981V119.685H250.132C246.088 114.26 242.752 109.686 239.849 104.316C239.904 105.214 239.927 106.253 239.927 107.285V119.693H238.126L238.134 119.685ZM264.412 110.639C264.412 105.057 267.056 100.852 272.657 100.852C274.215 100.852 275.781 101.199 277.181 101.781L276.709 103.419C275.466 102.97 274.247 102.569 272.689 102.569C268.196 102.569 266.395 106.167 266.395 110.639C266.395 115.111 268.432 118.284 272.815 118.284C274.561 118.284 275.828 117.803 276.914 117.331L277.307 118.968C276.222 119.52 274.562 120 272.76 120C267.284 120 264.404 116.268 264.404 110.639H264.412ZM287.795 120C282.532 120 280.022 115.796 280.022 110.426C280.022 105.057 282.484 100.852 287.795 100.852C293.106 100.852 295.592 105.057 295.592 110.426C295.592 115.796 293.082 120 287.795 120ZM287.795 118.284C291.894 118.284 293.609 114.796 293.609 110.426C293.609 106.056 291.886 102.569 287.795 102.569C283.704 102.569 282.004 106.064 282.004 110.426C282.004 114.788 283.72 118.284 287.795 118.284ZM318.841 101.167V119.685H317.048V107.356C317.048 106.3 317.103 105.348 317.126 104.521C315.435 108.434 313.318 112.402 310.494 116.851H308.857C306.025 112.41 303.885 108.387 302.17 104.498C302.248 105.316 302.272 106.3 302.272 107.356V119.685H300.47V101.167H302.453C304.357 105.82 306.764 110.269 309.699 114.977C312.61 110.269 314.986 105.82 316.867 101.167H318.849H318.841ZM324.601 101.167H329.093C333.562 101.167 336.442 102.962 336.442 107.096C336.442 111.229 333.562 112.993 329.093 112.993H326.505V119.685H324.601V101.167ZM329.07 102.828H326.505V111.324H329.07C332.319 111.324 334.491 110.347 334.491 107.088C334.491 103.828 332.319 102.828 329.07 102.828ZM350.171 114.229H341.815C341.21 116.024 340.627 117.85 340.092 119.677H338.133C340.195 113.008 342.39 106.741 344.978 101.159H346.961C349.549 106.741 351.8 112.93 353.837 119.677H351.878C351.351 117.85 350.769 116.024 350.163 114.229H350.171ZM342.374 112.56H349.62C348.322 108.781 347 105.364 346.001 103.112C344.994 105.364 343.672 108.773 342.382 112.56H342.374ZM357.819 119.677V101.159H359.667C362.893 106.922 366.064 111.631 369.951 117C369.896 116.315 369.872 115.465 369.872 114.489V101.159H371.666V119.677H369.817C365.773 114.252 362.445 109.678 359.534 104.309C359.589 105.206 359.612 106.245 359.612 107.277V119.685H357.811L357.819 119.677ZM381.855 111.875C379.054 108.143 377.071 104.97 375.513 101.159H377.52C378.841 104.387 380.376 106.922 382.83 110.284C385.261 106.954 386.772 104.387 388.094 101.159H390.1C388.487 104.97 386.56 108.166 383.759 111.82V119.677H381.855V111.875ZM127.371 69.8081C123.767 69.8081 121.36 69.0917 119.283 68.202V83.8303H111.195V30.9302C116.08 28.5289 122.005 27.3243 127.056 27.3243C139.873 27.3243 146.922 35.4967 146.922 47.7632C146.922 60.7461 140.195 69.8081 127.379 69.8081H127.371ZM126.246 63.0766C134.578 63.0766 138.496 57.707 138.496 48.0072C138.496 40.071 135.05 34.1425 126.639 34.1425C123.759 34.1425 121.352 34.8668 119.275 35.8274V61.3129C121.116 62.1947 123.122 63.0766 126.246 63.0766ZM186.938 67.084C183.177 68.8476 178.37 69.8869 173.161 69.8869C160.423 69.8869 152.021 62.116 152.021 48.5662C152.021 36.0636 159.471 27.3243 171.163 27.3243C181.737 27.3243 187.984 34.9377 187.984 45.1178C187.984 47.2042 187.827 48.9678 187.662 50.4873H160.353C161.155 59.0612 166.041 62.9899 173.885 62.9899C177.89 62.9899 181.973 62.0294 185.577 60.5099L186.938 67.0761V67.084ZM160.423 45.2831H180.046C180.124 44.8028 180.124 44.48 180.124 43.9998C180.124 38.6302 177.323 33.9772 171.155 33.9772C164.987 33.9772 161.147 38.3862 160.423 45.2752V45.2831ZM225.427 29.7335L223.822 36.221C220.777 34.9377 217.331 34.1346 214.208 34.1346C206.356 34.1346 202.115 39.827 202.115 48.6371C202.115 58.0141 206.599 63.0608 215.01 63.0608C217.976 63.0608 221.257 62.2577 224.223 60.8169L225.663 67.3911C222.862 68.8319 218.779 69.879 214.452 69.879C201.32 69.879 193.869 61.9428 193.869 48.8024C193.869 35.662 201.076 27.3243 213.649 27.3243C218.212 27.3243 222.461 28.3636 225.419 29.7335H225.427ZM248.228 69.8869C236.371 69.8869 229.243 61.3129 229.243 48.5662C229.243 35.8195 236.371 27.3243 248.228 27.3243C260.085 27.3243 267.292 35.8982 267.292 48.5662C267.292 61.2342 260.242 69.8869 248.228 69.8869ZM248.228 63.0766C255.514 63.0766 258.96 57.3842 258.96 48.5741C258.96 39.764 255.514 34.1504 248.228 34.1504C240.942 34.1504 237.496 39.8427 237.496 48.5741C237.496 57.3055 241.178 63.0766 248.228 63.0766ZM266.812 25.852C267.37 26.0646 268.149 26.3008 269.023 26.3008C270.085 26.3008 270.706 25.8992 270.706 25.0726C270.706 24.1356 269.998 23.8601 268.834 23.4743C267.465 23.0255 266.631 22.4272 266.631 21.0887C266.631 19.64 267.646 18.8291 269.369 18.8291C270.124 18.8291 270.942 19.0102 271.462 19.2228L271.21 20.2463C270.651 20.0573 270.053 19.9156 269.44 19.9156C268.393 19.9156 267.882 20.3093 267.882 21.0494C267.882 21.8524 268.409 22.1201 269.44 22.4665C270.856 22.9389 271.965 23.4349 271.965 25.0568C271.965 26.6787 270.691 27.3794 269.078 27.3794C268.086 27.3794 267.174 27.1826 266.584 26.9228L266.82 25.852H266.812ZM281.871 18.9787V27.2456H280.714V22.4587C280.714 21.9627 280.738 21.506 280.777 21.0809C280.1 22.6161 279.251 24.1908 278.157 25.8993H277.15C276.041 24.1908 275.191 22.6082 274.499 21.073C274.546 21.4903 274.569 21.9548 274.569 22.4665V27.2534H273.421V18.9866H274.695C275.498 20.9549 276.442 22.7421 277.654 24.6789C278.857 22.7421 279.778 20.9549 280.58 18.9866H281.863L281.871 18.9787Z" fill="black"/>
<path d="M84.5305 51.196C83.3031 47.7082 81.3126 44.1337 79.5266 41.1026C77.245 37.2211 76.5919 33.4262 77.3472 28.3952C78.4487 21.0652 76.5132 14.3494 72.1623 10.4285C69.3063 7.85396 64.0742 5.24795 55.396 7.49969C48.3308 9.32628 41.8084 5.86204 36.5684 3.07492C32.5401 0.933411 29.3537 -0.759323 26.8989 0.3508C25.4748 0.996404 24.4913 2.53955 23.8934 5.06685C22.3198 11.7433 20.8013 16.357 19.1098 19.5929C17.7014 22.2856 16.1987 24.0098 14.098 25.3404C8.87376 28.655 5.03427 32.3475 2.68967 36.3078C0.604699 39.8428 -0.245027 43.5905 0.227041 47.1571C0.644035 50.2827 2.06813 53.2352 4.33406 55.6759C6.53704 58.0536 9.42451 59.8329 12.6818 60.8407C15.2624 61.6359 17.3238 63.0295 18.976 65.0922C20.5496 67.0605 21.7691 69.6666 22.6975 73.052C23.5236 76.0754 24.8454 78.6105 26.6235 80.6103C28.3938 82.6023 30.526 83.9407 32.9571 84.5863C34.0429 84.8776 35.1601 85.0193 36.3088 85.0193C38.0633 85.0193 39.8886 84.6808 41.7454 83.9958C44.9791 82.8148 48.1892 80.6497 51.297 77.5634C54.3182 74.5637 57.0955 72.6663 60.0302 71.6034C62.6266 70.6586 65.0341 70.4933 67.5754 70.3122C70.4708 70.1075 73.4684 69.8949 77.0168 68.5407C81.3126 66.8952 84.0585 64.4387 85.1757 61.2422C86.1434 58.4709 85.931 55.1877 84.5305 51.1881V51.196ZM78.37 50.9913C77.8429 56.7151 75.1206 61.4154 70.2898 64.9663C68.1655 66.5173 66.0963 67.5408 63.9877 68.4305C65.4433 67.3203 66.8122 66.0921 68.0789 64.73C71.0608 61.5257 73.3268 57.8331 74.8138 53.7469C76.2536 49.8025 76.9066 45.669 76.7571 41.4568C76.7257 40.5357 76.647 39.6224 76.5368 38.717C76.6863 39.0162 76.8201 39.2996 76.9617 39.5988C78.2127 43.7086 78.6926 47.5271 78.3779 50.9913H78.37ZM45.4511 73.7606C45.0735 73.7764 44.6959 73.7842 44.3182 73.7842C36.4189 73.7842 28.9288 70.8397 23.1224 65.4229C17.0327 59.7463 13.5236 52.0463 13.2247 43.7243C12.9257 35.4023 15.8918 27.4661 21.5566 21.3801C27.2293 15.2863 34.924 11.7748 43.2403 11.4757C43.6179 11.4599 43.9956 11.452 44.3732 11.452C52.2725 11.452 59.7627 14.3966 65.5691 19.8134C71.6588 25.49 75.1678 33.19 75.4668 41.512C75.7658 49.8339 72.7996 57.7701 67.1348 63.8561C61.4622 69.95 53.7674 73.4614 45.4511 73.7606ZM66.4425 18.8686C63.2403 15.8846 59.5503 13.6172 55.4669 12.1291C53.1931 11.3024 50.8485 10.7356 48.4724 10.4364C57.0247 9.5782 64.1686 13.318 68.3858 20.8527C67.7642 20.1677 67.127 19.5063 66.4425 18.8686ZM31.0846 12.9952C27.1192 14.7667 23.6023 17.294 20.6204 20.4983C20.5259 20.6007 20.4394 20.7109 20.345 20.8133C20.7069 20.0102 21.0689 19.152 21.4465 18.2309C21.8242 17.5065 22.2097 16.7743 22.6188 16.0028C25.6637 10.3498 30.88 10.5545 37.4811 10.8143C37.5991 10.8143 37.725 10.8222 37.843 10.83C35.522 11.3024 33.264 12.0189 31.0846 12.9952ZM11.9422 43.7637C12.0917 47.9759 13.0358 52.0542 14.751 55.8806C15.766 58.1481 17.0327 60.2738 18.5275 62.2343C14.4756 59.1716 11.6983 54.983 10.6519 50.2827C9.58185 45.4722 10.3135 40.331 12.7526 35.2921C12.1153 38.0556 11.832 40.89 11.9343 43.7637H11.9422ZM33.2167 73.0993C36.7887 74.4062 40.5181 75.0597 44.3182 75.0597C44.7116 75.0597 45.105 75.0597 45.4905 75.0361C47.4417 74.9652 49.3615 74.7212 51.2419 74.3118C48.0554 76.1541 44.7116 77.1225 41.4307 77.1225C40.7462 77.1225 40.0696 77.0831 39.4008 76.9965C35.4591 76.5163 31.9579 74.6582 29.2749 71.6427C29.1018 71.4459 28.9288 71.257 28.7478 71.068C30.1798 71.8553 31.6668 72.5324 33.2167 73.0993ZM72.0128 25.1435C71.407 23.9547 70.7855 22.7186 70.1797 21.4904C68.0554 17.1837 64.9554 13.7746 61.2182 11.6489C59.0231 10.4049 56.647 9.6097 54.1136 9.23966C58.4802 8.79876 62.3748 9.71205 65.4747 11.9402C67.4652 13.3731 69.1096 15.302 70.3527 17.6719C71.5565 19.963 72.3275 22.5611 72.658 25.3876C72.7131 25.8757 72.7839 26.3481 72.8547 26.8205C72.5714 26.2615 72.2882 25.7025 72.0128 25.1435ZM37.5204 9.53097C34.2081 9.39712 31.0846 9.27902 28.3623 9.96399C26.4504 10.4443 24.8847 11.2867 23.6023 12.5385C23.8226 11.9323 24.035 11.3182 24.2632 10.6726C25.3568 7.53906 26.9539 6.44466 29.33 6.44466C31.1239 6.44466 33.3584 7.07454 36.1514 7.91697C38.1499 8.52321 40.3686 9.20029 42.7447 9.62544C40.9744 9.65694 39.2356 9.59395 37.5283 9.53097H37.5204ZM12.9178 32.2767C9.30649 38.3469 8.087 44.6691 9.40092 50.5583C10.109 53.739 11.5567 56.6994 13.6259 59.2661C9.61335 56.8096 6.96976 53.0383 6.29313 48.7238C5.65584 44.6297 6.52131 38.1895 13.9249 30.4973C13.5945 31.1114 13.264 31.7098 12.9257 32.2767H12.9178ZM28.3151 72.493C31.2104 75.7447 34.987 77.7445 39.2435 78.2641C39.9673 78.3507 40.699 78.398 41.4386 78.398C43.9956 78.398 46.5762 77.8468 49.1018 76.7997C44.7981 79.7679 40.2899 80.9095 36.2065 80.0198C32.1073 79.1223 28.7321 76.2643 26.6943 71.9734C26.2065 70.942 25.585 69.9028 24.8611 68.8792C25.9941 69.9658 27.1428 71.1704 28.323 72.5009L28.3151 72.493ZM67.1663 68.3675C68.4487 67.714 69.7312 66.9582 71.0451 65.9898C76.1906 62.2185 79.086 57.2111 79.6446 51.1015C79.7941 49.4481 79.7626 47.7161 79.5738 45.9288C80.5416 48.8419 81.053 51.4558 81.0844 53.7863C81.1159 56.3766 80.5651 58.6756 79.44 60.6281C78.1812 62.8247 76.1592 64.6592 73.4291 66.0921C71.2025 67.2652 69.1883 67.8793 67.1663 68.3596V68.3675ZM71.3126 11.3812C75.3409 15.0107 77.1269 21.3014 76.0883 28.2062C75.8287 29.9226 75.7422 31.4894 75.8051 32.9853C75.5769 32.4656 75.3488 31.9539 75.1049 31.4421C74.5856 29.5132 74.2001 27.4819 73.9326 25.238C73.5864 22.2541 72.7603 19.5063 71.4857 17.0735C70.1482 14.5226 68.3779 12.444 66.2221 10.9009C64.1765 9.42861 61.8162 8.49171 59.2355 8.0823C65.278 7.38158 69.0939 9.38138 71.3126 11.3812ZM27.4418 1.51604C27.7958 1.35858 28.1892 1.28771 28.6141 1.28771C30.4866 1.28771 33.0751 2.66552 35.9783 4.20867C39.212 5.9329 42.9256 7.89334 46.9854 8.79088C43.2403 8.7279 39.7234 7.665 36.5212 6.68873C33.4606 5.75969 30.8249 4.95662 28.5432 5.19282C26.9618 5.35816 25.7108 6.00378 24.7195 7.17689C24.869 6.58639 25.0106 5.98802 25.1601 5.36603C25.6558 3.24814 26.4032 1.98842 27.4497 1.5239L27.4418 1.51604ZM5.28603 54.8098C3.20106 52.5581 1.89502 49.8575 1.5095 46.9917C1.06103 43.6692 1.8321 40.2916 3.79905 36.9612C6.03351 33.1742 9.73135 29.6313 14.7903 26.4269C15.4512 26.0017 16.0649 25.5372 16.6393 25.0176C16.5606 25.1751 16.4898 25.3246 16.4111 25.4821C15.5614 26.7969 14.7038 27.8677 13.7754 28.781C5.25459 37.2053 4.31044 44.3778 5.01068 48.9128C5.59289 52.684 7.55983 56.0695 10.5575 58.6283C8.54331 57.6757 6.74157 56.3766 5.27815 54.7941L5.28603 54.8098ZM41.3048 82.7991C38.4803 83.8305 35.7816 84.0194 33.2875 83.3502C31.1082 82.7676 29.1884 81.5551 27.5834 79.76C25.939 77.9177 24.7116 75.5479 23.9406 72.7214C23.3426 70.5405 22.611 68.6509 21.7376 67.0133C23.2404 68.6745 24.5779 70.5405 25.522 72.5245C27.7329 77.1855 31.4229 80.2875 35.9232 81.2717C36.9225 81.4921 37.9453 81.6024 38.9838 81.6024C41.714 81.6024 44.5306 80.8465 47.308 79.3821C45.3253 80.9174 43.319 82.0669 41.3127 82.7991H41.3048ZM83.964 60.8249C82.9569 63.6908 80.5337 65.8244 76.5526 67.3518C74.3024 68.21 72.2725 68.5879 70.3292 68.8005C71.5172 68.4068 72.7367 67.9108 74.0192 67.2337C79.621 64.2892 82.4298 59.7621 82.359 53.7706C82.3354 51.629 81.9341 49.2828 81.171 46.7083C81.9971 48.3302 82.7445 49.9914 83.3189 51.6212C84.6249 55.3294 84.8373 58.337 83.964 60.8249Z" fill="url(#paint0_linear_761_390)"/>
</g>
<defs>
<linearGradient id="paint0_linear_761_390" x1="25.5535" y1="80.8072" x2="67.8629" y2="7.58" gradientUnits="userSpaceOnUse">
<stop offset="0.17" stop-color="#AC45FF"/>
<stop offset="0.25" stop-color="#5E24BD"/>
<stop offset="0.46" stop-color="#3D67B4"/>
<stop offset="0.64" stop-color="#239DAD"/>
<stop offset="0.8" stop-color="#0FC3A9"/>
<stop offset="0.92" stop-color="#04DBA6"/>
<stop offset="1" stop-color="#00E4A5"/>
</linearGradient>
<clipPath id="clip0_761_390">
<rect width="391" height="120" fill="white"/>
</clipPath>
</defs>
</svg>
