<svg width="174" height="126" viewBox="0 0 174 126" fill="none" xmlns="http://www.w3.org/2000/svg">
<g clip-path="url(#clip0_761_400)">
<path d="M137.338 52L146.338 57L110.338 86L117.338 92L82.338 117L102.338 92L96.338 88L126.338 58L110.338 50L157.338 0H28.338L0.337974 104C0.337974 104 -0.421026 108.962 0.337974 112C1.68597 117.387 4.98197 120.453 8.33797 123C10.3722 124.451 12.8442 125.157 15.338 125H133.338C135.381 125.024 137.413 124.686 139.338 124C141.55 123.016 143.579 121.663 145.338 120C148.527 116.983 148.86 113.717 149.338 112L173.338 20L137.338 52ZM14.338 120C12.278 120 10.769 118.368 9.33797 117C6.98546 114.565 5.56876 111.378 5.33797 108C5.16897 105.638 5.74897 104.254 6.33797 102L31.338 6L101.338 5L72.338 120H14.338ZM48.338 55C44.633 54.932 43.338 54.355 43.338 52C43.2491 51.3363 43.2491 50.6637 43.338 50L47.338 35C49.396 35.347 52.044 35 54.338 35C64.338 35 72.338 28.4 72.338 20C72.338 10.148 64.226 9 53.338 9H38.338V11C41.218 11.071 42.338 11.65 42.338 14C42.338 14.69 41.632 15.825 41.338 17L33.338 51C32.633 54.04 30.985 54.932 28.338 55L27.338 57H48.338V55ZM52.338 15C52.984 12.178 53.868 12 56.338 12C59.278 12 61.338 13.663 61.338 18C61.338 25.779 59.924 32 52.338 32C51.044 32 49.455 31.207 48.338 31L52.338 15ZM52.338 38L51.338 40C54.22 40.139 56.338 40.72 56.338 43C56.338 43.759 55.632 44.755 55.338 46L50.338 66C49.451 65.954 48.513 66.035 47.338 66C33.138 65.569 21.338 80.237 21.338 95C21.338 107.818 29.476 115.822 41.338 116C49.168 116.117 56.138 111.24 60.338 105C60.4045 104.935 60.4574 104.857 60.4934 104.771C60.5295 104.685 60.5481 104.593 60.5481 104.5C60.5481 104.407 60.5295 104.315 60.4934 104.229C60.4574 104.143 60.4045 104.065 60.338 104C59.578 103.182 58.338 104 58.338 104C48.738 111.495 47.829 113.081 41.338 112C33.655 110.721 32.338 101.825 32.338 98C32.338 87.976 36.906 70.994 49.338 70C49.438 69.992 49.238 70.006 49.338 70L47.338 80C46.455 83.109 43.985 85.138 41.338 85V87H77.338L81.338 74H79.338C75.132 78.672 71.382 80.645 63.338 83C63.338 83 58.351 84.825 57.338 82C57.1663 81.3444 57.1663 80.6556 57.338 80L59.338 71C60.6374 71.6474 61.6905 72.7006 62.338 74C63.1942 75.5181 63.5445 77.2694 63.338 79H64.338L68.338 66H66.338C65.39 67.789 61.984 67.209 60.338 67L62.338 62H63.338C69.114 62 71.929 62.618 72.338 67C72.4422 67.6626 72.4422 68.3374 72.338 69H74.338L78.338 52H76.338C72.248 58.951 69.138 59.059 65.338 59H62.338L66.338 44C67.22 40.552 67.398 40.917 70.338 41C76.472 41.175 81.344 41.229 82.338 49H84.338L87.338 38H52.338Z" fill="#003BA3"/>
</g>
<defs>
<clipPath id="clip0_761_400">
<rect width="173.337" height="125.024" fill="white"/>
</clipPath>
</defs>
</svg>
