<svg width="391" height="120" viewBox="0 0 391 120" fill="none" xmlns="http://www.w3.org/2000/svg">
<g clip-path="url(#clip0_756_312)">
<path d="M127.295 69.8159C123.692 69.8159 121.292 69.0994 119.207 68.2098V83.8381H111.119V30.938C116.005 28.5367 121.929 27.332 126.981 27.332C139.798 27.332 146.839 35.5044 146.839 47.7709C146.839 60.7538 140.112 69.8159 127.295 69.8159ZM126.178 63.0843C134.51 63.0843 138.429 57.7148 138.429 48.015C138.429 40.0788 134.982 34.1502 126.571 34.1502C123.684 34.1502 121.284 34.8746 119.199 35.8351V61.3207C121.04 62.2025 123.047 63.0843 126.17 63.0843H126.178ZM186.872 67.0918C183.111 68.8554 178.303 69.8946 173.095 69.8946C160.357 69.8946 151.954 62.1238 151.954 48.574C151.954 36.0713 159.405 27.332 171.096 27.332C181.671 27.332 187.918 34.9454 187.918 45.1255C187.918 47.2119 187.761 48.9755 187.595 50.495H160.286C161.088 59.069 165.974 62.9977 173.819 62.9977C177.823 62.9977 181.907 62.0372 185.51 60.5176L186.872 67.0839V67.0918ZM160.357 45.2909H179.979C180.058 44.8106 180.058 44.4878 180.058 44.0075C180.058 38.638 177.257 33.9849 171.088 33.9849C164.92 33.9849 161.073 38.3939 160.357 45.283V45.2909ZM211.42 69.8159C207.816 69.8159 205.416 69.0994 203.331 68.2098V83.8381H195.243V30.938C200.129 28.5367 206.054 27.332 211.105 27.332C223.922 27.332 230.964 35.5044 230.964 47.7709C230.964 60.7538 224.237 69.8159 211.42 69.8159ZM210.302 63.0843C218.635 63.0843 222.553 57.7148 222.553 48.015C222.553 40.0788 219.107 34.1502 210.696 34.1502C207.808 34.1502 205.408 34.8746 203.323 35.8351V61.3207C205.165 62.2025 207.171 63.0843 210.294 63.0843H210.302ZM267.628 29.7413L266.023 36.2288C262.978 34.9454 259.532 34.1424 256.409 34.1424C248.556 34.1424 244.316 39.8347 244.316 48.6448C244.316 58.0218 248.8 63.0686 257.211 63.0686C260.177 63.0686 263.458 62.2655 266.424 60.8247L267.864 67.3988C265.063 68.8396 260.98 69.8868 256.653 69.8868C243.521 69.8868 236.07 61.9505 236.07 48.8102C236.07 35.6698 243.277 27.332 255.85 27.332C260.413 27.332 264.662 28.3713 267.62 29.7413H267.628ZM289.643 69.8946C277.786 69.8946 270.657 61.3207 270.657 48.574C270.657 35.8272 277.786 27.332 289.643 27.332C301.5 27.332 308.707 35.906 308.707 48.574C308.707 61.242 301.657 69.8946 289.643 69.8946ZM289.643 63.0843C296.929 63.0843 300.375 57.392 300.375 48.5819C300.375 39.7717 296.929 34.1581 289.643 34.1581C282.357 34.1581 278.911 39.8505 278.911 48.5819C278.911 57.3132 282.593 63.0843 289.643 63.0843ZM308.227 25.8519C308.786 26.0645 309.565 26.3006 310.438 26.3006C311.5 26.3006 312.122 25.8991 312.122 25.0724C312.122 24.1434 311.414 23.86 310.249 23.482C308.88 23.0333 308.046 22.4349 308.046 21.0965C308.046 19.6478 309.061 18.8369 310.784 18.8369C311.539 18.8369 312.358 19.0179 312.877 19.2305L312.625 20.2619C312.067 20.073 311.469 19.9312 310.855 19.9312C309.808 19.9312 309.297 20.3249 309.297 21.065C309.297 21.868 309.824 22.1436 310.855 22.4822C312.271 22.9546 313.38 23.4505 313.38 25.0724C313.38 26.6943 312.106 27.4029 310.493 27.4029C309.502 27.4029 308.589 27.1982 307.999 26.9463L308.235 25.8676L308.227 25.8519ZM323.286 18.9786V27.2454H322.13V22.4664C322.13 21.9704 322.153 21.5137 322.193 21.0886C321.516 22.6239 320.666 24.1906 319.573 25.907H318.565C317.456 24.1985 316.606 22.616 315.914 21.0807C315.961 21.498 315.985 21.9625 315.985 22.4743V27.2533H314.836V18.9865H316.111C316.913 20.9548 317.857 22.742 319.069 24.6788C320.273 22.742 321.193 20.9626 321.996 18.9865H323.278L323.286 18.9786ZM121.528 114.237H113.172C112.567 116.032 111.984 117.859 111.457 119.685H109.498C111.559 113.017 113.755 106.749 116.343 101.167H118.326C120.914 106.749 123.165 112.938 125.202 119.685H123.243C122.716 117.859 122.134 116.032 121.528 114.237ZM113.731 112.568H120.977C119.679 108.789 118.357 105.372 117.358 103.12C116.351 105.372 115.029 108.781 113.739 112.568H113.731ZM129.176 119.685V101.167H131.025C134.251 106.931 137.421 111.639 141.308 117.008C141.253 116.323 141.229 115.473 141.229 114.497V101.167H143.023V119.685H141.174C137.13 114.26 133.802 109.686 130.891 104.317C130.946 105.214 130.97 106.253 130.97 107.285V119.693H129.168L129.176 119.685ZM167.194 119.685H156.407V101.167H167.194V102.829H158.311V109.34H165.927V111.009H158.311V118.024H167.194V119.693V119.685ZM177.619 111.324C175.927 113.623 173.968 116.638 172.568 119.685H170.561C172.04 116.323 174.314 113.017 176.722 109.977L170.931 101.167H173.126L178.177 108.836C180.184 106.348 181.907 103.6 182.883 101.167H184.865C183.622 104.238 181.561 107.253 179.051 110.159L185.29 119.685H183.119L177.619 111.324ZM200.003 119.685H189.216V101.167H200.003V102.829H191.12V109.34H198.736V111.009H191.12V118.024H200.003V119.693V119.685ZM204.354 101.167H206.258V118.016H215.039V119.685H204.354V101.167ZM225.385 120C220.122 120 217.612 115.796 217.612 110.426C217.612 105.057 220.067 100.852 225.385 100.852C230.704 100.852 233.182 105.057 233.182 110.426C233.182 115.796 230.673 120 225.385 120ZM225.385 118.284C229.484 118.284 231.2 114.796 231.2 110.426C231.2 106.057 229.484 102.569 225.385 102.569C221.286 102.569 219.594 106.064 219.594 110.426C219.594 114.788 221.31 118.284 225.385 118.284ZM238.061 119.685V101.167H239.909C243.135 106.931 246.306 111.639 250.193 117.008C250.138 116.323 250.114 115.473 250.114 114.497V101.167H251.908V119.685H250.059C246.015 114.26 242.679 109.686 239.776 104.317C239.831 105.214 239.854 106.253 239.854 107.285V119.693H238.053L238.061 119.685ZM264.339 110.639C264.339 105.057 266.983 100.852 272.585 100.852C274.143 100.852 275.709 101.199 277.109 101.781L276.637 103.419C275.394 102.97 274.174 102.569 272.617 102.569C268.124 102.569 266.322 106.167 266.322 110.639C266.322 115.111 268.36 118.284 272.742 118.284C274.489 118.284 275.756 117.803 276.842 117.331L277.235 118.969C276.149 119.52 274.489 120 272.687 120C267.211 120 264.332 116.268 264.332 110.639H264.339ZM287.723 120C282.459 120 279.95 115.796 279.95 110.426C279.95 105.057 282.412 100.852 287.723 100.852C293.034 100.852 295.52 105.057 295.52 110.426C295.52 115.796 293.01 120 287.723 120ZM287.723 118.284C291.822 118.284 293.538 114.796 293.538 110.426C293.538 106.057 291.814 102.569 287.723 102.569C283.632 102.569 281.932 106.064 281.932 110.426C281.932 114.788 283.647 118.284 287.723 118.284ZM318.77 101.167V119.685H316.976V107.356C316.976 106.301 317.031 105.348 317.055 104.521C315.363 108.434 313.247 112.402 310.422 116.851H308.786C305.953 112.41 303.813 108.387 302.098 104.498C302.177 105.317 302.2 106.301 302.2 107.356V119.685H300.398V101.167H302.381C304.285 105.82 306.693 110.269 309.627 114.977C312.539 110.269 314.915 105.82 316.795 101.167H318.778H318.77ZM324.529 101.167H329.022C333.491 101.167 336.371 102.962 336.371 107.096C336.371 111.229 333.491 112.993 329.022 112.993H326.433V119.685H324.529V101.167ZM328.998 102.829H326.433V111.324H328.998C332.248 111.324 334.419 110.347 334.419 107.088C334.419 103.828 332.248 102.829 328.998 102.829ZM350.1 114.229H341.745C341.139 116.024 340.556 117.851 340.021 119.677H338.062C340.124 113.009 342.319 106.742 344.907 101.159H346.89C349.479 106.742 351.729 112.93 353.767 119.677H351.808C351.281 117.851 350.698 116.024 350.092 114.229H350.1ZM342.303 112.56H349.549C348.251 108.781 346.929 105.364 345.93 103.112C344.923 105.364 343.601 108.773 342.311 112.56H342.303ZM357.748 119.677V101.159H359.597C362.823 106.923 365.994 111.631 369.88 117C369.825 116.315 369.802 115.465 369.802 114.489V101.159H371.596V119.677H369.746C365.702 114.253 362.374 109.678 359.463 104.309C359.518 105.206 359.542 106.246 359.542 107.277V119.685H357.74L357.748 119.677ZM381.784 111.875C378.983 108.143 377.001 104.97 375.443 101.159H377.449C378.771 104.387 380.305 106.923 382.76 110.285C385.191 106.954 386.702 104.387 388.024 101.159H390.03C388.417 104.97 386.489 108.167 383.688 111.82V119.677H381.784V111.875Z" fill="black"/>
<path d="M84.4623 51.196C83.2349 47.7082 81.2443 44.1337 79.4583 41.1026C77.1766 37.2211 76.5236 33.4262 77.2789 28.3952C78.3804 21.0652 76.4449 14.3494 72.0939 10.4285C69.2378 7.85396 64.0057 5.24795 55.3273 7.49969C48.2619 9.32628 41.7393 5.86204 36.4993 3.07492C32.4709 0.933411 29.2843 -0.759323 26.8295 0.3508C25.4054 0.996404 24.422 2.53955 23.824 5.06685C22.2504 11.7433 20.7319 16.357 19.0403 19.5929C17.632 22.2856 16.1292 24.0098 14.0284 25.3404C8.80411 28.655 4.96455 32.3475 2.61989 36.3078C0.534885 39.8428 -0.314858 43.5905 0.15722 47.1571C0.574221 50.2827 1.9983 53.2352 4.26427 55.6759C6.4673 58.0536 9.35483 59.8329 12.6122 60.8407C15.1929 61.6359 17.2543 63.0295 18.9065 65.0922C20.4801 67.0605 21.6996 69.6666 22.6281 73.052C23.4542 76.0754 24.776 78.6105 26.5542 80.6103C28.3245 82.6023 30.4567 83.9407 32.8879 84.5863C33.9737 84.8776 35.0909 85.0193 36.2397 85.0193C37.9942 85.0193 39.8195 84.6808 41.6764 83.9958C44.9101 82.8148 48.1202 80.6497 51.2281 77.5634C54.2494 74.5637 57.0268 72.6663 59.9616 71.6034C62.558 70.6586 64.9656 70.4933 67.5069 70.3122C70.4023 70.1075 73.4 69.8949 76.9485 68.5407C81.2444 66.8952 83.9903 64.4387 85.1076 61.2422C86.0753 58.4709 85.8628 55.1877 84.4623 51.1881V51.196ZM78.3018 50.9913C77.7746 56.7151 75.0523 61.4154 70.2213 64.9663C68.097 66.5173 66.0277 67.5408 63.9191 68.4305C65.3747 67.3203 66.7437 66.0921 68.0105 64.73C70.9924 61.5257 73.2584 57.8331 74.7454 53.7469C76.1853 49.8025 76.8383 45.669 76.6888 41.4568C76.6573 40.5357 76.5787 39.6224 76.4686 38.717C76.618 39.0162 76.7517 39.2996 76.8934 39.5988C78.1444 43.7086 78.6243 47.5271 78.3096 50.9913H78.3018ZM45.3822 73.7606C45.0046 73.7764 44.6269 73.7842 44.2492 73.7842C36.3498 73.7842 28.8595 70.8397 23.053 65.4229C16.9632 59.7463 13.454 52.0463 13.155 43.7243C12.856 35.4023 15.8223 27.4661 21.4872 21.3801C27.16 15.2863 34.8549 11.7748 43.1713 11.4757C43.549 11.4599 43.9267 11.452 44.3043 11.452C52.2038 11.452 59.694 14.3966 65.5006 19.8134C71.5904 25.49 75.0995 33.19 75.3985 41.512C75.6975 49.8339 72.7312 57.7701 67.0663 63.8561C61.3935 69.95 53.6987 73.4614 45.3822 73.7606ZM66.3739 18.8686C63.1716 15.8846 59.4816 13.6172 55.3981 12.1291C53.1243 11.3024 50.7796 10.7356 48.4035 10.4364C56.956 9.5782 64.1001 13.318 68.3174 20.8527C67.6958 20.1677 67.0584 19.5063 66.3739 18.8686ZM31.0153 12.9952C27.0499 14.7666 23.5329 17.294 20.5509 20.4983C20.4565 20.6007 20.37 20.7109 20.2755 20.8133C20.6375 20.0102 20.9994 19.152 21.3771 18.2309C21.7547 17.5065 22.1403 16.7743 22.5494 16.0028C25.5943 10.3498 30.8108 10.5545 37.412 10.8143C37.53 10.8143 37.6559 10.8222 37.7739 10.83C35.4528 11.3024 33.1948 12.0189 31.0153 12.9952ZM11.8726 43.7637C12.0221 47.9759 12.9662 52.0542 14.6814 55.8806C15.6964 58.1481 16.9632 60.2738 18.4581 62.2343C14.4061 59.1716 11.6287 54.983 10.5823 50.2827C9.51222 45.4722 10.2439 40.331 12.683 35.2921C12.0456 38.0556 11.7625 40.89 11.8647 43.7637H11.8726ZM33.1475 73.0993C36.7196 74.4062 40.449 75.0597 44.2492 75.0597C44.6426 75.0597 45.036 75.0597 45.4215 75.0361C47.3728 74.9652 49.2926 74.7212 51.173 74.3118C47.9865 76.1541 44.6427 77.1225 41.3617 77.1225C40.6772 77.1225 40.0005 77.0831 39.3317 76.9965C35.3899 76.5163 31.8886 74.6582 29.2057 71.6427C29.0326 71.4459 28.8595 71.257 28.6786 71.068C30.1105 71.8553 31.5975 72.5324 33.1475 73.0993ZM71.9445 25.1435C71.3386 23.9547 70.717 22.7186 70.1112 21.4904C67.9868 17.1837 64.8868 13.7746 61.1496 11.6489C58.9544 10.4049 56.5783 9.6097 54.0449 9.23966C58.4116 8.79876 62.3062 9.71205 65.4062 11.9402C67.3967 13.3731 69.0412 15.302 70.2843 17.6719C71.4881 19.963 72.2591 22.5611 72.5896 25.3876C72.6447 25.8757 72.7155 26.3481 72.7863 26.8205C72.5031 26.2615 72.2199 25.7025 71.9445 25.1435ZM37.4513 9.53097C34.1389 9.39712 31.0154 9.27902 28.293 9.96399C26.3811 10.4443 24.8154 11.2867 23.5329 12.5385C23.7532 11.9323 23.9656 11.3182 24.1938 10.6726C25.2874 7.53905 26.8847 6.44466 29.2608 6.44466C31.0547 6.44466 33.2891 7.07454 36.0823 7.91697C38.0807 8.52321 40.2995 9.20029 42.6756 9.62544C40.9053 9.65694 39.1665 9.59395 37.4591 9.53097H37.4513ZM12.8482 32.2767C9.23685 38.3469 8.01724 44.6691 9.33119 50.5583C10.0393 53.739 11.487 56.6994 13.5563 59.2661C9.54362 56.8096 6.90003 53.0383 6.22339 48.7238C5.58608 44.6297 6.45152 38.1895 13.8553 30.4973C13.5248 31.1114 13.1944 31.7098 12.8561 32.2767H12.8482ZM28.2458 72.493C31.1412 75.7447 34.9178 77.7445 39.1744 78.2641C39.8983 78.3507 40.63 78.398 41.3696 78.398C43.9267 78.398 46.5074 77.8468 49.033 76.7997C44.7292 79.7679 40.2209 80.9095 36.1374 80.0198C32.0382 79.1223 28.6628 76.2643 26.625 71.9734C26.1372 70.942 25.5156 69.9028 24.7917 68.8792C25.9247 69.9658 27.0735 71.1704 28.2537 72.5009L28.2458 72.493ZM67.0978 68.3675C68.3803 67.714 69.6628 66.9582 70.9767 65.9898C76.1224 62.2185 79.0177 57.2111 79.5764 51.1015C79.7258 49.4481 79.6944 47.7161 79.5056 45.9288C80.4733 48.8419 80.9847 51.4558 81.0162 53.7863C81.0476 56.3766 80.4969 58.6756 79.3718 60.6281C78.1129 62.8247 76.0908 64.6592 73.3606 66.0921C71.134 67.2652 69.1198 67.8793 67.0978 68.3596V68.3675ZM71.2442 11.3812C75.2726 15.0107 77.0586 21.3014 76.02 28.2062C75.7604 29.9226 75.6738 31.4894 75.7368 32.9853C75.5086 32.4656 75.2804 31.9539 75.0365 31.4421C74.5172 29.5132 74.1317 27.4819 73.8642 25.238C73.518 22.2541 72.6919 19.5063 71.4173 17.0735C70.0797 14.5226 68.3095 12.444 66.1537 10.9009C64.108 9.42861 61.7476 8.49171 59.1669 8.0823C65.2095 7.38158 69.0254 9.38138 71.2442 11.3812ZM27.3725 1.51604C27.7265 1.35858 28.1199 1.28771 28.5448 1.28771C30.4174 1.28771 33.0059 2.66552 35.9092 4.20867C39.1429 5.9329 42.8566 7.89334 46.9164 8.79088C43.1713 8.7279 39.6544 7.665 36.4521 6.68873C33.3915 5.75969 30.7557 4.95662 28.474 5.19282C26.8925 5.35816 25.6415 6.00378 24.6502 7.17689C24.7997 6.58639 24.9412 5.98802 25.0907 5.36603C25.5864 3.24814 26.3339 1.98842 27.3803 1.5239L27.3725 1.51604ZM5.21626 54.8098C3.13125 52.5581 1.82523 49.8575 1.4397 46.9917C0.991227 43.6692 1.76222 40.2916 3.72921 36.9612C5.96371 33.1742 9.66172 29.6313 14.7208 26.4269C15.3817 26.0017 15.9954 25.5372 16.5698 25.0176C16.4911 25.1751 16.4202 25.3246 16.3416 25.4821C15.4918 26.7969 14.6342 27.8677 13.7058 28.781C5.18482 37.2053 4.24066 44.3778 4.9409 48.9128C5.52313 52.684 7.49016 56.0695 10.4879 58.6283C8.47366 57.6757 6.67183 56.3766 5.20839 54.7941L5.21626 54.8098ZM41.2358 82.7991C38.4112 83.8305 35.7124 84.0194 33.2183 83.3502C31.0389 82.7676 29.1191 81.5551 27.514 79.76C25.8696 77.9177 24.6423 75.5479 23.8713 72.7214C23.2733 70.5405 22.5415 68.6509 21.6682 67.0133C23.171 68.6745 24.5085 70.5405 25.4526 72.5246C27.6635 77.1855 31.3537 80.2875 35.8541 81.2717C36.8534 81.4921 37.8762 81.6024 38.9148 81.6024C41.645 81.6024 44.4617 80.8465 47.2391 79.3821C45.2563 80.9174 43.25 82.0669 41.2437 82.7991H41.2358ZM83.8959 60.8249C82.8888 63.6908 80.4655 65.8244 76.4843 67.3518C74.2341 68.21 72.2041 68.5879 70.2607 68.8005C71.4488 68.4068 72.6683 67.9108 73.9507 67.2337C79.5527 64.2892 82.3617 59.7621 82.2909 53.7705C82.2673 51.629 81.866 49.2828 81.1028 46.7083C81.9289 48.3302 82.6764 49.9914 83.2507 51.6212C84.5568 55.3294 84.7692 58.337 83.8959 60.8249Z" fill="url(#paint0_linear_756_312)"/>
</g>
<defs>
<linearGradient id="paint0_linear_756_312" x1="25.4842" y1="80.8072" x2="67.7932" y2="7.57927" gradientUnits="userSpaceOnUse">
<stop offset="0.17" stop-color="#AC45FF"/>
<stop offset="0.25" stop-color="#5E24BD"/>
<stop offset="0.46" stop-color="#3D67B4"/>
<stop offset="0.64" stop-color="#239DAD"/>
<stop offset="0.8" stop-color="#0FC3A9"/>
<stop offset="0.92" stop-color="#04DBA6"/>
<stop offset="1" stop-color="#00E4A5"/>
</linearGradient>
<clipPath id="clip0_756_312">
<rect width="391" height="120" fill="white"/>
</clipPath>
</defs>
</svg>
