<?xml version="1.0" encoding="UTF-8" standalone="no"?>
<svg
   xmlns:dc="http://purl.org/dc/elements/1.1/"
   xmlns:cc="http://creativecommons.org/ns#"
   xmlns:rdf="http://www.w3.org/1999/02/22-rdf-syntax-ns#"
   xmlns:svg="http://www.w3.org/2000/svg"
   xmlns="http://www.w3.org/2000/svg"
   height="460"
   width="731"
   xml:space="preserve"
   viewBox="0 0 731 460"
   y="0px"
   x="0px"
   id="Layer_1"
   version="1.1"><metadata
   id="metadata17"><rdf:RDF><cc:Work
       rdf:about=""><dc:format>image/svg+xml</dc:format><dc:type
         rdf:resource="http://purl.org/dc/dcmitype/StillImage" /><dc:title></dc:title></cc:Work></rdf:RDF></metadata><defs
   id="defs15" />
<style
   id="style2"
   type="text/css">
	.st0{fill:#0093B1;}
	.st1{fill:#F8991D;}
	.st2{fill:#FFFFFF;}
</style>
<path
   style="fill:#0093b1;stroke-width:3.48911858"
   id="path4"
   d="m 697.98986,401.3159 c 3.48924,3.48927 5.23368,7.6762 5.23368,12.56094 0,4.88469 -1.74444,9.07161 -5.23368,12.56088 -3.48899,3.48904 -7.67595,5.23364 -12.56067,5.23364 -4.88491,0 -9.07174,-1.7446 -12.56097,-5.23364 -3.48913,-3.48927 -5.23357,-7.67619 -5.23357,-12.56088 0,-4.88474 1.74444,-9.07167 5.23357,-12.56094 3.48923,-3.48906 7.67606,-5.23361 12.56097,-5.23361 4.88472,0 9.07168,1.74455 12.56067,5.23361 z m 2.09362,-1.74441 c -4.18697,-3.838 -9.07183,-5.93164 -14.65429,-5.93164 -5.58261,0 -10.46745,2.09364 -14.65438,5.93164 -4.18701,4.18698 -5.93146,8.72274 -5.93146,14.65425 0,5.58258 2.09348,10.46731 5.93146,14.65438 3.83808,4.18687 8.72283,5.93146 14.65438,5.93146 5.58246,0 10.46732,-2.09351 14.65429,-5.93146 4.18695,-4.18707 5.93139,-9.0718 5.93139,-14.65438 0.34893,-5.93151 -1.74444,-10.81622 -5.93139,-14.65425 z m -11.51423,13.60758 c -0.69779,0.34879 -2.09331,0.34879 -3.838,0.34879 h -3.48904 v -8.37377 h 3.48904 c 2.09318,0 3.838,0.34886 4.88481,0.69773 1.04678,0.69788 1.39559,1.74467 1.39559,3.48915 0,1.74453 -0.69774,3.14014 -2.4424,3.8381 z m -11.16518,12.21188 h 3.83814 v -9.07178 h 3.14015 c 2.09358,0 3.4891,0.34894 4.53589,0.69794 1.39566,0.69781 2.0934,2.44239 2.0934,5.23363 v 1.74465 0.69766 c 0,0 0,0.34904 0,0.34904 0,0 0,0 0,0.34886 h 3.83817 v -0.34886 c 0,-0.34904 0,-0.69795 -0.34895,-1.0467 0,-0.69792 0,-1.04694 0,-1.74465 v -1.74463 c 0,-1.04661 -0.34901,-2.44242 -1.3957,-3.489 -0.69792,-1.04678 -2.09352,-2.09361 -3.83802,-2.09361 1.39569,-0.3488 2.44239,-0.69776 3.1401,-1.04666 1.39573,-1.04672 2.09362,-2.44235 2.09362,-4.53587 0,-2.79127 -1.04673,-4.88483 -3.48922,-5.5825 -1.39559,-0.69799 -3.48898,-0.69799 -6.2804,-0.69799 h -8.02491 v 22.33047 z"
   class="st0" />
<polygon
   style="fill:#f8991d"
   transform="matrix(3.4891184,0,0,3.4891184,-925.49666,-1132.1515)"
   id="polygon6"
   points="380.8,324.7 473.7,324.7 445.7,456.1 352.9,456.1 "
   class="st1" />
<path
   style="fill:#ffffff;stroke-width:3.48911858"
   id="path8"
   d="m 697.08503,189.47821 c -2.4425,2.09355 -16.05007,4.8848 -16.05007,4.8848 l 2.79136,12.90961 c -0.69781,2.79146 -6.62936,3.8381 -8.72277,3.14039 l -4.18692,-13.95659 c -4.53592,1.74459 -15.35213,2.79136 -15.35213,2.79136 l 2.09345,15.35217 c -1.74467,2.79128 -6.9782,2.79128 -9.76954,1.39571 l -2.79132,-15.00327 c -6.62922,0.34884 -14.65424,-1.04689 -14.65424,-1.04689 l -0.349,12.21196 c 0,0 -5.9314,3.48921 -10.11837,0 l 0.69777,-12.90968 c -6.97827,-0.6978 -15.35204,-2.79136 -15.35204,-2.79136 l -1.74457,13.95659 c -3.8381,2.09346 -6.97831,1.74445 -10.11851,-1.04672 l 2.44245,-15.70106 c -4.18692,-0.349 -11.51423,-3.83796 -11.51423,-3.83796 l -4.18687,13.25858 c 0,0 -6.62933,0.69781 -9.07165,-3.48921 l 4.18693,-13.25857 c -5.58258,-1.74461 -14.65422,-8.72291 -14.65422,-8.72291 l -7.32723,11.51428 c -4.187,1.04663 -7.676,-1.7446 -9.07164,-5.23383 l 8.72263,-12.90956 c -7.67602,-4.88486 -10.11827,-8.02508 -10.11827,-8.02508 l -9.07176,11.86295 c -3.48919,-0.69772 -6.28043,-3.48914 -6.97821,-6.97823 l 8.02498,-11.16514 c -1.04677,-1.04676 -4.53596,-5.23375 -5.23369,-6.97823 -0.6979,-1.74463 -4.53593,-6.97815 -4.53593,-6.97815 l -11.16522,9.76947 c -3.14009,0 -7.32703,-4.187 -6.6293,-8.02496 l 12.90985,-10.81628 -6.9783,-9.07179 -11.51418,8.02495 c -3.48898,0.34894 -6.62925,-4.88457 -6.2804,-9.07167 l 13.9566,-8.02498 C 507.6259,113.06656 503.78784,99.4591 503.78784,99.4591 l -13.95647,5.58253 c -1.74459,-1.04673 -4.88474,-5.58253 -3.4891,-9.76962 l 14.30533,-5.93148 c -0.69775,-1.74448 -2.79132,-11.514018 -2.79132,-11.514018 l -13.95634,2.0934 c -1.74459,-2.0934 -3.48919,-6.62934 -1.74459,-9.76942 l 14.6543,-2.44247 c -0.349,-1.74459 1.39564,-17.09668 1.39564,-17.09668 l -16.04994,-0.34895 c -1.04674,-1.7445 -2.09358,-8.02497 0.3489,-9.76938 l 17.4456,-0.34897 c 0.34881,-3.48916 3.14024,-11.51424 3.14024,-11.51424 l -17.09668,-3.14003 c -0.69809,-2.4424 -1.04678,-8.02501 2.09337,-9.42064 l 16.74777,2.79123 c 0.34889,-4.88476 4.88473,-13.95651 4.88473,-13.95651 l -13.25863,-5.58258 c -0.34896,-2.79129 0.349,-8.0249205 3.83801,-8.3739005 l 14.30541,5.2337205 c 0.34896,-2.44242 5.93143,-9.76949 5.93143,-9.76949 h 11.16518 c -1.3956,1.04677 -1.74455,3.14015 -9.76948,16.74771 -5.58255,9.76951 -8.72275,19.19011 -9.07178,20.58579 -0.34875,1.04674 1.39576,0.69787 -1.39554,10.46736 -2.79131,9.76948 -3.83798,27.91302 -3.83798,31.40207 0,19.190128 8.02482,38.031418 10.46736,44.660728 3.48916,9.07166 9.42058,12.9097 10.46727,16.74781 0.69801,2.09347 1.74455,3.838 3.14015,5.93143 9.07177,16.39892 18.4924,27.91294 45.35854,43.26507 4.88495,2.79137 10.46746,5.93157 20.23699,8.72283 7.32711,1.74449 10.81618,3.1402 20.23691,4.53581 12.56073,2.09355 28.61076,2.4424 30.00633,2.09355 10.81627,-0.3489 25.47057,-3.83797 28.6108,-4.88487 20.23684,-5.23367 24.42393,-10.11833 24.42393,-10.11833 z m 9.42062,-44.6607 c 0,0 -4.88489,6.28042 -20.23686,11.51408 -5.23383,1.7446 -15.00327,4.88479 -19.88808,5.93145 -5.58263,1.3957 -6.62934,2.44253 -19.53901,3.48917 -7.32722,0.34898 -19.19024,1.04674 -34.89119,-3.83797 -10.81624,-3.48922 -6.97827,-2.79128 -8.02492,-2.79128 -1.04684,0 -8.02501,-1.39564 -11.86313,-3.48917 -12.21189,-6.28037 -28.26185,-20.23681 -42.21819,-36.63582 -5.23372,-5.93141 -8.02498,-15.35202 -8.72296,-18.14332 -1.04661,-2.79127 -1.7446,-8.72285 -1.7446,-11.86298 0,-1.39562 -0.34877,-8.373798 -0.34877,-10.467448 -0.69784,-5.93136 -3.83803,-16.04995 -3.48919,-21.28358 0.34891,-5.23365 0.69795,-11.16493 1.39574,-13.2587 1.04667,-2.09334 0.3489,-10.46725 4.8848,-21.28354 3.48899,-8.37393 9.76942,-18.49229 17.09668,-30.35533 3.14017,-4.884701 4.18696,-6.978311 4.18696,-6.978311 h -11.16527 c 0,0 -3.83794,5.5826105 -9.07163,14.654411 -1.04674,2.09334 -2.09358,4.53579 -3.48932,6.62934 -2.09332,3.48909 -8.72264,15.70091 -10.11817,26.86618 -1.39576,11.16522 -3.8381,16.39893 -3.48926,21.98147 0,5.58251 3.48926,20.93461 3.83807,23.37707 0.34878,2.09349 0,17.096648 1.04672,20.236838 1.04661,3.14026 5.93142,16.74784 13.95648,27.913 3.14018,4.53582 23.72604,23.37708 27.913,26.86625 4.18689,3.489 13.25853,9.07165 15.35203,10.11824 2.09349,1.04679 -0.3489,0.34904 18.49236,5.23385 18.84126,4.88479 17.09664,5.58251 30.35533,6.62924 13.25861,0.69791 29.65744,-3.14009 39.42698,-6.28037 9.76948,-3.14025 27.5641,-11.51409 27.5641,-11.51409 z m 8.37375,-39.42698 c -1.74441,4.53579 -15.70103,15.35204 -18.84127,17.4456 -3.48898,2.09342 -5.58255,3.14022 -11.16503,6.62931 -10.11857,5.93154 -25.47058,9.76951 -40.47376,9.07173 -5.93147,-0.34899 -7.67607,-3.48907 -15.70114,-2.79146 -3.14012,0.34902 -11.51398,-1.39554 -18.84117,-4.18682 -14.30541,-5.23375 -19.1902,-14.30534 -23.37707,-18.84125 -4.88482,-4.88471 -10.11848,-17.09665 -11.51425,-19.88793 -1.74452,-3.48918 -3.83788,-8.72287 -5.58252,-11.165218 -1.74458,-2.44237 -2.44236,-11.16521 -2.79117,-12.90969 0,-1.74455 -3.14023,-10.46741 -3.14023,-13.25864 0,-2.79132 3.48904,-17.09676 3.83795,-17.79461 0.34887,-0.69775 0.34887,-6.28042 0.6978,-8.02487 0.34905,-1.74451 -0.6978,-0.34891 4.18698,-13.60755 3.48918,-9.76952 7.3272,-13.95662 10.81628,-18.49245 3.48916,-4.53576 10.81616,-12.211921 10.81616,-12.211921 h -12.21182 c 0,0 -9.76958,10.118571 -14.3054,18.841351 -3.48913,6.28041 -9.76941,25.8194 -9.76941,34.54227 -0.349,8.72268 -2.79143,9.42063 -3.14034,16.04982 -0.34881,6.62938 2.79134,8.72295 4.18693,20.93486 1.39577,11.862988 5.5826,15.700968 6.62945,18.841238 1.39565,3.48908 1.74446,3.48908 6.97815,13.95638 4.18696,7.67616 5.23366,7.67616 6.62929,9.42059 1.39567,1.74464 7.67615,10.11845 9.42063,11.16527 1.74463,1.04665 23.72607,15.00322 39.42702,16.04978 11.1652,0.69799 8.02501,2.44246 15.35224,3.14032 13.95638,1.04678 30.70418,-3.48913 34.54216,-5.23362 9.42063,-4.53585 12.21199,-4.18694 17.79456,-7.32731 9.42063,-5.93141 12.56091,-9.76936 16.74777,-12.56075 z M 689.05999,-14.286269 c 3.8381,0.34899 8.37388,10.816251 13.25867,16.398781 5.23372,6.62939 7.32716,27.21526 6.9782,27.56417 0.69794,-1.74451 0,3.83801 0,6.9782 0,1.04667 1.04673,2.79124 0.34896,11.16514 -1.74449,17.09677 -5.58266,25.12171 -8.37398,30.00649 -4.53573,8.373858 -15.00305,18.841158 -19.88791,21.981338 -9.07159,6.28044 -14.30536,8.37393 -24.07492,9.42064 -5.58259,0.69783 -12.90967,0.34886 -23.02822,-0.69781 -9.07159,-1.04662 -18.8412,-8.72283 -20.2369,-10.4673 -1.39565,-1.7446 -6.28027,-2.79137 -10.46725,-11.51412 -0.34906,-0.69788 -1.04671,-2.44242 -1.39565,-3.14018 -4.18691,-5.582568 -8.37403,-15.003178 -8.02498,-18.841248 0,-1.04668 -1.74459,-8.02499 1.0467,-27.56403 1.7446,-13.95643 7.32722,-20.58584 9.07169,-22.67933 1.74457,-2.09334 3.48922,-5.93147 18.49242,-11.16516 13.60759,-4.53577 6.62925,-1.0468 21.9813,-2.09337 11.16516,-1.04677 24.42388,7.32706 31.05322,13.9564 8.37382,8.02503 9.42056,25.47067 9.07176,30.70428 0,6.28037 -2.4425,7.32708 -3.83814,10.46728 0,0 -1.39565,2.09349 -1.74446,3.4891 -0.69786,7.67613 -13.60758,18.84122 -31.05314,21.28372 -6.28051,0.69777 -11.16529,0 -15.35216,-3.48918 -1.74458,-1.39566 -3.48913,-3.14012 -3.48913,-4.88468 -0.34881,-2.09358 -2.79123,-0.69794 -7.67608,-16.05002 -0.69775,-2.09342 -1.04674,-10.11847 0,-16.3988 2.44246,-11.86311 16.3989,-15.3522 21.28371,-15.3522 7.32704,0.34892 13.25862,4.18695 14.65425,6.62929 1.39566,2.44246 2.7913,7.32725 2.7913,12.56081 0,4.88482 -4.53597,9.42069 -10.81624,10.1186 -6.28052,0.69766 -9.42063,-3.4892 -10.81635,-4.18692 -1.39555,-1.04686 -6.62921,4.18692 -5.58252,8.02489 0.69772,3.83808 9.07169,6.97828 15.35198,6.97828 8.02513,0 15.70119,-5.93152 18.14351,-9.07181 1.04671,-1.39556 4.187,-8.02496 3.83806,-12.21188 -0.34896,-4.18698 -2.09344,-15.70093 -5.93146,-19.53905 -3.83815,-3.83798 -11.16513,-8.37377 -21.63253,-8.37377 -9.76956,0 -17.09675,3.83788 -22.33045,9.42048 -2.0934,2.4424 -9.42062,8.37393 -8.72274,23.02825 0.69773,14.65425 5.93153,23.37709 10.46734,29.30853 1.04673,1.39569 -0.69786,1.74458 4.53593,5.931538 8.02494,6.28036 13.95635,7.32702 20.23685,7.32702 3.14011,0 5.93141,-1.74443 13.95648,-3.14005 11.86291,-2.09354 19.53905,-11.514168 24.07479,-16.747868 3.14023,-3.83793 3.83809,-10.11833 5.23368,-10.81621 3.14021,-1.39569 3.83814,-12.21195 3.83814,-12.9098 0.34881,-1.04646 0.69775,-2.79114 0.34881,-6.97813 -0.34881,-15.3522 -5.23357,-23.02819 -8.37374,-27.91291 -3.14028,-4.88483 -16.74781,-14.30547 -19.88808,-15.35214 -3.14009,-1.04676 -9.42063,-5.5826405 -20.58569,-4.53592 -13.25879,1.0468 -15.00327,-0.3488305 -23.72615,2.79123 -2.09339,0.69793 -10.11836,1.04679 -20.58579,9.76955 -3.83801,3.14027 -6.28037,8.02497 -6.97812,9.07175 -4.8848,7.3272 -10.11861,11.86304 -10.11861,39.42703 0,19.88794 2.79129,26.16842 9.42061,34.193418 2.09362,2.44244 2.79137,5.23366 3.48925,6.62924 2.79125,5.58256 10.11835,12.21197 16.74768,16.3989 9.07172,5.93148 9.76962,6.62936 20.93483,8.02492 13.95638,2.09346 15.35202,1.74457 25.81936,0.69781 10.46744,-1.39565 18.84123,-6.62928 20.23688,-7.32704 1.39564,-0.69796 5.23383,-2.09356 8.374,-5.23367 3.14019,-2.79131 3.83799,-3.83817 8.72279,-9.07174 10.11847,-10.81632 10.11847,-11.16521 13.60754,-18.841238 0.69776,-1.74459 6.28034,-13.60764 6.28034,-16.39896 0,-1.74442 0.6979,-11.16503 1.39568,-18.84117 0,-1.39568 -0.34893,-3.48906 -0.34893,-4.88472 0,-2.44238 1.04663,-3.83799 1.04663,-4.88479 0,-4.18691 -0.6977,-17.09669 -3.48901,-23.37707 -2.79123,-5.93156 -1.7446,-8.02498 -4.18695,-11.51416 -2.44225,-3.83806 -8.37389,-13.258631 -8.37389,-13.258631 z"
   class="st2" />
<path
   style="fill:#0093b1;stroke-width:3.48911858"
   id="path10"
   d="M 148.4538,307.80767 H 35.057507 l -10.118438,47.10314 v 0 L 2.6087167,459.23537 H 75.88021 l 11.165266,-51.9879 h 36.635614 c 50.94111,0 67.68894,-18.49224 75.01599,-51.63886 7.3272,-31.40207 -10.46724,-47.80094 -50.24328,-47.80094 z m -20.23689,48.84767 c -0.34885,2.4424 -1.04675,5.93145 -3.83801,9.42064 -3.48901,3.838 -9.07158,6.6293 -15.00322,6.6293 H 94.721466 L 98.21062,357.0042 v 0 -0.34886 l 0.34881,-1.74453 v 0 l 2.0935,-10.46741 h 13.60757 c 10.1184,0 15.701,3.83801 13.95641,12.21194 z m 196.43739,10.81625 h 0.69775 l 12.56082,-59.31503 h 72.22482 l -26.86627,127.0038 H 293.6012 l -12.90983,-57.57027 c 0,0 -0.34882,-1.04686 -0.34882,-3.14028 0,0 -0.34893,0 -0.34893,0 0,2.44242 0,3.14028 0,3.14028 l -12.56086,57.57027 h -72.57372 l 26.86628,-127.0038 h 92.11275 l 11.16522,56.17485 c -0.34899,-0.34901 0,1.04656 -0.34899,3.14018 z m 205.16022,-7.67613 22.33034,-51.98779 h 109.90718 l -26.86619,127.00391 h -72.57366 l 13.25865,-62.45517 c 0,0 0.34885,-1.39572 1.04672,-3.48921 h -0.34891 c -0.69781,2.09349 -1.39572,3.48921 -1.39572,3.48921 l -32.79756,62.1063 h -51.29009 l -6.62938,-62.45532 c 0,0 0,-1.0467 0,-3.48906 h -0.69776 c 0,2.09344 -0.349,3.48906 -0.349,3.48906 l -13.60755,62.45532 h -72.22465 l 26.86619,-127.00396 h 102.23099 l 1.39568,51.98781 c 0,0 0,2.0935 -0.34886,4.18691 h 0.69789 c 0.69774,-2.09341 1.39569,-3.83801 1.39569,-3.83801 z"
   class="st0" />
</svg>