<svg width="166" height="92" viewBox="0 0 166 92" fill="none" xmlns="http://www.w3.org/2000/svg">
<path fill-rule="evenodd" clip-rule="evenodd" d="M64.6 48.3002H57.9V77.8002H65V68.0002C66.5 69.6002 68.6 70.4002 70.8 70.4002C75.6 70.4002 79.5 66.5002 79.5 59.0002C79.5 55.1002 78.4 52.6002 77.2 51.0002C75.6 49.0002 73.2 47.8002 70.7 47.8002C68.4 47.8002 66.2 48.7002 64.6 50.3002V48.3002ZM72.5 58.9002C72.5 60.0002 72.5 62.3002 71.5 63.9002C70.9 64.8002 69.8 65.4002 68.7 65.3002C65.8 65.3002 65 62.3002 65 59.2002C65 56.1002 65.8 53.0002 68.7 53.0002C72.3 53.1002 72.5 57.7002 72.5 58.9002ZM39.7 48.3002H33V77.8002H40.1V68.0002C41.6 69.6002 43.7 70.4002 45.9 70.4002C50.7 70.4002 54.6 66.5002 54.6 59.0002C54.6 55.1002 53.5 52.6002 52.3 51.0002C50.7 49.0002 48.3 47.8002 45.8 47.8002C43.5 47.8002 41.3 48.7002 39.7 50.3002V48.3002ZM47.6 58.9002C47.6 60.0002 47.6 62.3002 46.6 63.9002C46 64.8002 44.9 65.4002 43.8 65.3002C40.9 65.3002 40 62.3002 40 59.2002C40 56.1002 40.8 53.0002 43.7 53.0002C47.4 53.1002 47.5 57.7002 47.6 58.9002ZM83 39.3002V70.0002H90.1V35.2002L83 39.3002Z" fill="#001689"/>
<path fill-rule="evenodd" clip-rule="evenodd" d="M108.7 76.9L105.2 73.9C106.1 73.1 106.9 72.3 107.7 71.4L110.7 74.9C110 75.6 109.4 76.3 108.7 76.9ZM113.9 81.3L110.3 78.2C110.9 77.6 111.5 77 112 76.4L115.1 80C114.7 80.5 114.3 80.9 113.9 81.3ZM118.7 85.4L116 83.1C116.3 82.8 116.6 82.5 116.9 82.2L119.2 84.9C119.1 85.1 118.9 85.3 118.7 85.4ZM108.5 67.6L104.5 65.7L106.7 61.9L110.3 64.4C109.8 65.5 109.2 66.6 108.5 67.6ZM114.2 70.3L110.1 68.3C110.7 67.3 111.3 66.3 111.9 65.3L115.7 67.9C115.1 68.7 114.7 69.6 114.2 70.3ZM120.3 73.3L116 71.2C116.4 70.5 116.8 69.8 117.2 69.1L121.1 71.8C120.9 72.3 120.6 72.8 120.3 73.3ZM126.1 76L122.9 74.4C123.1 74 123.3 73.7 123.6 73.3L126.6 75.3C126.3 75.6 126.2 75.8 126.1 76ZM111.6 61.4L107.3 60.6L108.4 56.3L112.5 57.8C112.4 59 112 60.3 111.6 61.4ZM117.8 62.6L113.3 61.7C113.7 60.6 114 59.5 114.2 58.3L118.5 59.8C118.3 60.8 118.1 61.7 117.8 62.6ZM124.5 63.8L119.8 62.9C120 62.1 120.2 61.3 120.4 60.5L124.9 62.1C124.8 62.7 124.7 63.3 124.5 63.8ZM130.7 65L127.2 64.3C127.3 63.9 127.4 63.5 127.6 63.1L131 64.3C130.9 64.5 130.8 64.8 130.7 65ZM113 54.7L108.6 55V50.6L113 50.9C113 51.5 113.1 52.2 113.1 52.8C113.1 53.4 113.1 54 113 54.7ZM119.3 54.2L114.7 54.6C114.7 54 114.7 53.4 114.7 52.8C114.7 52.2 114.7 51.6 114.7 51L119.3 51.4C119.3 51.9 119.3 52.3 119.3 52.8C119.3 53.3 119.3 53.7 119.3 54.2ZM126.1 53.6L121.3 54C121.3 53.6 121.3 53.2 121.3 52.8C121.3 52.4 121.3 52 121.3 51.6L126.1 52V53.6ZM132.4 53.2L128.8 53.5V52.2L132.4 52.5V53.2ZM112.6 47.7L108.5 49.2L107.4 44.9L111.7 44.1C112 45.3 112.4 46.5 112.6 47.7ZM118.5 45.7L114.2 47.2C114 46.1 113.7 44.9 113.3 43.8L117.8 42.9C118.1 43.9 118.3 44.8 118.5 45.7ZM125 43.4L120.5 45C120.3 44.2 120.1 43.4 119.9 42.6L124.6 41.7C124.7 42.3 124.8 42.8 125 43.4ZM130.9 41.3L127.5 42.5C127.4 42.1 127.3 41.7 127.1 41.3L130.6 40.6C130.8 40.8 130.9 41 130.9 41.3ZM110.4 41.2L106.8 43.7L104.6 39.8L108.6 37.9C109.2 39 109.9 40 110.4 41.2ZM115.6 37.6L111.8 40.2C111.3 39.2 110.7 38.1 110 37.2L114.1 35.2C114.7 36 115.1 36.8 115.6 37.6ZM121.2 33.8L117.3 36.5C116.9 35.8 116.5 35.1 116.1 34.4L120.4 32.3C120.6 32.8 120.9 33.3 121.2 33.8ZM126.4 30.2L123.4 32.2L122.7 31.1L125.9 29.5C126.2 29.8 126.3 30 126.4 30.2ZM106.6 35.4L103.8 38.7L100.7 35.6L104 32.8C104.9 33.6 105.8 34.5 106.6 35.4ZM110.7 30.7L107.7 34.2C106.9 33.3 106.1 32.5 105.2 31.7L108.7 28.7C109.4 29.3 110 30 110.7 30.7ZM115.1 25.4L112 29C111.4 28.4 110.9 27.8 110.3 27.2L113.9 24.1C114.3 24.6 114.7 25 115.1 25.4ZM119.2 20.6L116.9 23.3C116.6 23 116.3 22.7 116 22.4L118.7 20.1C118.9 20.3 119.1 20.5 119.2 20.6ZM101.4 30.8L99.5 34.8L95.7 32.6L98.2 29C99.3 29.5 100.4 30.1 101.4 30.8ZM104.1 25.2L102.1 29.3C101.1 28.7 100.1 28.1 99.1 27.5L101.7 23.7C102.5 24.2 103.3 24.7 104.1 25.2ZM107.1 19L105 23.3C104.3 22.9 103.6 22.4 102.9 22.1L105.6 18.2C106.1 18.4 106.6 18.7 107.1 19ZM109.8 13.3L108.2 16.5C107.8 16.3 107.5 16.1 107.1 15.9L109.1 12.9C109.4 13 109.6 13.2 109.8 13.3ZM95.2 27.7L94.4 32L90.1 30.8L91.6 26.7C92.8 27 94 27.3 95.2 27.7ZM96.4 21.6L95.6 26.1C94.5 25.7 93.4 25.4 92.2 25.2L93.7 20.9C94.6 21.1 95.5 21.3 96.4 21.6ZM97.6 14.9L96.7 19.6C95.9 19.4 95.1 19.1 94.3 19L95.9 14.5C96.5 14.6 97.1 14.7 97.6 14.9ZM98.8 8.6L98.1 12.1L96.8 11.8L98 8.4L98.8 8.6ZM69.2 32.8L72.6 35.6L69.4 38.7L66.5 35.4C67.4 34.5 68.2 33.6 69.2 32.8ZM64.4 28.7L67.9 31.7C67 32.5 66.2 33.3 65.4 34.2L62.4 30.7C63.1 30 63.7 29.3 64.4 28.7ZM59.2 24.2L62.8 27.3C62.2 27.9 61.6 28.4 61.1 29.1L58 25.5C58.4 25 58.8 24.6 59.2 24.2ZM54.4 20.1L57.1 22.4C56.8 22.7 56.5 23 56.2 23.3L53.9 20.6C54.1 20.4 54.3 20.3 54.4 20.1ZM75 28.9L77.5 32.5L73.7 34.7L71.8 30.7C72.7 30.1 73.8 29.5 75 28.9ZM71.4 23.8L74 27.6C73 28.1 71.9 28.7 71 29.4L69 25.3C69.8 24.6 70.6 24.2 71.4 23.8ZM67.5 18.1L70.2 22C69.5 22.4 68.8 22.8 68.1 23.2L66.1 18.9C66.5 18.7 67.1 18.4 67.5 18.1ZM64 12.9L66 15.9C65.6 16.1 65.3 16.3 64.9 16.5L63.4 13.3C63.5 13.2 63.7 13 64 12.9ZM81.5 26.8L82.9 30.9L78.6 32.1L77.8 27.8C79.1 27.3 80.3 27 81.5 26.8ZM79.4 20.8L80.9 25.1C79.8 25.3 78.6 25.6 77.5 26L76.7 21.5C77.6 21.3 78.5 21 79.4 20.8ZM77.1 14.4L78.7 18.9C77.9 19.1 77.1 19.3 76.3 19.5L75.5 14.9C76.1 14.7 76.6 14.6 77.1 14.4ZM75 8.4L76.2 11.8L75 12.1L74.3 8.6C74.6 8.6 74.8 8.5 75 8.4ZM88.4 26.3L88.8 30.7H84.4L84.8 26.3C85.4 26.3 86 26.2 86.7 26.2C87.4 26.2 87.8 26.3 88.4 26.3ZM88 20.1L88.4 24.7C87.8 24.7 87.2 24.6 86.6 24.6C86 24.6 85.4 24.6 84.9 24.7L85.3 20.1C85.8 20.1 86.2 20.1 86.7 20.1C87.2 20.1 87.5 20.1 88 20.1ZM87.4 13.3L87.8 18.1C87.4 18.1 87 18.1 86.5 18.1C86 18.1 85.7 18.1 85.3 18.1L85.7 13.3C85.7 13.3 87.4 13.3 87.4 13.3ZM86.9 7L87.2 10.6H85.9L86.2 7H86.9ZM103.9 72.8L100.6 70L103.8 66.9L106.6 70.2C105.8 71.1 104.9 72 103.9 72.8Z" fill="#0082CA"/>
<path d="M118.6 79.1002C118.6 78.8002 118.6 78.6002 118.7 78.4002C118.8 78.2002 118.9 77.9002 119 77.7002C119.1 77.5002 119.3 77.3002 119.4 77.1002C119.7 76.8002 120.1 76.5002 120.6 76.4002C121.1 76.3002 121.5 76.3002 122 76.4002C122.2 76.5002 122.4 76.6002 122.6 76.7002C122.8 76.8002 123 77.0002 123.1 77.1002C123.3 77.3002 123.4 77.5002 123.5 77.7002C123.6 77.9002 123.7 78.1002 123.8 78.4002C123.9 78.6002 123.9 78.9002 123.9 79.1002C123.9 79.4002 123.9 79.6002 123.8 79.9002C123.7 80.1002 123.7 80.4002 123.5 80.6002C123.4 80.8002 123.2 81.0002 123.1 81.2002C122.9 81.4002 122.8 81.5002 122.6 81.6002C122.4 81.7002 122.2 81.8002 122 81.9002C121.3 82.1002 120.6 82.0002 120 81.6002C119.8 81.5002 119.6 81.3002 119.5 81.2002C119.3 81.0002 119.2 80.8002 119.1 80.6002C119 80.4002 118.9 80.2002 118.8 79.9002C118.6 79.6002 118.6 79.4002 118.6 79.1002ZM118.9 79.1002C118.9 79.3002 118.9 79.5002 119 79.8002C119.1 80.0002 119.1 80.2002 119.2 80.4002C119.4 80.8002 119.7 81.1002 120 81.3002C120.2 81.4002 120.4 81.5002 120.6 81.5002C121 81.6002 121.4 81.6002 121.8 81.5002C122 81.4002 122.2 81.4002 122.4 81.3002C122.6 81.2002 122.7 81.1002 122.9 80.9002C123 80.8002 123.2 80.6002 123.3 80.4002C123.4 80.2002 123.5 80.0002 123.5 79.8002C123.7 79.2002 123.6 78.5002 123.3 77.9002C123.2 77.7002 123.1 77.6002 122.9 77.4002C122.8 77.3002 122.6 77.1002 122.4 77.0002C122.2 76.9002 122 76.8002 121.8 76.8002C121.6 76.7002 121.4 76.7002 121.2 76.7002C120.9 76.7002 120.6 76.8002 120.3 76.9002C120 77.0002 119.8 77.2002 119.6 77.4002C119.4 77.6002 119.2 77.9002 119.1 78.2002C119 78.4002 118.9 78.8002 118.9 79.1002ZM120.6 79.3002V80.6002H120.2V77.5002H121.2C121.5 77.5002 121.8 77.6002 122 77.7002C122.2 77.9002 122.3 78.1002 122.3 78.4002C122.3 78.6002 122.3 78.7002 122.2 78.8002C122.1 78.9002 122 79.0002 121.8 79.1002C122 79.1002 122.1 79.3002 122.2 79.4002C122.3 79.5002 122.3 79.7002 122.3 79.9002V80.1002C122.3 80.2002 122.3 80.3002 122.3 80.4002C122.3 80.5002 122.3 80.5002 122.4 80.6002V80.7002H122V80.6002C122 80.5002 122 80.5002 122 80.4002C122 80.3002 122 80.3002 122 80.3002V79.9002C122 79.7002 122 79.6002 121.9 79.5002C121.8 79.4002 121.6 79.3002 121.4 79.4002L120.6 79.3002ZM120.6 79.0002H121.3C121.4 79.0002 121.5 79.0002 121.6 79.0002C121.7 79.0002 121.8 78.9002 121.8 78.9002C121.9 78.9002 121.9 78.8002 122 78.7002C122 78.6002 122.1 78.5002 122.1 78.5002C122.1 78.4002 122.1 78.3002 122.1 78.2002C122.1 78.1002 122 78.1002 122 78.0002C121.9 77.9002 121.8 77.9002 121.8 77.9002C121.7 77.9002 121.6 77.9002 121.4 77.9002H120.8L120.6 79.0002Z" fill="#0082CA"/>
</svg>
