<?xml version="1.0" encoding="utf-8"?>
<!-- Generator: Adobe Illustrator 19.2.0, SVG Export Plug-In . SVG Version: 6.00 Build 0)  -->
<svg version="1.1" id="Layer_2" xmlns="http://www.w3.org/2000/svg" xmlns:xlink="http://www.w3.org/1999/xlink" x="0px" y="0px"
	 viewBox="0 0 266.3 36.9" style="enable-background:new 0 0 266.3 36.9;" xml:space="preserve">
<style type="text/css">
	.st0{fill:#E77613;}
</style>
<g id="Layer_1_1_">
	<path class="st0" d="M18.2,0.6C8.2,0.6,0,8.8,0,18.7s8.2,18.2,18.2,18.2h25.2v-4.7H18.2c-7.5,0-13.5-6.1-13.5-13.5
		c0-7.5,6-13.5,13.5-13.5h25.2V0.6H18.2"/>
	<path class="st0" d="M18.5,13.1h24.7V8.3H18.5C12.7,8.3,8.1,13,8.1,18.7s4.7,10.4,10.4,10.4h24.7v-4.7H18.5c-3.2,0-5.8-2.6-5.8-5.8
		S15.4,13.1,18.5,13.1"/>
	<path class="st0" d="M16,18.7c0,1.2,1,2.4,2.4,2.4h24.9v-4.7H18.4C17.1,16.5,16,17.5,16,18.7"/>
	<path class="st0" d="M57.9,29.6c4.9,0,7-3.4,7-11s-2.2-11-7-11s-7,3.4-7,11S53,29.6,57.9,29.6 M57.9,27.1c-2,0-3.6-1.2-3.6-8.6
		c0-7.1,1.6-8.4,3.6-8.4s3.6,1.2,3.6,8.4C61.5,25.9,59.9,27.1,57.9,27.1z"/>
	<path class="st0" d="M67.7,13.3h3.2v2.5l0,0c0.7-1.7,1.9-3,3.7-3c0.3,0,0.6,0.1,0.8,0.1v3.3c-0.2-0.1-0.8-0.2-1.4-0.2
		c-1.5,0-3.2,0.7-3.2,3.6v9.5h-3.2L67.7,13.3"/>
	<path class="st0" d="M84.3,20.8c-0.8,0.7-2.6,1-3.6,1.5c-0.9,0.5-1.2,1.4-1.2,2.6c0,1.4,0.7,2.4,2,2.4c1.9,0,2.8-1.5,2.8-3.7
		L84.3,20.8 M87.4,25.9c0,0.6,0.3,1.1,0.8,1.1c0.2,0,0.5,0,0.6-0.1v2c-0.3,0.2-0.9,0.3-1.6,0.3c-1.5,0-2.6-0.6-2.7-2.2h-0.1
		c-0.8,1.6-2.2,2.4-4,2.4c-2.6,0-4.2-1.5-4.2-4.5c0-3.5,1.6-4.3,3.7-5l2.5-0.7c1.1-0.3,1.8-0.7,1.8-2c0-1.5-0.5-2.4-2.2-2.4
		c-2.2,0-2.4,1.5-2.4,3.1h-3.1c0-3.4,1.4-5.2,5.7-5.2c2.8,0,5.1,1.1,5.1,4V25.9L87.4,25.9z"/>
	<path class="st0" d="M90.7,13.3h3.1v1.8h0.1c0.8-1.5,2.3-2.3,4.1-2.3c2.4,0,4,1.1,4,4.3v12h-3.2v-11c0-2-0.7-2.8-2.2-2.8
		c-1.2,0-2.6,1-2.6,3.2v10.7h-3.2L90.7,13.3"/>
	<path class="st0" d="M105.1,30.7c0,1.2,0.6,4.1,5.2,4.1c4.3,0,6-2.4,6-6.2V13.3h-3.1v1.9h-0.1c-0.3-1.1-1.6-2.4-3.5-2.4
		c-4.5,0-5.1,4.8-5.1,8.2c0,4.3,1,8.1,4.8,8.1c1.6,0,3.1-0.8,3.6-2.2h0.1v2.6c0,1.8-1,3-2.7,3c-1.5,0-2.3-0.9-2.3-1.9L105.1,30.7
		 M107.9,20.8c0-3,0.3-5.3,2.7-5.3c2.3,0,2.6,2.8,2.6,5.4c0,2.5-0.2,5.7-2.7,5.7C108,26.6,107.9,23.5,107.9,20.8z"/>
	<path class="st0" d="M130.3,21.7V20c0-4.4-1.2-7.1-5.7-7.1c-5,0-5.9,4.4-5.9,8.6c0,7.4,3.2,8.2,5.9,8.2c3.5,0,5.7-2.2,5.7-5.8h-3.1
		c0,0.9-0.2,3.5-2.6,3.5c-2.4,0-2.7-2.7-2.7-4.9v-0.9L130.3,21.7 M122,19.4v-0.3c0-2,0.7-4.1,2.7-4.1c1.8,0,2.5,1.6,2.5,3.6v0.8H122
		L122,19.4z"/>
	<path class="st0" d="M145.8,15.7l-0.5-0.7c-0.6-0.8-1.2-1.8-1.2-3c0-1.4,1.1-1.8,2-1.8c1.2,0,2,0.7,2,2c0,1.1-0.8,2-1.6,2.7
		L145.8,15.7 M147.3,17.6l1.1-0.8c1.5-1.1,2.6-2.5,2.6-4.4c0-3.5-3.1-4.3-4.7-4.3c-2.8,0-5.1,1.5-5.1,4.5c0,1.1,0.7,2.3,1.4,3.5
		l0.8,1.2l-1.4,1c-1.8,1.4-3,3.2-3,5.6c0,2.2,1.4,5.9,6.2,5.9c2.4,0,4-1,5.3-2.2l1.2,1.8h3.6l-2.8-4.1c1.5-2,1.8-4.7,1.8-5.8v-0.2
		h-2.7v0.5c0,1.1-0.3,2.4-0.8,3.2L147.3,17.6z M144.9,19.3l4.3,6.1c-0.8,0.9-1.8,1.7-3.3,1.7c-1.9,0-3.6-1.5-3.6-3.4
		c0-1.6,0.7-2.7,1.9-3.7L144.9,19.3z"/>
	<path class="st0" d="M164.4,29.3h3.4v-9.2h2.7c2.3,0,3.1,1,3.1,3.3c0.1,1.6,0,2.7,0.1,4c0.1,0.8,0.2,1.5,0.6,1.8h3.9
		c-0.5-0.3-0.9-0.8-1-1.8c-0.1-1.2-0.1-3-0.1-4.3c-0.1-3-1.2-4.1-3.3-4.3v0c2.3-0.3,3.5-2.5,3.5-5.2c0-4-2.4-5.4-5.3-5.4h-7.5V29.3
		 M167.8,17.5v-6.9h2.8c2.2,0,3.2,1.2,3.2,3.4s-1.2,3.4-3.4,3.4C170.6,17.5,167.8,17.5,167.8,17.5z"/>
	<path class="st0" d="M179.5,21.2c0,5,1.5,8.4,5.9,8.4s6-3.4,6-8.4s-1.2-8.4-6-8.4C180.9,12.8,179.5,16.2,179.5,21.2 M182.8,21.2
		c0-3.5,0.5-6,2.7-6c2.4,0,2.7,2.5,2.7,6c0,4.1-0.5,6-2.7,6C183.2,27.3,182.8,25.3,182.8,21.2z"/>
	<path class="st0" d="M204.7,23.4c-0.2,3.9-1.5,6.2-5.4,6.2c-4.7,0-5.9-3.4-5.9-8.4s1.2-8.4,5.9-8.4c4.8-0.1,5.4,3.7,5.4,5.7h-3.2
		c0-1.5-0.5-3.4-2.3-3.4c-2.3,0-2.7,2.5-2.7,6c0,3.5,0.5,6,2.7,6c1.8,0,2.4-1.5,2.4-3.9L204.7,23.4"/>
	<polyline class="st0" points="206.6,8.1 209.9,8.1 209.9,20 209.9,20 214.8,13.3 218.6,13.3 213.7,19.4 219.1,29.3 215.6,29.3 
		211.8,22 209.9,24.2 209.9,29.3 206.6,29.3 206.6,8.1 	"/>
	<rect x="220.6" y="8.1" class="st0" width="3.2" height="21.2"/>
	<path class="st0" d="M237.5,16.8c0-2.8-2.3-4-5.1-4c-4.2,0-5.7,1.8-5.7,5.2h3.1c0-1.6,0.3-3.1,2.4-3.1c1.7,0,2.2,0.9,2.2,2.4
		c0,1.4-0.7,1.7-1.8,2l-2.5,0.7c-2.2,0.7-3.7,1.5-3.7,5c0,3.1,1.6,4.5,4.2,4.5c1.8,0,3.2-0.8,4-2.4h0.1c0.1,1.6,1.2,2.2,2.7,2.2
		c0.7,0,1.2-0.2,1.6-0.3v-2c-0.1,0.1-0.3,0.1-0.6,0.1c-0.5,0-0.8-0.6-0.8-1.1L237.5,16.8 M234.4,23.5c0,2.4-0.9,3.7-2.8,3.7
		c-1.4,0-2-1-2-2.4c0-1.2,0.3-2.2,1.2-2.6c0.9-0.5,2.7-0.8,3.6-1.5V23.5z"/>
	<path class="st0" d="M240.8,13.3h3.1v1.8h0.1c0.8-1.5,2.3-2.3,4.1-2.3c2.4,0,4,1.1,4,4.3v12h-3.2v-11c0-2-0.7-2.8-2.3-2.8
		c-1.2,0-2.5,1-2.5,3.2v10.7h-3.2L240.8,13.3"/>
	<path class="st0" d="M263.3,29.3h3.1V8.1h-3.2v7.1H263c-0.6-1.5-1.9-2.3-3.6-2.3c-2.4,0-4.9,1.1-4.9,8.2c0,5.4,1.5,8.6,5.2,8.6
		c2.3,0,3.1-1.4,3.5-2.4h0.1L263.3,29.3 M263.3,21.5c0,3.4-0.5,5.7-2.7,5.7s-2.7-2.3-2.7-5.9c0-4.3,0.7-5.8,2.5-5.8
		C262.8,15.5,263.3,17.7,263.3,21.5z"/>
</g>
</svg>
