<?xml version="1.0" encoding="utf-8"?>
<!-- Generator: Adobe Illustrator 26.3.1, SVG Export Plug-In . SVG Version: 6.00 Build 0)  -->
<svg version="1.1" id="Layer_1" xmlns="http://www.w3.org/2000/svg" xmlns:xlink="http://www.w3.org/1999/xlink" x="0px" y="0px"
	 viewBox="0 0 219.5 39.2" style="enable-background:new 0 0 219.5 39.2;" xml:space="preserve">
<style type="text/css">
	.st0{fill:#231F20;}
	.st1{fill-rule:evenodd;clip-rule:evenodd;fill:#231F20;}
	.st2{fill:#EA0029;}
</style>
<g>
	<g>
		<g>
			<path class="st0" d="M83.2,0.1v5.9l5.3-5.9h3.4l-5.4,6l5.5,6.3h-3.6l-5.1-6.1v6.1h-2.8V0.1H83.2L83.2,0.1z"/>
			<path class="st0" d="M96.2,0.1l3.3,4.7l3.4-4.7h3.3L101,7v5.4h-2.8V7L93,0.1L96.2,0.1L96.2,0.1z"/>
			<path class="st0" d="M116.6,0.1l3.4,9.4l3.4-9.4h4.1v12.3h-2.8l0.2-9.6l-3.4,9.6h-3L115,2.8l0.3,9.7h-2.9V0.1H116.6L116.6,0.1z"
				/>
			<path class="st0" d="M146,7.5c0,2.2,0.7,3.1,3,3.1s3-0.9,3-3.1V0.1h2.8v7.4c0,1.6-0.2,2.7-0.8,3.3c-1.1,1.2-2.7,1.7-5.1,1.7
				s-4-0.5-5.1-1.7c-0.6-0.7-0.8-1.7-0.8-3.3V0.1h2.8V7.5z"/>
			<path class="st0" d="M159.9,0.1l5.5,8.8l-0.1-8.8h2.9v12.3h-3.3l-5.8-9.3l0.1,9.3h-2.9V0.1H159.9L159.9,0.1z"/>
			<path class="st0" d="M169.5,2.3V0.2h11.6v2.1h-4.4v10.2h-2.9V2.3H169.5L169.5,2.3z"/>
			<path class="st0" d="M194.8,12.5V0.1h3v12.3H194.8z"/>
			<path class="st0" d="M202.9,0.1l5.5,8.8l-0.1-8.8h2.9v12.3h-3.3l-5.8-9.3l0.1,9.3h-2.9V0.1H202.9L202.9,0.1z"/>
		</g>
		<g>
			<path class="st1" d="M61.2,15.6c2.3,0,6.4,0.3,6.4,6.4c0,5.7-3.8,6.2-6.3,6.2c-2.3,0-6.5-0.4-6.5-6.2S58.9,15.6,61.2,15.6
				L61.2,15.6L61.2,15.6z M61.1,25.7c2.2,0,3.7-0.7,3.7-4c0-3.6-1.7-4.1-3.7-4.1s-3.7,0.6-3.7,4.1C57.5,25.1,59.2,25.7,61.1,25.7
				L61.1,25.7z"/>
			<polygon class="st1" points="79.7,23.4 79.7,23.4 82,15.7 84.7,15.7 81,27.9 78.4,27.9 75.9,20.3 73.3,27.9 70.9,27.9 67,15.7 
				69.7,15.7 72.1,23.4 74.5,15.7 77.2,15.7 79.7,23.4 			"/>
			<polygon class="st1" points="94.9,17.9 88,17.9 88,20.5 94,20.5 94,22.9 88,22.9 88,25.8 94.9,25.8 94.9,27.9 85.4,27.9 
				85.4,15.7 94.9,15.7 94.9,17.9 			"/>
			<path class="st1" d="M102.7,23.3h-4v4.7h-2.4V15.6h7c3.4,0,3.8,2.5,3.8,3.6c0,1.6-0.7,3-2.1,3.5l3.4,5.2h-2.8L102.7,23.3
				L102.7,23.3L102.7,23.3z M102.6,21c1.2,0,2-0.5,2-1.7c0-0.6-0.4-1.6-1.8-1.6h-4.2V21L102.6,21L102.6,21z"/>
			<path class="st1" d="M44.9,27.9h-2.4V15.7h8c2,0,2.8,0.7,3.4,2c0.4,0.9,0.3,2.8,0.1,3.8c-0.4,1.9-1.8,2.5-3.3,2.5h-5.8L44.9,27.9
				C44.9,27.9,44.9,27.9,44.9,27.9z M49.8,21.8c1.3,0,2-0.3,2-2c0-1.5-0.6-2.1-2.2-2.1h-4.7v4.1H49.8L49.8,21.8z"/>
		</g>
		<g>
			<polygon class="st2" points="40,14.8 33,20.1 32,20.1 40,13 40,11.5 29,20.1 28,20.1 40,9.1 40,8 25.1,20.1 24.1,20.1 40,4.8 
				40,4.2 21,20.1 40,39.1 40,17.8 36.9,20.1 36,20.1 40,16.7 			"/>
			<polygon class="st2" points="20.5,19.6 40,0.2 40,0.2 1.1,0.2 			"/>
		</g>
		<path class="st1" d="M48.9,7.7h-4v4.7h-2.4V0.1h7c3.4,0,3.8,2.5,3.8,3.6c0,1.6-0.7,3-2.1,3.5l3.4,5.2h-2.8L48.9,7.7L48.9,7.7
			L48.9,7.7z M48.9,5.5c1.2,0,2-0.5,2-1.7c0-0.6-0.4-1.6-1.8-1.6h-4.2v3.2L48.9,5.5L48.9,5.5z"/>
		<path class="st1" d="M61.4,0.1c2.3,0,6.4,0.3,6.4,6.4c0,5.7-3.8,6.2-6.3,6.2c-2.3,0-6.5-0.4-6.5-6.2S59.1,0.1,61.4,0.1L61.4,0.1
			L61.4,0.1z M61.4,10.3c2.2,0,3.7-0.7,3.7-4c0-3.6-1.7-4.1-3.7-4.1s-3.7,0.6-3.7,4.1C57.7,9.6,59.4,10.3,61.4,10.3L61.4,10.3z"/>
		<path class="st0" d="M71.2,6.5c0,2.8,1.8,3.7,4.3,3.7h3.1v2.2h-3.3c-1.7,0-3-0.1-4.4-1.1c-1.4-1-2.1-2.6-2.1-4.9
			C68.9,2,71,0,75.5,0h3.2v2.1h-3.1C73,2.1,71.2,3.4,71.2,6.5L71.2,6.5z"/>
		<path class="st1" d="M135.5-0.1c2.3,0,6.4,0.3,6.4,6.4c0,5.7-3.8,6.2-6.3,6.2c-2.3,0-6.5-0.4-6.5-6.2S133.3-0.1,135.5-0.1
			L135.5-0.1L135.5-0.1z M135.5,10c2.2,0,3.7-0.7,3.7-4c0-3.6-1.7-4.1-3.7-4.1s-3.7,0.6-3.7,4.1C131.9,9.3,133.6,10,135.5,10
			L135.5,10z"/>
		<path class="st1" d="M182,12.4h-2.8L185.3,0h2.3l5.9,12.4h-2.7l-1.1-2.3h-6.4L182,12.4L182,12.4L182,12.4z M184.2,7.9h4.4
			l-2.2-4.4h0L184.2,7.9L184.2,7.9L184.2,7.9z"/>
	</g>
	<g>
		<path class="st0" d="M110.7,26.3h0.2l0.4,0.8h0.5l-0.5-0.8c0.3,0,0.5-0.1,0.5-0.5c0-0.4-0.3-0.6-0.8-0.6h-0.7v1.9h0.4L110.7,26.3
			L110.7,26.3z M110.7,26v-0.5h0.3c0.2,0,0.4,0,0.4,0.2c0,0.2-0.1,0.3-0.3,0.3H110.7z"/>
		<path class="st0" d="M111,28c-1,0-1.8-0.8-1.8-1.8s0.8-1.8,1.8-1.8s1.8,0.8,1.8,1.8S112,28,111,28z M111,24.8
			c-0.8,0-1.5,0.7-1.5,1.5c0,0.8,0.7,1.5,1.5,1.5s1.5-0.6,1.5-1.5C112.4,25.4,111.8,24.8,111,24.8z"/>
	</g>
</g>
</svg>
