<?xml version="1.0" encoding="utf-8"?>
<!-- Generator: Adobe Illustrator 27.0.0, SVG Export Plug-In . SVG Version: 6.00 Build 0)  -->
<svg version="1.1" id="Layer_1" xmlns="http://www.w3.org/2000/svg" xmlns:xlink="http://www.w3.org/1999/xlink" x="0px" y="0px"
	 viewBox="0 0 461.7 131.9" style="enable-background:new 0 0 461.7 131.9;" xml:space="preserve">
<style type="text/css">
	.st0{fill:#001689;}
	.st1{fill:#58B847;}
	.st2{fill:#FED600;}
</style>
<g>
	<path class="st0" d="M187.5,104.3c-11.1,0-22.3-3.9-31.1-11.7l9.5-11.4c6.6,5.4,13.5,8.9,21.9,8.9c6.6,0,10.6-2.6,10.6-6.9v-0.2
		c0-4.1-2.5-6.2-14.8-9.3c-14.8-3.8-24.3-7.8-24.3-22.4V51c0-13.3,10.7-22.1,25.6-22.1c10.7,0,19.8,3.3,27.2,9.3l-8.4,12.1
		c-6.5-4.5-12.9-7.2-19-7.2c-6.2,0-9.4,2.8-9.4,6.4v0.2c0,4.8,3.1,6.4,15.8,9.6c14.9,3.9,23.2,9.2,23.2,22v0.2
		C214.4,96.1,203.3,104.3,187.5,104.3z"/>
	<path class="st0" d="M252.6,103.2H224V30h28.6c23,0,38.9,15.8,38.9,36.4v0.2C291.5,87.2,275.6,103.2,252.6,103.2z M274.7,66.6
		c0-13-8.9-22.1-22.1-22.1h-12.5v44.2h12.5c13.2,0,22.1-8.9,22.1-21.9V66.6z"/>
	<path class="st1" d="M335.9,104.5c-22.8,0-38.5-16-38.5-37.7v-0.2c0-20.8,16.2-37.9,38.4-37.9c13.2,0,21.1,3.6,28.8,10L354.4,51
		c-5.7-4.7-10.7-7.4-19.1-7.4c-11.7,0-21,10.4-21,22.8v0.2c0,13.4,9.2,23.2,22.2,23.2c5.9,0,11.1-1.5,15.2-4.4V75h-16.2V61.1h31.8
		v31.8C359.6,99.3,349.3,104.5,335.9,104.5z"/>
	<path class="st1" d="M379,103.2V30h55.3v14.3H395v14.9h34.5v14.3H395v15.4h39.8v14.3H379z"/>
	<g>
		<path class="st0" d="M443.8,39.5h-1.7v-8h-3V30h7.7v1.6h-3V39.5z"/>
		<path class="st0" d="M453.4,37.2L453.4,37.2l-3-4.5v6.8h-1.6V30h1.8l2.9,4.5l2.9-4.5h1.8v9.5h-1.7v-6.8L453.4,37.2z"/>
	</g>
</g>
<g>
	<path class="st1" d="M120.4,39.7C107.8,51.7,61,82.1,5.4,80c3.2,14.9,11.3,24.2,11.3,24.2c34.7-2.4,89.8-39.6,108-52.9
		C123.7,47.4,122.2,43.3,120.4,39.7z"/>
	<path class="st0" d="M124.8,51.4c0,0-26,42-90.9,68.1c5.9,3.5,16.7,8.5,29.1,8.6c15.8,0.2,26.5-3.6,37.3-10.8
		c8.9-5.9,17.6-16.6,21.8-27.3c3-7.5,4.7-15.5,4.7-23.5C126.7,61.4,126,56.2,124.8,51.4z"/>
	<path class="st2" d="M105.3,20.2C94.5,11,80.6,5.4,65.3,5.4C31.4,5.4,4,32.8,4,66.7c0,4.5,0.5,9.1,1.4,13.3
		C5.4,80,74,70.4,105.3,20.2z"/>
</g>
</svg>
