<svg width="58" height="18" viewBox="0 0 58 18" fill="none" xmlns="http://www.w3.org/2000/svg">
<g clip-path="url(#clip0_753_197)">
<path d="M10.47 0H11.08L20.72 3.9L19.92 6.84H3.44997C2.55997 3.64 5.99997 0 10.47 0Z" fill="#125590"/>
<path d="M14.18 0H21.82L21.04 2.79L14.18 0Z" fill="#125590"/>
<path d="M3.72 8H16.57C17.5065 8.60712 18.2261 9.49589 18.6251 10.5383C19.0241 11.5806 19.0818 12.7227 18.79 13.8C17.62 17.5 13.36 17.99 12.79 17.99H0L1.78 11.58H7.17C6.35127 11.0869 5.5957 10.4959 4.92 9.82C4.43991 9.2701 4.03627 8.65791 3.72 8Z" fill="#125590"/>
<path d="M28.06 6.8402H21.38L22.05 4.4502L28.06 6.8402Z" fill="#125590"/>
<path d="M22.38 3.32969L28.6 5.83969L23.16 0.429688L22.38 3.32969Z" fill="#125590"/>
<path d="M24.36 0H27.82L29.54 5.17L24.36 0Z" fill="#125590"/>
<path d="M29.05 0L30.71 5L32.38 0H29.05Z" fill="#125590"/>
<path d="M26.27 18H18.27L21 8H38.45C38.2016 8.5457 37.8636 9.04595 37.45 9.48C36.8307 10.0297 36.1108 10.4542 35.33 10.73L37.18 16.4L39.51 8H56.86C56.5461 8.89803 55.9451 9.66767 55.15 10.19C53.6989 11.1719 52.001 11.7263 50.25 11.79H46.8L46.28 9.9L44 18H30.25L28.25 11L26.27 18Z" fill="#125590"/>
<path d="M33.36 6.8398H39C39.076 6.45725 39.1228 6.06946 39.14 5.6798C39.1666 5.30361 39.1666 4.926 39.14 4.5498L33.36 6.8398Z" fill="#125590"/>
<path d="M31.67 5.29L36.2 0.79C35.8275 0.554264 35.4235 0.37246 35 0.25C34.4784 0.137435 33.9509 0.0539729 33.42 0L31.67 5.29Z" fill="#125590"/>
<path d="M37.18 1.41992L32.79 5.80992L38.7 3.43992C38.5142 3.03582 38.279 2.65626 38 2.30992C37.7542 1.98899 37.4798 1.69109 37.18 1.41992Z" fill="#125590"/>
<path d="M41.73 0H47.17L41.05 2.48L41.73 0Z" fill="#125590"/>
<path d="M39.83 6.84L40.64 3.91L50.31 0H51.58C52.5943 0.056818 53.5795 0.35963 54.4506 0.882296C55.3217 1.40496 56.0526 2.13178 56.58 3C56.9826 3.55165 57.2524 4.18872 57.3686 4.86167C57.4848 5.53462 57.4442 6.2253 57.25 6.88L39.83 6.84Z" fill="#125590"/>
</g>
<defs>
<clipPath id="clip0_753_197">
<rect width="58" height="18" fill="white"/>
</clipPath>
</defs>
</svg>
