<svg xmlns="http://www.w3.org/2000/svg" xmlns:xlink="http://www.w3.org/1999/xlink" width="913.89" height="216.54" viewBox="0 0 913.89 216.54"><defs><style>.a{clip-path:url(#a);}.b{fill:#005faa;}.c{fill:#fff;}.c,.d{fill-rule:evenodd;}.d{fill:url(#b);}.e{fill:url(#c);}.f{fill:none;}</style><clipPath id="a"><rect width="913.89" height="216.54"/></clipPath><linearGradient id="b" y1="0.5" x2="1" y2="0.5" gradientUnits="objectBoundingBox"><stop offset="0" stop-color="#f6bc00"/><stop offset="1" stop-color="#ffd823"/></linearGradient><linearGradient id="c" y1="0.5" x2="1" y2="0.5" gradientUnits="objectBoundingBox"><stop offset="0" stop-color="#003f82"/><stop offset="1" stop-color="#005ba9"/></linearGradient></defs><g class="a"><g transform="translate(-279 -166)"><g transform="translate(-1087.386 166)"><g transform="translate(266.146 14.159)"><g transform="translate(1379.56)"><path class="b" d="M551.391-114.686c-46.19,0-75.058-19.2-75.058-38.4s28.868-38.4,75.058-38.4,75.058,19.2,75.058,38.4S597.58-114.686,551.391-114.686Zm0-70.686c-33.31,0-42.193,17.7-42.193,32.288s8.883,32.29,42.193,32.29,42.191-17.7,42.191-32.29S584.7-185.372,551.391-185.372Z" transform="translate(-100.456 191.48)"/><path class="b" d="M386.947-184.657H357.635v61.211l15.1,6.359H315.886l15.1-6.359v-61.211H301.675l-19.985,14.71v-20.694H406.934v20.694Z" transform="translate(-281.69 192.261)"/><path class="b" d="M349.736-117.087l15.1-6.359v-60.838l-15.1-6.357H459.288v20.694L439.3-184.657H391.485v27.52H413.8l14.952-6.359v18.7L413.8-151.152H391.485v28.08H439.3l19.987-14.711v20.7Z" transform="translate(-218.332 192.261)"/><path class="b" d="M484.7-115.61c-45.153,0-75.056-18.575-75.056-37.774,0-19.572,30.643-37.772,75.056-37.772,27.685,0,37.012,2.617,44.116,4.362v21.441l-23.834-16.329c-5.774-2.493-11.843-3.492-20.282-3.492-33.309,0-42.191,17.453-42.191,31.79s10.067,31.79,42.191,31.79c8.439,0,14.509-1,20.282-3.49l23.834-16.331v21.567C521.266-117.98,510.9-115.61,484.7-115.61Z" transform="translate(-162.553 191.781)"/><g transform="translate(523.973 65.324)"><path class="b" d="M558.884-157.653A5.807,5.807,0,0,1,563-155.916a5.807,5.807,0,0,1,1.664,4.149,5.8,5.8,0,0,1-1.661,4.179,5.8,5.8,0,0,1-4.149,1.736,5.842,5.842,0,0,1-4.152-1.74,5.842,5.842,0,0,1-1.682-4.175,5.85,5.85,0,0,1,1.7-4.154,5.85,5.85,0,0,1,4.139-1.732Zm-.027.914a4.855,4.855,0,0,0-4.71,4.973,4.848,4.848,0,0,0,1.326,3.487,4.848,4.848,0,0,0,3.411,1.513,4.8,4.8,0,0,0,3.4-1.5,4.8,4.8,0,0,0,1.313-3.473,4.843,4.843,0,0,0-1.315-3.48,4.843,4.843,0,0,0-3.395-1.52Zm-1.1,8.4h-1.046v-6.568a11.875,11.875,0,0,1,1.856-.156,3.434,3.434,0,0,1,2.041.5,1.565,1.565,0,0,1,.6,1.358,1.637,1.637,0,0,1-1.282,1.6v.052c.575.1.969.628,1.1,1.6a5.425,5.425,0,0,0,.417,1.622h-1.1A4.8,4.8,0,0,1,559.9-150a1.229,1.229,0,0,0-.451-.889,1.229,1.229,0,0,0-.963-.262h-.732Zm0-3.636h.759c.864,0,1.6-.315,1.6-1.126,0-.575-.419-1.149-1.6-1.149a5.279,5.279,0,0,0-.759.05Z" transform="translate(-553.023 157.653)"/></g></g><g transform="translate(1402.672 171.204)"><path class="b" d="M293.658-81.615l12.634-21.209h5.019l12.807,21.209h-5.84l-2.684-4.646H301.446l-2.6,4.646Zm10-8.468h9.777l-4.8-8.632Z" transform="translate(-293.658 102.824)"/><path class="b" d="M312.119-81.615v-21.209h3.547l15.708,12.5a23.824,23.824,0,0,1,2.551,2.3q-.217-2.957-.216-3.658v-11.139h4.673v21.209h-3.548l-16.4-13.11a15.71,15.71,0,0,1-1.86-1.728,33.284,33.284,0,0,1,.216,3.37v11.469Z" transform="translate(-276.469 102.824)"/><path class="b" d="M338.265-81.615v-21.209H361.11v3.617H343.458v4.727h10.3v3.617h-10.3v5.26h17.869v3.988Z" transform="translate(-252.124 102.824)"/><path class="b" d="M354.15-81.615v-21.209h4.2L368.859-90l10.3-12.825h4.156v21.209h-4.8v-13.11a20.92,20.92,0,0,1,.174-2.261,15.629,15.629,0,0,1-1.3,2.219L369-84.168H367.96l-8.394-10.644a9.655,9.655,0,0,1-1.34-2.178,22.466,22.466,0,0,1,.129,2.261v13.11Z" transform="translate(-237.334 102.824)"/><path class="b" d="M373.91-81.615v-21.209h22.845v3.617H379.1v4.727h10.3v3.617H379.1v5.26h17.871v3.988Z" transform="translate(-218.935 102.824)"/><path class="b" d="M389.817-81.615v-21.209h19.126q5.017,0,5.017,4.109v4.975q0,4.11-5.017,4.109H406l10.3,8.016h-7.441l-9-8.016h-4.93v8.016Zm16.789-17.592H394.925v5.959h11.681a4,4,0,0,0,1.688-.249,1.526,1.526,0,0,0,.649-1.448V-97.51a1.528,1.528,0,0,0-.649-1.448,4,4,0,0,0-1.688-.249Z" transform="translate(-204.124 102.824)"/><path class="b" d="M404.558-81.615l12.633-21.209h5.021l12.8,21.209h-5.842l-2.68-4.646H412.348l-2.6,4.646Zm10-8.468h9.779l-4.8-8.632Z" transform="translate(-190.398 102.824)"/><path class="b" d="M449.667-99.043H435.649V-85.6h14.018v-4.561l5.193,1.027v2.507q0,2.958-1.168,3.986t-4.37,1.029H436q-3.2,0-4.372-1.029t-1.167-3.986V-97.809q0-2.96,1.167-3.988T436-102.824h13.325q3.2,0,4.37,1.027t1.168,3.988v2.014l-5.193.78Z" transform="translate(-166.283 102.824)"/><path class="b" d="M447.4-97.809q0-2.96,1.168-3.988t4.37-1.027h16.441q3.2,0,4.37,1.027t1.166,3.988V-86.63q0,2.958-1.166,3.986t-4.37,1.029H452.934q-3.2,0-4.37-1.029T447.4-86.63ZM452.589-85.6h17.133V-99.043H452.589Z" transform="translate(-150.511 102.824)"/><path class="b" d="M466.283-81.615v-21.209h4.2L480.994-90l10.3-12.825h4.156v21.209h-4.8v-13.11a20.881,20.881,0,0,1,.174-2.261,15.869,15.869,0,0,1-1.3,2.219l-8.391,10.6h-1.041L471.7-94.812a9.67,9.67,0,0,1-1.342-2.178,22.549,22.549,0,0,1,.131,2.261v13.11Z" transform="translate(-132.926 102.824)"/><path class="b" d="M486.043-81.615v-21.209h19.124q5.02,0,5.019,4.109v4.727q0,4.11-5.019,4.109H491.149v8.263ZM502.83-99.207H491.149V-93.5H502.83a4,4,0,0,0,1.688-.249,1.537,1.537,0,0,0,.649-1.458v-2.3a1.538,1.538,0,0,0-.649-1.458,3.956,3.956,0,0,0-1.688-.247Z" transform="translate(-114.527 102.824)"/><path class="b" d="M499.464-81.615,512.1-102.824h5.019l12.8,21.209h-5.84L521.4-86.261H507.252l-2.6,4.646Zm9.994-8.468h9.779l-4.8-8.632Z" transform="translate(-102.031 102.824)"/><path class="b" d="M517.924-81.615v-21.209h3.549l15.7,12.5a23.92,23.92,0,0,1,2.553,2.3q-.217-2.957-.217-3.658v-11.139h4.671v21.209h-3.547l-16.4-13.11a15.685,15.685,0,0,1-1.862-1.728,33.509,33.509,0,0,1,.218,3.37v11.469Z" transform="translate(-84.842 102.824)"/><path class="b" d="M545.225-81.615v-9.493l-11.594-11.716h6.921l7.657,8.138,7.7-8.138h6.1l-11.552,11.59v9.619Z" transform="translate(-70.217 102.824)"/></g><g transform="translate(1396.293 111.885)"><path class="b" d="M315-106.62h-8.285v-22.123h-16.36v-4.8h41.078v4.8H315Z" transform="translate(-290.355 133.542)"/><path class="b" d="M329.583-133.542h8.008l20.435,26.922H348.7l-4.279-5.9h-22.57l-4.142,5.9h-8.284Zm11.392,16.173-7.665-10.957-7.939,10.957Z" transform="translate(-272.6 133.542)"/><path class="b" d="M339.05-133.542h6.7l16.776,16.277,16.432-16.277h6.628v26.922h-7.664v-16.644a21.7,21.7,0,0,1,.276-2.868,17.548,17.548,0,0,1-2.07,2.815l-13.4,13.462h-1.657L347.68-123.369a11.892,11.892,0,0,1-2.141-2.763,22.3,22.3,0,0,1,.208,2.868v16.644h-6.7Z" transform="translate(-245.015 133.542)"/><path class="b" d="M369.321-133.542h30.514c5.453,0,8.008,1.462,8.008,5.216v6c0,3.754-2.555,5.216-8.008,5.216H377.467v10.488h-8.146Zm8.146,4.644v7.147h18.639c2.555,0,3.729-.365,3.729-2.14v-2.87c0-1.773-1.174-2.138-3.729-2.138Z" transform="translate(-216.829 133.542)"/><path class="b" d="M409.078-133.542h8.008l20.435,26.922H428.2l-4.281-5.9H401.346l-4.142,5.9h-8.285Zm11.391,16.173-7.663-10.957-7.939,10.957Z" transform="translate(-198.581 133.542)"/><path class="b" d="M430.967-133.542h36.452v4.592H439.252v6h16.43v4.59h-16.43v6.678h28.511v5.061h-36.8Z" transform="translate(-159.43 133.542)"/><path class="b" d="M455.79-133.542h8.284v21.86h26.717v5.061h-35Z" transform="translate(-136.317 133.542)"/><path class="b" d="M478.77-133.542h36.452v4.592H487.056v6h16.43v4.59h-16.43v6.678h28.511v5.061h-36.8Z" transform="translate(-114.92 133.542)"/><path class="b" d="M512.2-128.743v17.061h22.368v-5.791l8.284,1.306v3.182c0,5.059-2.142,6.365-8.837,6.365H512.752c-6.7,0-8.836-1.305-8.836-6.365v-14.192c0-5.059,2.139-6.365,8.836-6.365h21.263c6.7,0,8.837,1.306,8.837,6.365v2.557l-8.284.991v-5.114Z" transform="translate(-91.508 133.542)"/><path class="b" d="M551.969-106.62h-8.284v-22.123H527.322v-4.8H568.4v4.8H551.97Z" transform="translate(-69.714 133.542)"/><path class="b" d="M552.417-133.542h30.516c5.451,0,8.007,1.462,8.007,5.216v6.315c0,3.756-2.555,5.216-8.007,5.216h-4.7l16.432,10.175H582.792L568.434-116.8h-7.871v10.175h-8.146Zm8.146,4.644v7.512H579.2c2.555,0,3.729-.365,3.729-2.14v-3.234c0-1.773-1.174-2.138-3.729-2.138Z" transform="translate(-46.347 133.542)"/><path class="b" d="M579.657-133.542h8.285v26.922h-8.285Z" transform="translate(-20.984 133.542)"/><path class="b" d="M598.417-128.743v17.061h22.368v-5.791l8.285,1.306v3.182c0,5.059-2.14,6.365-8.836,6.365H598.969c-6.7,0-8.837-1.305-8.837-6.365v-14.192c0-5.059,2.142-6.365,8.837-6.365h21.264c6.7,0,8.836,1.306,8.836,6.365v2.557l-8.285.991v-5.114Z" transform="translate(-11.231 133.542)"/></g></g><g transform="translate(1366.386)"><path class="c" d="M286.834,212.576c-59.707-5.565-98.964,29.486-118.371,72.338,67.463-21.023,167.081-19.1,218.655,14.8-12.853-45.993-47.035-82.172-100.284-87.134" transform="translate(-117.498 -211.993)"/><path class="d" d="M139.314,338.463H224.8c26.4-41.556,63.5-72.406,129.881-73.985-91.091-23.689-185.812,9.849-215.368,73.985" transform="translate(-139.312 -178.408)"/><path class="c" d="M229.69,319.107c-14.9,34.756,7.445,71.46,47.677,65.761,45.885-6.5,74.925-60.427,70.694-115.082C299.2,267.329,244.616,284.3,229.69,319.107" transform="translate(-75.149 -168.916)"/><path class="e" d="M168.464,284.913c67.456-21.023,167.081-19.1,218.652,14.8-12.853-45.993-47.035-82.176-100.284-87.135q-6.315-.59-12.323-.582C221.7,212,186.5,245.09,168.464,284.916" transform="translate(-117.497 -211.992)"/><path class="f" d="M295.294,256.869c-69.9,0-132.87,31.445-155.98,81.594H224.8c26.4-41.556,63.5-72.406,129.877-73.985a236.079,236.079,0,0,0-59.354-7.609h-.034" transform="translate(-139.313 -178.408)"/><path class="e" d="M229.689,319.107c-14.908,34.756,7.448,71.46,47.677,65.76,45.885-6.5,74.927-60.426,70.7-115.084q-4.652-.231-9.352-.232c-46.273,0-95.044,16.959-109.023,49.556" transform="translate(-75.151 -168.917)"/></g></g></g></g></svg>