<?xml version="1.0" encoding="utf-8"?>
<!-- Generator: Adobe Illustrator 24.2.1, SVG Export Plug-In . SVG Version: 6.00 Build 0)  -->
<svg version="1.1" id="Layer_1" xmlns="http://www.w3.org/2000/svg" xmlns:xlink="http://www.w3.org/1999/xlink" x="0px" y="0px"
	 viewBox="0 0 151.69 40.08" style="enable-background:new 0 0 151.69 40.08;" xml:space="preserve">
<style type="text/css">
	.st0{fill:#F3901D;}
	.st1{fill-rule:evenodd;clip-rule:evenodd;fill:#233E99;}
</style>
<g>
	<path class="st0" d="M19.66,10.84c-0.18,0.38-0.06,0.84,0.28,1.08c0.15,0.1,0.32,0.15,0.49,0.15c0.23,0,0.45-0.09,0.62-0.26
		c0,0,0.1-0.11,0.36-0.32c0.78-0.63,2.75-1.93,5.57-1.93c1.82,0,4.02,0.52,6.6,2.16c0.33,0.21,0.75,0.17,1.04-0.09
		c0.29-0.26,0.36-0.68,0.18-1.03L33,7.11c-0.1-0.19-0.26-0.33-0.46-0.41c-0.06-0.02-2.09-0.78-4.67-0.79
		C25.11,5.89,21.53,6.9,19.66,10.84z M39.07,16.05c-0.07-0.04-3.52-4.32-8.47-4.37c-1.53,0-3.19,0.45-4.81,1.57
		c-0.35,0.24-0.47,0.7-0.29,1.08c0.18,0.38,0.62,0.57,1.02,0.45c0,0,0.15-0.05,0.48-0.1c0.33-0.06,0.82-0.11,1.41-0.11
		c2.32,0.03,6.15,0.8,9.13,6.26c0.15,0.28,0.44,0.45,0.75,0.45c0.07,0,0.13-0.01,0.2-0.02c0.38-0.09,0.65-0.42,0.66-0.81l0.11-3.81
		C39.27,16.42,39.2,16.21,39.07,16.05z M28.41,16.7c-0.42,0-0.78,0.31-0.85,0.72c-0.06,0.42,0.18,0.82,0.59,0.95
		c0,0,0.05,0.02,0.2,0.08c1.04,0.47,5.38,2.55,5.39,9.18c0,0.62-0.04,1.28-0.12,1.99c-0.04,0.38,0.17,0.75,0.53,0.89
		c0.1,0.04,0.21,0.06,0.32,0.06c0.26,0,0.52-0.12,0.68-0.34l2.34-3.07c0.13-0.17,0.19-0.38,0.17-0.59
		c-0.01-0.06-0.19-2.42-1.42-4.86C35.06,19.28,32.62,16.68,28.41,16.7z M29.93,22.72c-0.32-0.28-0.79-0.28-1.12-0.01
		c-0.32,0.27-0.4,0.74-0.18,1.1c0,0,0.04,0.07,0.13,0.25c0.26,0.55,0.82,1.93,0.82,3.74c-0.01,2.22-0.79,5.1-4.09,8.16
		c-0.29,0.26-0.36,0.69-0.18,1.03c0.15,0.29,0.45,0.46,0.76,0.46c0.06,0,0.13-0.01,0.19-0.02l3.72-0.85
		c0.21-0.04,0.39-0.17,0.51-0.34c0.03-0.07,2.38-3.26,2.4-7.17C32.9,26.97,32.14,24.62,29.93,22.72z M26.39,29.33
		c-0.03-0.42-0.37-0.76-0.79-0.79c-0.42-0.03-0.81,0.25-0.9,0.66c0,0-0.01,0.07-0.07,0.23c-0.44,1.22-2.38,6.27-10.27,6.29
		c-0.13,0-0.26,0-0.41,0c-0.39,0-0.73,0.25-0.83,0.62c-0.11,0.37,0.05,0.77,0.38,0.97l3.3,2.01c0.14,0.08,0.29,0.13,0.45,0.13
		c0.05,0,0.11,0,0.16-0.01c0.06-0.01,2.22-0.42,4.45-1.76c2.22-1.31,4.59-3.72,4.58-7.53C26.43,29.88,26.42,29.61,26.39,29.33z
		 M18.17,31.78c0.23-0.35,0.17-0.82-0.14-1.11c-0.31-0.28-0.79-0.3-1.12-0.04c0,0-0.09,0.08-0.32,0.22
		c-0.68,0.43-2.39,1.33-4.7,1.33c-2.03,0-4.54-0.66-7.4-3.02c-0.3-0.25-0.72-0.26-1.04-0.04c-0.32,0.22-0.44,0.63-0.32,0.99
		l1.28,3.6c0.07,0.2,0.22,0.37,0.41,0.47c0.07,0.03,2.78,1.47,6.07,1.48c0.02,0,0.05,0,0.07,0C13.41,35.66,16.25,34.74,18.17,31.78z
		 M12.45,28.72c0.39-0.16,0.61-0.57,0.52-0.99c-0.09-0.41-0.47-0.7-0.89-0.67c0,0-0.05,0.01-0.17,0.01
		c-1.12-0.05-6.96-0.26-9.16-8.36c-0.1-0.37-0.44-0.63-0.82-0.64c-0.39,0-0.73,0.25-0.83,0.62l-1.06,3.7
		c-0.06,0.21-0.04,0.43,0.06,0.63c0.06,0.04,3.07,6.27,9.05,6.36C10.19,29.39,11.3,29.18,12.45,28.72z M9.19,23.47
		c0.06,0.01,0.12,0.02,0.18,0.02c0.35,0,0.67-0.21,0.8-0.55c0.15-0.39-0.01-0.84-0.37-1.05c0,0-0.2-0.11-0.56-0.4
		c-1.09-0.89-3.28-3.12-3.29-7.14c0-1.31,0.23-2.82,0.83-4.55C6.9,9.43,6.77,9.03,6.45,8.81C6.13,8.59,5.7,8.61,5.41,8.86L2.43,11.4
		c-0.16,0.14-0.27,0.34-0.29,0.55c0,0.03-0.06,0.5-0.06,1.25c0,1.31,0.16,3.47,1.13,5.54C4.15,20.82,6.02,22.81,9.19,23.47z
		 M10.54,17.68c0.16,0,0.33-0.05,0.48-0.15c0.35-0.23,0.48-0.69,0.31-1.07c0,0-0.02-0.05-0.07-0.18c-0.15-0.41-0.47-1.45-0.47-2.83
		c0.02-2.32,0.84-5.56,5.15-8.62c0.31-0.22,0.44-0.63,0.31-1c-0.13-0.36-0.5-0.59-0.88-0.56l-3.83,0.32
		c-0.21,0.02-0.41,0.11-0.56,0.27c-0.04,0.07-3.33,3.51-3.36,7.92c-0.01,1.83,0.62,3.83,2.3,5.62
		C10.08,17.58,10.31,17.68,10.54,17.68z M14.05,12.51c0.07,0.42,0.42,0.72,0.85,0.72c0,0,0,0,0,0c0.43,0,0.78-0.31,0.85-0.73
		c0,0,0.01-0.07,0.06-0.25c0.37-1.28,1.98-6.56,10.19-6.85c0.39-0.01,0.72-0.28,0.81-0.65c0.09-0.38-0.08-0.77-0.41-0.95l-3.4-1.9
		c-0.2-0.11-0.42-0.14-0.64-0.08c-0.05,0.02-2.07,0.54-4.14,1.94c-2.06,1.37-4.27,3.74-4.26,7.3
		C13.93,11.52,13.97,12.01,14.05,12.51z"/>
	<path class="st1" d="M52.56,2.43h-2.77V1.48h13.72v0.95h-2.87v29.19c0,4.23,1.49,6.87,5.42,6.87c4.47,0,6.38-3.6,6.38-8.36V4.86
		c0-2.11-0.85-2.43-2.98-2.43V1.48h6.92v0.95c-2.02,0-2.66,0.32-2.66,1.8v25.59c0,6.45-2.66,10.26-10.74,10.26
		c-7.13,0-10.42-4.12-10.42-10.26V2.43L52.56,2.43z"/>
	<path class="st1" d="M74.57,38.39h2.55V15.44h-2.55v-0.95h4.25c2.13,0,3.94,0,5.32-1.48v5.29h0.11c1.38-2.85,4.25-4.55,7.66-4.55
		c3.51,0,6.27,2.01,6.27,7.08v17.56h2.66v0.95H88.83v-0.95h2.34V19.25c0-1.9-0.53-3.28-2.55-3.28c-3.19,0-4.47,4.02-4.47,5.92v16.5
		h2.45v0.95H74.57V38.39L74.57,38.39z"/>
	<path class="st1" d="M101.48,38.39h2.55V15.44h-2.55v-0.95h4.26c1.92,0,3.93,0,5.32-1.48v25.38h2.66v0.95h-12.23V38.39
		L101.48,38.39z M107.55,1.48c2.23,0,4.04,1.8,4.04,4.02s-1.81,4.02-4.04,4.02c-2.23,0-4.04-1.8-4.04-4.02S105.31,1.48,107.55,1.48
		L107.55,1.48z"/>
	<path class="st1" d="M115.1,15.34h-2.98v-0.95c5.74-0.32,8.62-6.24,9.04-11.21h0.96v11.21h3.72v0.95h-3.72v19.99
		c0,1.59,0.53,2.43,1.49,2.43c1.38,0,2.23-2.33,2.34-4.02l1.06,0.11c-0.43,3.7-2.55,6.13-6.49,6.13c-2.87,0-5.43-0.95-5.43-5.6
		V15.34L115.1,15.34z"/>
	<path class="st1" d="M126.59,38.29h2.55V15.34h-2.55v-0.95h4.26c1.91,0,3.93,0,5.32-1.48v25.38h2.66v0.95h-12.23V38.29
		L126.59,38.29z M132.65,1.27c2.23,0,4.04,1.9,4.04,4.12c0,2.12-1.81,4.02-4.04,4.02s-4.04-1.9-4.04-4.02
		C128.61,3.17,130.42,1.27,132.65,1.27L132.65,1.27z"/>
	<path class="st1" d="M139.46,38.29h2.55V2.22h-2.55V1.27h4.26c2.13,0,3.93,0,5.32-1.27v38.29h2.66v0.95h-12.23V38.29L139.46,38.29z
		"/>
</g>
</svg>
