<?xml version="1.0" encoding="UTF-8"?>
<svg width="100%" height="100%" id="logo" viewBox="0 0 181 36" version="1.1" xmlns="http://www.w3.org/2000/svg" xmlns:xlink="http://www.w3.org/1999/xlink">
    <g id="logo" stroke="none" stroke-width="1" fill="none" fill-rule="evenodd">
        <g transform="translate(-111.000000, -16.000000)">
            <g transform="translate(111.000000, 16.000000)">
                <path d="M35.0805694,25.409638 C33.7146623,27.0680577 31.7474,28.764602 29.0680066,30.593579 C20.2079082,36.6353233 8.76534536,36.6192708 4.08407213,30.5554544 C2.18406667,28.0974216 1.45512131,25.0825692 1.97735082,21.8379659 C2.80817049,16.6530216 6.76643279,11.4550348 13.118247,7.20113311 C15.1478208,5.84369705 16.6709902,5.84771016 17.5898372,6.09351344 C18.7727661,6.40854295 19.4562142,7.22019541 19.6747989,7.64859541 L19.6837005,7.66866098 C20.1347169,8.55656262 21.1880776,10.6333495 17.0933235,13.8759462 C8.9651377,20.3089692 6.11958033,26.082838 9.07986995,30.1320708 C12.1766514,34.3679134 22.1613235,34.1542151 28.865247,29.7046741 C30.9630667,28.3131266 32.7730667,27.112202 34.4841596,25.0384249 C34.6888973,24.7886085 34.9025366,24.8187069 35.0222142,24.9210413 C35.1636514,25.0414348 35.1923344,25.2741954 35.0805694,25.409638" fill="#DA1020"></path>
                <path d="M0.0689382514,9.70551738 C1.43484536,8.04509115 3.40210765,6.34955016 6.08150109,4.52257967 C14.9415995,-1.52217443 26.3841623,-1.50511869 31.0654355,4.55970098 C32.9644519,7.01873705 33.6933973,10.0325862 33.174135,13.275183 C32.3403481,18.4601272 28.3830749,23.6601207 22.0302716,27.9150256 C20.002676,29.2724616 18.4804956,29.266442 17.5586814,29.021642 C16.3777306,28.708619 15.6923044,27.8939567 15.4766869,27.46656 L15.4658071,27.4464944 C15.0147907,26.5605993 13.9624191,24.4818059 18.0571732,21.2392092 C26.185359,14.805183 29.0309164,9.0313141 26.0706268,4.98308459 C22.9728563,0.746238689 12.9871951,0.960940328 6.28426066,5.40947803 C4.18841913,6.8000223 2.37545191,8.00295344 0.664359016,10.0767305 C0.459621311,10.3265469 0.245981967,10.2954452 0.127293443,10.1931108 C-0.0151327869,10.0737207 -0.042826776,9.83995672 0.0689382514,9.70551738" fill="#DA1020"></path>
                <polygon fill="#000000" points="51.9135694 15.6021875 47.953329 7.37128918 53.7245585 7.37128918 55.3921322 11.928181 58.8232197 7.37128918 65.1265694 7.37128918 57.9528372 15.6021875 62.1296842 24.8644564 56.1655858 24.8644564 54.2576678 19.9644433 50.2707224 24.8644564 43.749777 24.8644564"></polygon>
                <path d="M71.1386377,16.9758767 C71.1623754,16.3628734 71.0654464,15.9705915 70.7993863,15.7267948 C70.558053,15.4559095 70.1475885,15.3575882 69.5917306,15.3575882 C67.5146814,15.3575882 66.9578344,18.1266374 66.9578344,19.3265587 C66.9578344,20.5274833 67.2248836,21.6561718 68.6026596,21.6561718 C69.9052661,21.6561718 70.4373863,20.5034046 70.7024574,19.7930833 L75.291747,19.7930833 C74.4727962,23.4199357 72.1761732,25.184703 68.553206,25.184703 C63.2389273,25.184703 62.175676,21.7534898 62.175676,19.3767226 C62.175676,15.0405521 64.9549656,11.8300603 69.736135,11.8300603 C73.2146978,11.8300603 75.7991404,13.4232669 75.7279273,16.9758767 L71.1386377,16.9758767 Z" fill="#000000"></path>
                <path d="M84.8108634,21.1652675 C84.5655738,21.6047036 83.9632295,22.0712282 82.925694,22.0712282 C81.4262623,22.0712282 80.9683224,20.943543 80.9683224,19.5981462 L89.9035902,19.5981462 C90.1221749,18.812579 90.1459126,18.0771757 90.1459126,17.3919364 C90.1459126,13.3998905 86.7890055,11.8297593 84.0126831,11.8297593 C80.8951311,11.8297593 76.4996995,13.7420085 76.4996995,19.5730643 C76.4996995,22.6611561 78.2869508,25.184402 82.7328251,25.184402 C88.1410656,25.184402 89.0826612,22.0220675 89.3971858,21.1652675 L84.8108634,21.1652675 Z M81.3787869,17.0728938 C81.7407869,15.7264938 82.5864426,14.9429331 83.8672896,14.9429331 C85.0759344,14.9429331 85.6782787,15.7034184 85.6782787,16.6575364 C85.6782787,16.7779298 85.654541,16.9504938 85.6308033,17.0728938 L81.3787869,17.0728938 Z" fill="#000000"></path>
                <polygon fill="#000000" points="94.0355333 7.37169049 98.8167027 7.37169049 95.2422 24.8648577 90.4590525 24.8648577"></polygon>
                <polygon fill="#000000" points="104.844398 7.37169049 116.729076 7.37169049 116.343338 9.33109377 106.754295 9.33109377 105.594114 14.8942741 114.532349 14.8942741 114.143644 16.8536774 105.18365 16.8536774 103.92654 22.9054544 113.638229 22.9054544 113.20106 24.8648577 101.198683 24.8648577"></polygon>
                <path d="M117.815274,12.196558 L119.795394,12.196558 L119.409656,14.1078039 L119.458121,14.1078039 C120.498623,12.6871613 122.186968,11.9036007 123.903995,11.9036007 C126.244137,11.9036007 127.382558,12.9329646 127.382558,15.1622498 C127.382558,15.703017 127.235186,16.6571351 127.017591,17.6383416 L125.496399,24.864958 L123.444077,24.864958 L125.03846,17.4657777 C125.134399,17.0002564 125.328257,15.9458105 125.328257,15.5043679 C125.328257,14.3054498 124.361935,13.7416072 123.15329,13.7416072 C122.017837,13.7416072 120.837875,14.3776859 120.061454,15.2124138 C119.338443,15.8494957 118.950727,16.8537777 118.684667,17.8560531 L117.236667,24.864958 L115.183356,24.864958 L117.815274,12.196558 Z" fill="#000000"></path>
                <path d="M139.772849,19.1558007 C139.844062,18.8126793 139.964728,18.1755974 139.964728,17.5134334 C139.964728,13.9377482 138.348586,11.903099 134.674187,11.903099 C131.246067,11.903099 128.250171,15.2119121 128.250171,20.0617613 C128.250171,22.2669679 129.409362,25.1574138 133.540712,25.1574138 C136.270548,25.1574138 138.538488,23.6906203 139.193253,20.8964892 L137.138952,20.8964892 C136.558368,22.4626072 135.327963,23.3214138 133.540712,23.3214138 C131.873138,23.3214138 130.302493,22.2198138 130.302493,20.2594072 C130.302493,19.8891974 130.326231,19.5250072 130.375685,19.1558007 L139.772849,19.1558007 Z M130.665483,17.3187974 C131.269805,15.3573875 132.575379,13.7421089 134.989701,13.7421089 C137.259619,13.7421089 138.05681,15.5299515 137.912406,17.3187974 L130.665483,17.3187974 Z" fill="#000000"></path>
                <path d="M142.984461,12.196558 L144.915128,12.196558 L144.312784,14.9184531 L144.364215,14.9184531 C145.329549,13.1787679 146.799308,11.9036007 148.903062,11.9036007 C149.142417,11.9036007 149.385729,11.8564466 149.626073,11.9036007 L149.142417,14.1338892 C148.949549,14.1078039 148.73492,14.1078039 148.540073,14.1078039 C148.03268,14.1078039 147.789368,14.1078039 147.30868,14.2302039 C146.173226,14.5251679 145.300866,15.2846498 144.652035,16.2889318 C144.094199,17.0975744 143.80539,18.298499 143.610543,19.2536203 L142.428603,24.864958 L140.37727,24.864958 L142.984461,12.196558 Z" fill="#000000"></path>
                <polygon fill="#000000" points="161.715983 29.9773652 164.621874 24.853621 162.423169 12.185221 164.621874 12.185221 166.068885 22.2541259 166.120316 22.2541259 171.360415 12.185221 173.606595 12.185221 163.687202 29.976362"></polygon>
                <path d="M159.13609,23.0278544 L161.385238,12.1994675 L159.452593,12.1994675 L159.066855,14.5250675 L159.016413,14.5250675 L159.016413,14.4769102 C158.654413,12.8847069 156.86815,11.9035003 155.056172,11.9035003 C150.997025,11.9035003 148.559954,15.9717954 148.559954,19.7200446 C148.559954,22.7328905 150.153347,24.963179 153.245183,24.963179 C154.815828,24.963179 156.24009,24.376261 157.13421,23.0278544 L157.183664,23.0770151 C155.988866,27.6650085 152.711085,28.7204577 149.221642,28.7204577 C149.046577,29.2200905 148.684577,29.9284052 148.430385,30.5494348 C152.52415,30.5494348 157.609954,29.6464839 159.13609,23.0278544 M150.613265,19.7200446 C150.613265,17.392438 152.158194,13.7415069 155.032434,13.7415069 C157.183664,13.7415069 158.221199,15.0648315 158.221199,17.0483134 C158.221199,19.5976446 156.769243,23.1261757 153.679385,23.1261757 C151.626074,23.1261757 150.613265,21.5339725 150.613265,19.7200446" fill="#000000"></path>
                <path d="M177.21077,13.4066125 L177.513426,13.4066125 C177.77454,13.4066125 178.049502,13.4066125 178.125661,13.0434256 C178.20083,12.6792354 177.899163,12.6792354 177.664754,12.6792354 L177.362098,12.6792354 L177.21077,13.4066125 Z M176.660846,12.148501 L178.010928,12.148501 C178.491617,12.148501 179.096928,12.148501 178.93571,12.9170125 C178.87142,13.2240157 178.667672,13.5460682 178.088076,13.6152944 L178.085109,13.6293403 C178.632065,13.642383 178.601404,13.9222977 178.595469,14.2152551 C178.552939,14.8703961 178.548983,14.8984879 178.564808,15.0800813 L177.697393,15.0800813 C177.694426,14.8984879 177.708273,14.7038518 177.744868,14.3958452 C177.77454,14.0607502 177.787398,13.9353403 177.430344,13.9353403 L177.099005,13.9353403 L176.85965,15.0800813 L176.046633,15.0800813 L176.660846,12.148501 Z M175.405715,13.6152944 C175.153502,14.8152157 175.919043,15.7924092 177.096038,15.7924092 C178.299737,15.7924092 179.468819,14.8011698 179.718065,13.6152944 C179.974234,12.393301 179.202759,11.4161075 178.011917,11.4161075 C176.849759,11.4161075 175.665841,12.3732354 175.405715,13.6152944 L175.405715,13.6152944 Z M180.165125,13.6152944 C179.86148,15.0660354 178.443152,16.2529141 176.99812,16.2529141 C175.554076,16.2529141 174.646109,15.0660354 174.951732,13.6152944 C175.263289,12.1224157 176.690519,10.9626256 178.106868,10.9626256 C179.524207,10.9626256 180.47965,12.1224157 180.165125,13.6152944 L180.165125,13.6152944 Z" fill="#000000"></path>
            </g>
        </g>
    </g>
</svg>
